<svg viewBox="-16 -32 880 192" width="880" height="192" xmlns="http://www.w3.org/2000/svg"><desc>Generated with https://github.com/Platane/snk</desc><style>:root{--cb:#1b1f230a;--cs:purple;--ce:#ebedf0;--c0:#ebedf0;--c1:#9be9a8;--c2:#40c463;--c3:#30a14e;--c4:#216e39}.c{shape-rendering:geometricPrecision;fill:var(--ce);stroke-width:1px;stroke:var(--cb);animation:none 34300ms linear infinite;width:12px;height:12px}@keyframes c0{2.61%{fill:var(--c1)}2.63%,100%{fill:var(--ce)}}.c.c0{fill:var(--c1);animation-name:c0}@keyframes c1{5.24%{fill:var(--c1)}5.26%,100%{fill:var(--ce)}}.c.c1{fill:var(--c1);animation-name:c1}@keyframes c2{5.53%{fill:var(--c1)}5.55%,100%{fill:var(--ce)}}.c.c2{fill:var(--c1);animation-name:c2}@keyframes c3{6.99%{fill:var(--c1)}7.01%,100%{fill:var(--ce)}}.c.c3{fill:var(--c1);animation-name:c3}@keyframes c4{8.74%{fill:var(--c1)}8.76%,100%{fill:var(--ce)}}.c.c4{fill:var(--c1);animation-name:c4}@keyframes c5{9.32%{fill:var(--c1)}9.34%,100%{fill:var(--ce)}}.c.c5{fill:var(--c1);animation-name:c5}@keyframes c6{9.03%{fill:var(--c1)}9.05%,100%{fill:var(--ce)}}.c.c6{fill:var(--c1);animation-name:c6}@keyframes c7{12.23%{fill:var(--c1)}12.25%,100%{fill:var(--ce)}}.c.c7{fill:var(--c1);animation-name:c7}@keyframes c8{12.53%{fill:var(--c1)}12.55%,100%{fill:var(--ce)}}.c.c8{fill:var(--c1);animation-name:c8}@keyframes c9{14.28%{fill:var(--c1)}14.3%,100%{fill:var(--ce)}}.c.c9{fill:var(--c1);animation-name:c9}@keyframes ca{11.36%{fill:var(--c1)}11.38%,100%{fill:var(--ce)}}.c.ca{fill:var(--c1);animation-name:ca}@keyframes cb{11.94%{fill:var(--c1)}11.96%,100%{fill:var(--ce)}}.c.cb{fill:var(--c1);animation-name:cb}@keyframes cc{71.13%{fill:var(--c2)}71.15%,100%{fill:var(--ce)}}.c.cc{fill:var(--c2);animation-name:cc}@keyframes cd{13.11%{fill:var(--c1)}13.13%,100%{fill:var(--ce)}}.c.cd{fill:var(--c1);animation-name:cd}@keyframes ce{13.69%{fill:var(--c1)}13.71%,100%{fill:var(--ce)}}.c.ce{fill:var(--c1);animation-name:ce}@keyframes cf{41.97%{fill:var(--c1)}41.99%,100%{fill:var(--ce)}}.c.cf{fill:var(--c1);animation-name:cf}@keyframes cg{15.73%{fill:var(--c1)}15.75%,100%{fill:var(--ce)}}.c.cg{fill:var(--c1);animation-name:cg}@keyframes ch{69.67%{fill:var(--c2)}69.69%,100%{fill:var(--ce)}}.c.ch{fill:var(--c2);animation-name:ch}@keyframes ci{73.46%{fill:var(--c3)}73.48%,100%{fill:var(--ce)}}.c.ci{fill:var(--c3);animation-name:ci}@keyframes cj{46.64%{fill:var(--c2)}46.66%,100%{fill:var(--ce)}}.c.cj{fill:var(--c2);animation-name:cj}@keyframes ck{41.68%{fill:var(--c1)}41.7%,100%{fill:var(--ce)}}.c.ck{fill:var(--c1);animation-name:ck}@keyframes cl{43.14%{fill:var(--c1)}43.16%,100%{fill:var(--ce)}}.c.cl{fill:var(--c1);animation-name:cl}@keyframes cm{38.18%{fill:var(--c1)}38.2%,100%{fill:var(--ce)}}.c.cm{fill:var(--c1);animation-name:cm}@keyframes cn{38.47%{fill:var(--c1)}38.49%,100%{fill:var(--ce)}}.c.cn{fill:var(--c1);animation-name:cn}@keyframes co{46.35%{fill:var(--c2)}46.37%,100%{fill:var(--ce)}}.c.co{fill:var(--c2);animation-name:co}@keyframes cp{41.39%{fill:var(--c1)}41.41%,100%{fill:var(--ce)}}.c.cp{fill:var(--c1);animation-name:cp}@keyframes cq{16.61%{fill:var(--c1)}16.63%,100%{fill:var(--ce)}}.c.cq{fill:var(--c1);animation-name:cq}@keyframes cr{16.32%{fill:var(--c1)}16.34%,100%{fill:var(--ce)}}.c.cr{fill:var(--c1);animation-name:cr}@keyframes cs{43.43%{fill:var(--c1)}43.45%,100%{fill:var(--ce)}}.c.cs{fill:var(--c1);animation-name:cs}@keyframes ct{47.8%{fill:var(--c2)}47.82%,100%{fill:var(--ce)}}.c.ct{fill:var(--c2);animation-name:ct}@keyframes cu{39.06%{fill:var(--c1)}39.08%,100%{fill:var(--ce)}}.c.cu{fill:var(--c1);animation-name:cu}@keyframes cv{41.1%{fill:var(--c1)}41.12%,100%{fill:var(--ce)}}.c.cv{fill:var(--c1);animation-name:cv}@keyframes cw{16.9%{fill:var(--c1)}16.92%,100%{fill:var(--ce)}}.c.cw{fill:var(--c1);animation-name:cw}@keyframes cx{37.02%{fill:var(--c1)}37.04%,100%{fill:var(--ce)}}.c.cx{fill:var(--c1);animation-name:cx}@keyframes cy{74.63%{fill:var(--c3)}74.65%,100%{fill:var(--ce)}}.c.cy{fill:var(--c3);animation-name:cy}@keyframes cz{17.19%{fill:var(--c1)}17.21%,100%{fill:var(--ce)}}.c.cz{fill:var(--c1);animation-name:cz}@keyframes c10{44.89%{fill:var(--c1)}44.91%,100%{fill:var(--ce)}}.c.c10{fill:var(--c1);animation-name:c10}@keyframes c11{44.01%{fill:var(--c1)}44.03%,100%{fill:var(--ce)}}.c.c11{fill:var(--c1);animation-name:c11}@keyframes c12{36.72%{fill:var(--c1)}36.74%,100%{fill:var(--ce)}}.c.c12{fill:var(--c1);animation-name:c12}@keyframes c13{40.51%{fill:var(--c1)}40.53%,100%{fill:var(--ce)}}.c.c13{fill:var(--c1);animation-name:c13}@keyframes c14{17.48%{fill:var(--c1)}17.5%,100%{fill:var(--ce)}}.c.c14{fill:var(--c1);animation-name:c14}@keyframes c15{44.3%{fill:var(--c1)}44.32%,100%{fill:var(--ce)}}.c.c15{fill:var(--c1);animation-name:c15}@keyframes c16{36.43%{fill:var(--c1)}36.45%,100%{fill:var(--ce)}}.c.c16{fill:var(--c1);animation-name:c16}@keyframes c17{48.97%{fill:var(--c2)}48.99%,100%{fill:var(--ce)}}.c.c17{fill:var(--c2);animation-name:c17}@keyframes c18{39.93%{fill:var(--c1)}39.95%,100%{fill:var(--ce)}}.c.c18{fill:var(--c1);animation-name:c18}@keyframes c19{18.07%{fill:var(--c1)}18.09%,100%{fill:var(--ce)}}.c.c19{fill:var(--c1);animation-name:c19}@keyframes c1a{17.77%{fill:var(--c1)}17.79%,100%{fill:var(--ce)}}.c.c1a{fill:var(--c1);animation-name:c1a}@keyframes c1b{18.36%{fill:var(--c1)}18.38%,100%{fill:var(--ce)}}.c.c1b{fill:var(--c1);animation-name:c1b}@keyframes c1c{34.68%{fill:var(--c1)}34.7%,100%{fill:var(--ce)}}.c.c1c{fill:var(--c1);animation-name:c1c}@keyframes c1d{34.1%{fill:var(--c1)}34.12%,100%{fill:var(--ce)}}.c.c1d{fill:var(--c1);animation-name:c1d}@keyframes c1e{34.98%{fill:var(--c1)}35%,100%{fill:var(--ce)}}.c.c1e{fill:var(--c1);animation-name:c1e}@keyframes c1f{18.94%{fill:var(--c1)}18.96%,100%{fill:var(--ce)}}.c.c1f{fill:var(--c1);animation-name:c1f}@keyframes c1g{19.23%{fill:var(--c1)}19.25%,100%{fill:var(--ce)}}.c.c1g{fill:var(--c1);animation-name:c1g}@keyframes c1h{33.23%{fill:var(--c1)}33.25%,100%{fill:var(--ce)}}.c.c1h{fill:var(--c1);animation-name:c1h}@keyframes c1i{77.83%{fill:var(--c3)}77.85%,100%{fill:var(--ce)}}.c.c1i{fill:var(--c3);animation-name:c1i}@keyframes c1j{20.4%{fill:var(--c1)}20.42%,100%{fill:var(--ce)}}.c.c1j{fill:var(--c1);animation-name:c1j}@keyframes c1k{20.11%{fill:var(--c1)}20.13%,100%{fill:var(--ce)}}.c.c1k{fill:var(--c1);animation-name:c1k}@keyframes c1l{19.82%{fill:var(--c1)}19.84%,100%{fill:var(--ce)}}.c.c1l{fill:var(--c1);animation-name:c1l}@keyframes c1m{19.52%{fill:var(--c1)}19.54%,100%{fill:var(--ce)}}.c.c1m{fill:var(--c1);animation-name:c1m}@keyframes c1n{32.64%{fill:var(--c1)}32.66%,100%{fill:var(--ce)}}.c.c1n{fill:var(--c1);animation-name:c1n}@keyframes c1o{55.38%{fill:var(--c2)}55.4%,100%{fill:var(--ce)}}.c.c1o{fill:var(--c2);animation-name:c1o}@keyframes c1p{20.69%{fill:var(--c1)}20.71%,100%{fill:var(--ce)}}.c.c1p{fill:var(--c1);animation-name:c1p}@keyframes c1q{32.06%{fill:var(--c1)}32.08%,100%{fill:var(--ce)}}.c.c1q{fill:var(--c1);animation-name:c1q}@keyframes c1r{51.89%{fill:var(--c2)}51.91%,100%{fill:var(--ce)}}.c.c1r{fill:var(--c2);animation-name:c1r}@keyframes c1s{30.6%{fill:var(--c1)}30.62%,100%{fill:var(--ce)}}.c.c1s{fill:var(--c1);animation-name:c1s}@keyframes c1t{30.89%{fill:var(--c1)}30.91%,100%{fill:var(--ce)}}.c.c1t{fill:var(--c1);animation-name:c1t}@keyframes c1u{23.02%{fill:var(--c1)}23.04%,100%{fill:var(--ce)}}.c.c1u{fill:var(--c1);animation-name:c1u}@keyframes c1v{22.15%{fill:var(--c1)}22.17%,100%{fill:var(--ce)}}.c.c1v{fill:var(--c1);animation-name:c1v}@keyframes c1w{53.93%{fill:var(--c2)}53.95%,100%{fill:var(--ce)}}.c.c1w{fill:var(--c2);animation-name:c1w}@keyframes c1x{22.73%{fill:var(--c1)}22.75%,100%{fill:var(--ce)}}.c.c1x{fill:var(--c1);animation-name:c1x}@keyframes c1y{22.44%{fill:var(--c1)}22.46%,100%{fill:var(--ce)}}.c.c1y{fill:var(--c1);animation-name:c1y}@keyframes c1z{85.7%{fill:var(--c4)}85.72%,100%{fill:var(--ce)}}.c.c1z{fill:var(--c4);animation-name:c1z}@keyframes c20{80.75%{fill:var(--c3)}80.77%,100%{fill:var(--ce)}}.c.c20{fill:var(--c3);animation-name:c20}@keyframes c21{24.48%{fill:var(--c1)}24.5%,100%{fill:var(--ce)}}.c.c21{fill:var(--c1);animation-name:c21}@keyframes c22{84.54%{fill:var(--c4)}84.56%,100%{fill:var(--ce)}}.c.c22{fill:var(--c4);animation-name:c22}@keyframes c23{29.14%{fill:var(--c1)}29.16%,100%{fill:var(--ce)}}.c.c23{fill:var(--c1);animation-name:c23}@keyframes c24{60.05%{fill:var(--c2)}60.07%,100%{fill:var(--ce)}}.c.c24{fill:var(--c2);animation-name:c24}@keyframes c25{82.5%{fill:var(--c3)}82.52%,100%{fill:var(--ce)}}.c.c25{fill:var(--c3);animation-name:c25}@keyframes c26{58.88%{fill:var(--c2)}58.9%,100%{fill:var(--ce)}}.c.c26{fill:var(--c2);animation-name:c26}@keyframes c27{28.85%{fill:var(--c1)}28.87%,100%{fill:var(--ce)}}.c.c27{fill:var(--c1);animation-name:c27}@keyframes c28{28.56%{fill:var(--c1)}28.58%,100%{fill:var(--ce)}}.c.c28{fill:var(--c1);animation-name:c28}@keyframes c29{27.1%{fill:var(--c1)}27.12%,100%{fill:var(--ce)}}.c.c29{fill:var(--c1);animation-name:c29}@keyframes c2a{83.37%{fill:var(--c3)}83.39%,100%{fill:var(--ce)}}.c.c2a{fill:var(--c3);animation-name:c2a}@keyframes c2b{28.27%{fill:var(--c1)}28.29%,100%{fill:var(--ce)}}.c.c2b{fill:var(--c1);animation-name:c2b}@keyframes c2c{61.21%{fill:var(--c2)}61.23%,100%{fill:var(--ce)}}.c.c2c{fill:var(--c2);animation-name:c2c}@keyframes c2d{25.35%{fill:var(--c1)}25.37%,100%{fill:var(--ce)}}.c.c2d{fill:var(--c1);animation-name:c2d}@keyframes c2e{25.94%{fill:var(--c1)}25.96%,100%{fill:var(--ce)}}.c.c2e{fill:var(--c1);animation-name:c2e}.u{transform-origin:0 0;transform:scale(0,1);animation:none linear 34300ms infinite}@keyframes u0{2.61%{transform:scale(0.000,1)}2.63%,5.24%{transform:scale(0.015,1)}5.26%,5.53%{transform:scale(0.030,1)}5.55%,6.99%{transform:scale(0.045,1)}7.01%,8.74%{transform:scale(0.060,1)}8.76%,9.03%{transform:scale(0.075,1)}9.05%,9.32%{transform:scale(0.090,1)}9.34%,11.36%{transform:scale(0.104,1)}11.38%,11.94%{transform:scale(0.119,1)}11.96%,12.23%{transform:scale(0.134,1)}12.25%,12.53%{transform:scale(0.149,1)}12.55%,13.11%{transform:scale(0.164,1)}13.13%,13.69%{transform:scale(0.179,1)}13.71%,14.28%{transform:scale(0.194,1)}14.3%,15.73%{transform:scale(0.209,1)}15.75%,16.32%{transform:scale(0.224,1)}16.34%,16.61%{transform:scale(0.239,1)}16.63%,16.9%{transform:scale(0.254,1)}16.92%,17.19%{transform:scale(0.269,1)}17.21%,17.48%{transform:scale(0.284,1)}17.5%,17.77%{transform:scale(0.299,1)}17.79%,18.07%{transform:scale(0.313,1)}18.09%,18.36%{transform:scale(0.328,1)}18.38%,18.94%{transform:scale(0.343,1)}18.96%,19.23%{transform:scale(0.358,1)}19.25%,19.52%{transform:scale(0.373,1)}19.54%,19.82%{transform:scale(0.388,1)}19.84%,20.11%{transform:scale(0.403,1)}20.13%,20.4%{transform:scale(0.418,1)}20.42%,20.69%{transform:scale(0.433,1)}20.71%,22.15%{transform:scale(0.448,1)}22.17%,22.44%{transform:scale(0.463,1)}22.46%,22.73%{transform:scale(0.478,1)}22.75%,23.02%{transform:scale(0.493,1)}23.04%,24.48%{transform:scale(0.507,1)}24.5%,25.35%{transform:scale(0.522,1)}25.37%,25.94%{transform:scale(0.537,1)}25.96%,27.1%{transform:scale(0.552,1)}27.12%,28.27%{transform:scale(0.567,1)}28.29%,28.56%{transform:scale(0.582,1)}28.58%,28.85%{transform:scale(0.597,1)}28.87%,29.14%{transform:scale(0.612,1)}29.16%,30.6%{transform:scale(0.627,1)}30.62%,30.89%{transform:scale(0.642,1)}30.91%,32.06%{transform:scale(0.657,1)}32.08%,32.64%{transform:scale(0.672,1)}32.66%,33.23%{transform:scale(0.687,1)}33.25%,34.1%{transform:scale(0.701,1)}34.12%,34.68%{transform:scale(0.716,1)}34.7%,34.98%{transform:scale(0.731,1)}35%,36.43%{transform:scale(0.746,1)}36.45%,36.72%{transform:scale(0.761,1)}36.74%,37.02%{transform:scale(0.776,1)}37.04%,38.18%{transform:scale(0.791,1)}38.2%,38.47%{transform:scale(0.806,1)}38.49%,39.06%{transform:scale(0.821,1)}39.08%,39.93%{transform:scale(0.836,1)}39.95%,40.51%{transform:scale(0.851,1)}40.53%,41.1%{transform:scale(0.866,1)}41.12%,41.39%{transform:scale(0.881,1)}41.41%,41.68%{transform:scale(0.896,1)}41.7%,41.97%{transform:scale(0.910,1)}41.99%,43.14%{transform:scale(0.925,1)}43.16%,43.43%{transform:scale(0.940,1)}43.45%,44.01%{transform:scale(0.955,1)}44.03%,44.3%{transform:scale(0.970,1)}44.32%,44.89%{transform:scale(0.985,1)}44.91%,100%{transform:scale(1.000,1)}}.u.u0{fill:var(--c1);animation-name:u0;transform-origin:0.0px 0}@keyframes u1{46.35%{transform:scale(0.000,1)}46.37%,46.64%{transform:scale(0.083,1)}46.66%,47.8%{transform:scale(0.167,1)}47.82%,48.97%{transform:scale(0.250,1)}48.99%,51.89%{transform:scale(0.333,1)}51.91%,53.93%{transform:scale(0.417,1)}53.95%,55.38%{transform:scale(0.500,1)}55.4%,58.88%{transform:scale(0.583,1)}58.9%,60.05%{transform:scale(0.667,1)}60.07%,61.21%{transform:scale(0.750,1)}61.23%,69.67%{transform:scale(0.833,1)}69.69%,71.13%{transform:scale(0.917,1)}71.15%,100%{transform:scale(1.000,1)}}.u.u1{fill:var(--c2);animation-name:u1;transform-origin:653.1px 0}@keyframes u2{73.46%{transform:scale(0.000,1)}73.48%,74.63%{transform:scale(0.167,1)}74.65%,77.83%{transform:scale(0.333,1)}77.85%,80.75%{transform:scale(0.500,1)}80.77%,82.5%{transform:scale(0.667,1)}82.52%,83.37%{transform:scale(0.833,1)}83.39%,100%{transform:scale(1.000,1)}}.u.u2{fill:var(--c3);animation-name:u2;transform-origin:770.0px 0}@keyframes u3{84.54%{transform:scale(0.000,1)}84.56%,85.7%{transform:scale(0.500,1)}85.72%,100%{transform:scale(1.000,1)}}.u.u3{fill:var(--c4);animation-name:u3;transform-origin:828.5px 0}.s{shape-rendering:geometricPrecision;fill:var(--cs);animation:none linear 34300ms infinite}@keyframes s0{0%,99.71%{transform:translate(0px,-16px)}0.29%{transform:translate(0px,0px)}2.33%{transform:translate(112px,0px)}2.62%{transform:translate(112px,16px)}4.66%{transform:translate(224px,16px)}5.54%{transform:translate(224px,64px)}6.41%{transform:translate(272px,64px)}7%{transform:translate(272px,96px)}7.29%{transform:translate(288px,96px)}8.75%{transform:translate(288px,16px)}9.04%{transform:translate(304px,16px)}9.33%{transform:translate(304px,0px)}11.08%{transform:translate(400px,0px)}11.95%,71.43%{transform:translate(400px,48px)}12.24%{transform:translate(384px,48px)}12.83%,14.58%{transform:translate(384px,80px)}13.41%{transform:translate(416px,80px)}13.7%{transform:translate(416px,96px)}14.29%{transform:translate(384px,96px)}16.33%{transform:translate(480px,80px)}16.62%{transform:translate(480px,64px)}17.78%{transform:translate(544px,64px)}18.08%,40.23%{transform:translate(544px,48px)}19.53%{transform:translate(624px,48px)}20.41%{transform:translate(624px,0px)}21.28%{transform:translate(672px,0px)}21.57%{transform:translate(672px,16px)}22.45%{transform:translate(720px,16px)}22.74%{transform:translate(720px,0px)}23.03%,52.19%{transform:translate(704px,0px)}23.32%{transform:translate(704px,16px)}25.66%{transform:translate(832px,16px)}25.95%{transform:translate(832px,32px)}26.53%,59.77%{transform:translate(800px,32px)}27.11%,59.18%{transform:translate(800px,64px)}27.41%{transform:translate(816px,64px)}27.99%{transform:translate(816px,96px)}28.57%{transform:translate(784px,96px)}28.86%,58.6%,83.67%{transform:translate(784px,80px)}30.61%{transform:translate(688px,80px)}30.9%{transform:translate(688px,96px)}31.2%{transform:translate(672px,96px)}31.78%{transform:translate(672px,64px)}32.94%{transform:translate(608px,64px)}33.24%{transform:translate(608px,80px)}33.53%{transform:translate(592px,80px)}33.82%{transform:translate(592px,64px)}34.11%{transform:translate(576px,64px)}34.69%{transform:translate(576px,32px)}34.99%{transform:translate(592px,32px)}35.57%{transform:translate(592px,0px)}37.03%,74.34%{transform:translate(512px,0px)}37.32%{transform:translate(512px,-16px)}37.9%{transform:translate(480px,-16px)}38.48%,67.64%{transform:translate(480px,16px)}38.78%,47.52%{transform:translate(496px,16px)}39.07%{transform:translate(496px,32px)}39.94%{transform:translate(544px,32px)}41.98%{transform:translate(448px,48px)}42.27%{transform:translate(448px,64px)}42.57%{transform:translate(464px,64px)}43.15%{transform:translate(464px,96px)}44.31%{transform:translate(528px,96px)}44.61%{transform:translate(528px,80px)}44.9%{transform:translate(512px,80px)}45.77%{transform:translate(512px,32px)}46.65%{transform:translate(464px,32px)}46.94%{transform:translate(464px,16px)}47.81%{transform:translate(496px,0px)}48.69%{transform:translate(544px,0px)}48.98%{transform:translate(544px,16px)}51.6%{transform:translate(688px,16px)}51.9%{transform:translate(688px,0px)}53.94%{transform:translate(704px,96px)}55.39%{transform:translate(624px,96px)}55.69%{transform:translate(624px,80px)}58.89%{transform:translate(784px,64px)}60.06%,82.22%{transform:translate(784px,32px)}60.35%{transform:translate(784px,16px)}60.93%{transform:translate(816px,16px)}61.22%{transform:translate(816px,0px)}67.35%{transform:translate(480px,0px)}68.22%{transform:translate(448px,16px)}69.68%{transform:translate(448px,96px)}69.97%{transform:translate(432px,96px)}70.55%{transform:translate(432px,64px)}71.14%{transform:translate(400px,64px)}72.59%{transform:translate(464px,48px)}73.47%{transform:translate(464px,0px)}74.64%{transform:translate(512px,16px)}76.38%{transform:translate(608px,16px)}77.84%{transform:translate(608px,96px)}79.88%{transform:translate(720px,96px)}80.76%{transform:translate(720px,48px)}81.34%{transform:translate(752px,48px)}81.63%{transform:translate(752px,32px)}82.51%,84.26%{transform:translate(784px,48px)}82.8%{transform:translate(800px,48px)}83.38%{transform:translate(800px,80px)}84.55%{transform:translate(768px,48px)}84.84%{transform:translate(768px,32px)}97.67%{transform:translate(64px,32px)}98.54%{transform:translate(64px,-16px)}}.s.s0{transform:translate(0px,-16px);animation-name:s0}@keyframes s1{0%,99.71%{transform:translate(16px,-16px)}0.29%{transform:translate(0px,-16px)}0.58%{transform:translate(0px,0px)}2.62%{transform:translate(112px,0px)}2.92%{transform:translate(112px,16px)}4.96%{transform:translate(224px,16px)}5.83%{transform:translate(224px,64px)}6.71%{transform:translate(272px,64px)}7.29%{transform:translate(272px,96px)}7.58%{transform:translate(288px,96px)}9.04%{transform:translate(288px,16px)}9.33%{transform:translate(304px,16px)}9.62%{transform:translate(304px,0px)}11.37%{transform:translate(400px,0px)}12.24%,71.72%{transform:translate(400px,48px)}12.54%{transform:translate(384px,48px)}13.12%,14.87%{transform:translate(384px,80px)}13.7%{transform:translate(416px,80px)}13.99%{transform:translate(416px,96px)}14.58%{transform:translate(384px,96px)}16.62%{transform:translate(480px,80px)}16.91%{transform:translate(480px,64px)}18.08%{transform:translate(544px,64px)}18.37%,40.52%{transform:translate(544px,48px)}19.83%{transform:translate(624px,48px)}20.7%{transform:translate(624px,0px)}21.57%{transform:translate(672px,0px)}21.87%{transform:translate(672px,16px)}22.74%{transform:translate(720px,16px)}23.03%{transform:translate(720px,0px)}23.32%,52.48%{transform:translate(704px,0px)}23.62%{transform:translate(704px,16px)}25.95%{transform:translate(832px,16px)}26.24%{transform:translate(832px,32px)}26.82%,60.06%{transform:translate(800px,32px)}27.41%,59.48%{transform:translate(800px,64px)}27.7%{transform:translate(816px,64px)}28.28%{transform:translate(816px,96px)}28.86%{transform:translate(784px,96px)}29.15%,58.89%,83.97%{transform:translate(784px,80px)}30.9%{transform:translate(688px,80px)}31.2%{transform:translate(688px,96px)}31.49%{transform:translate(672px,96px)}32.07%{transform:translate(672px,64px)}33.24%{transform:translate(608px,64px)}33.53%{transform:translate(608px,80px)}33.82%{transform:translate(592px,80px)}34.11%{transform:translate(592px,64px)}34.4%{transform:translate(576px,64px)}34.99%{transform:translate(576px,32px)}35.28%{transform:translate(592px,32px)}35.86%{transform:translate(592px,0px)}37.32%,74.64%{transform:translate(512px,0px)}37.61%{transform:translate(512px,-16px)}38.19%{transform:translate(480px,-16px)}38.78%,67.93%{transform:translate(480px,16px)}39.07%,47.81%{transform:translate(496px,16px)}39.36%{transform:translate(496px,32px)}40.23%{transform:translate(544px,32px)}42.27%{transform:translate(448px,48px)}42.57%{transform:translate(448px,64px)}42.86%{transform:translate(464px,64px)}43.44%{transform:translate(464px,96px)}44.61%{transform:translate(528px,96px)}44.9%{transform:translate(528px,80px)}45.19%{transform:translate(512px,80px)}46.06%{transform:translate(512px,32px)}46.94%{transform:translate(464px,32px)}47.23%{transform:translate(464px,16px)}48.1%{transform:translate(496px,0px)}48.98%{transform:translate(544px,0px)}49.27%{transform:translate(544px,16px)}51.9%{transform:translate(688px,16px)}52.19%{transform:translate(688px,0px)}54.23%{transform:translate(704px,96px)}55.69%{transform:translate(624px,96px)}55.98%{transform:translate(624px,80px)}59.18%{transform:translate(784px,64px)}60.35%,82.51%{transform:translate(784px,32px)}60.64%{transform:translate(784px,16px)}61.22%{transform:translate(816px,16px)}61.52%{transform:translate(816px,0px)}67.64%{transform:translate(480px,0px)}68.51%{transform:translate(448px,16px)}69.97%{transform:translate(448px,96px)}70.26%{transform:translate(432px,96px)}70.85%{transform:translate(432px,64px)}71.43%{transform:translate(400px,64px)}72.89%{transform:translate(464px,48px)}73.76%{transform:translate(464px,0px)}74.93%{transform:translate(512px,16px)}76.68%{transform:translate(608px,16px)}78.13%{transform:translate(608px,96px)}80.17%{transform:translate(720px,96px)}81.05%{transform:translate(720px,48px)}81.63%{transform:translate(752px,48px)}81.92%{transform:translate(752px,32px)}82.8%,84.55%{transform:translate(784px,48px)}83.09%{transform:translate(800px,48px)}83.67%{transform:translate(800px,80px)}84.84%{transform:translate(768px,48px)}85.13%{transform:translate(768px,32px)}97.96%{transform:translate(64px,32px)}98.83%{transform:translate(64px,-16px)}}.s.s1{transform:translate(16px,-16px);animation-name:s1}@keyframes s2{0%,99.71%{transform:translate(32px,-16px)}0.58%{transform:translate(0px,-16px)}0.87%{transform:translate(0px,0px)}2.92%{transform:translate(112px,0px)}3.21%{transform:translate(112px,16px)}5.25%{transform:translate(224px,16px)}6.12%{transform:translate(224px,64px)}7%{transform:translate(272px,64px)}7.58%{transform:translate(272px,96px)}7.87%{transform:translate(288px,96px)}9.33%{transform:translate(288px,16px)}9.62%{transform:translate(304px,16px)}9.91%{transform:translate(304px,0px)}11.66%{transform:translate(400px,0px)}12.54%,72.01%{transform:translate(400px,48px)}12.83%{transform:translate(384px,48px)}13.41%,15.16%{transform:translate(384px,80px)}13.99%{transform:translate(416px,80px)}14.29%{transform:translate(416px,96px)}14.87%{transform:translate(384px,96px)}16.91%{transform:translate(480px,80px)}17.2%{transform:translate(480px,64px)}18.37%{transform:translate(544px,64px)}18.66%,40.82%{transform:translate(544px,48px)}20.12%{transform:translate(624px,48px)}20.99%{transform:translate(624px,0px)}21.87%{transform:translate(672px,0px)}22.16%{transform:translate(672px,16px)}23.03%{transform:translate(720px,16px)}23.32%{transform:translate(720px,0px)}23.62%,52.77%{transform:translate(704px,0px)}23.91%{transform:translate(704px,16px)}26.24%{transform:translate(832px,16px)}26.53%{transform:translate(832px,32px)}27.11%,60.35%{transform:translate(800px,32px)}27.7%,59.77%{transform:translate(800px,64px)}27.99%{transform:translate(816px,64px)}28.57%{transform:translate(816px,96px)}29.15%{transform:translate(784px,96px)}29.45%,59.18%,84.26%{transform:translate(784px,80px)}31.2%{transform:translate(688px,80px)}31.49%{transform:translate(688px,96px)}31.78%{transform:translate(672px,96px)}32.36%{transform:translate(672px,64px)}33.53%{transform:translate(608px,64px)}33.82%{transform:translate(608px,80px)}34.11%{transform:translate(592px,80px)}34.4%{transform:translate(592px,64px)}34.69%{transform:translate(576px,64px)}35.28%{transform:translate(576px,32px)}35.57%{transform:translate(592px,32px)}36.15%{transform:translate(592px,0px)}37.61%,74.93%{transform:translate(512px,0px)}37.9%{transform:translate(512px,-16px)}38.48%{transform:translate(480px,-16px)}39.07%,68.22%{transform:translate(480px,16px)}39.36%,48.1%{transform:translate(496px,16px)}39.65%{transform:translate(496px,32px)}40.52%{transform:translate(544px,32px)}42.57%{transform:translate(448px,48px)}42.86%{transform:translate(448px,64px)}43.15%{transform:translate(464px,64px)}43.73%{transform:translate(464px,96px)}44.9%{transform:translate(528px,96px)}45.19%{transform:translate(528px,80px)}45.48%{transform:translate(512px,80px)}46.36%{transform:translate(512px,32px)}47.23%{transform:translate(464px,32px)}47.52%{transform:translate(464px,16px)}48.4%{transform:translate(496px,0px)}49.27%{transform:translate(544px,0px)}49.56%{transform:translate(544px,16px)}52.19%{transform:translate(688px,16px)}52.48%{transform:translate(688px,0px)}54.52%{transform:translate(704px,96px)}55.98%{transform:translate(624px,96px)}56.27%{transform:translate(624px,80px)}59.48%{transform:translate(784px,64px)}60.64%,82.8%{transform:translate(784px,32px)}60.93%{transform:translate(784px,16px)}61.52%{transform:translate(816px,16px)}61.81%{transform:translate(816px,0px)}67.93%{transform:translate(480px,0px)}68.8%{transform:translate(448px,16px)}70.26%{transform:translate(448px,96px)}70.55%{transform:translate(432px,96px)}71.14%{transform:translate(432px,64px)}71.72%{transform:translate(400px,64px)}73.18%{transform:translate(464px,48px)}74.05%{transform:translate(464px,0px)}75.22%{transform:translate(512px,16px)}76.97%{transform:translate(608px,16px)}78.43%{transform:translate(608px,96px)}80.47%{transform:translate(720px,96px)}81.34%{transform:translate(720px,48px)}81.92%{transform:translate(752px,48px)}82.22%{transform:translate(752px,32px)}83.09%,84.84%{transform:translate(784px,48px)}83.38%{transform:translate(800px,48px)}83.97%{transform:translate(800px,80px)}85.13%{transform:translate(768px,48px)}85.42%{transform:translate(768px,32px)}98.25%{transform:translate(64px,32px)}99.13%{transform:translate(64px,-16px)}}.s.s2{transform:translate(32px,-16px);animation-name:s2}@keyframes s3{0%,99.71%{transform:translate(48px,-16px)}0.87%{transform:translate(0px,-16px)}1.17%{transform:translate(0px,0px)}3.21%{transform:translate(112px,0px)}3.5%{transform:translate(112px,16px)}5.54%{transform:translate(224px,16px)}6.41%{transform:translate(224px,64px)}7.29%{transform:translate(272px,64px)}7.87%{transform:translate(272px,96px)}8.16%{transform:translate(288px,96px)}9.62%{transform:translate(288px,16px)}9.91%{transform:translate(304px,16px)}10.2%{transform:translate(304px,0px)}11.95%{transform:translate(400px,0px)}12.83%,72.3%{transform:translate(400px,48px)}13.12%{transform:translate(384px,48px)}13.7%,15.45%{transform:translate(384px,80px)}14.29%{transform:translate(416px,80px)}14.58%{transform:translate(416px,96px)}15.16%{transform:translate(384px,96px)}17.2%{transform:translate(480px,80px)}17.49%{transform:translate(480px,64px)}18.66%{transform:translate(544px,64px)}18.95%,41.11%{transform:translate(544px,48px)}20.41%{transform:translate(624px,48px)}21.28%{transform:translate(624px,0px)}22.16%{transform:translate(672px,0px)}22.45%{transform:translate(672px,16px)}23.32%{transform:translate(720px,16px)}23.62%{transform:translate(720px,0px)}23.91%,53.06%{transform:translate(704px,0px)}24.2%{transform:translate(704px,16px)}26.53%{transform:translate(832px,16px)}26.82%{transform:translate(832px,32px)}27.41%,60.64%{transform:translate(800px,32px)}27.99%,60.06%{transform:translate(800px,64px)}28.28%{transform:translate(816px,64px)}28.86%{transform:translate(816px,96px)}29.45%{transform:translate(784px,96px)}29.74%,59.48%,84.55%{transform:translate(784px,80px)}31.49%{transform:translate(688px,80px)}31.78%{transform:translate(688px,96px)}32.07%{transform:translate(672px,96px)}32.65%{transform:translate(672px,64px)}33.82%{transform:translate(608px,64px)}34.11%{transform:translate(608px,80px)}34.4%{transform:translate(592px,80px)}34.69%{transform:translate(592px,64px)}34.99%{transform:translate(576px,64px)}35.57%{transform:translate(576px,32px)}35.86%{transform:translate(592px,32px)}36.44%{transform:translate(592px,0px)}37.9%,75.22%{transform:translate(512px,0px)}38.19%{transform:translate(512px,-16px)}38.78%{transform:translate(480px,-16px)}39.36%,68.51%{transform:translate(480px,16px)}39.65%,48.4%{transform:translate(496px,16px)}39.94%{transform:translate(496px,32px)}40.82%{transform:translate(544px,32px)}42.86%{transform:translate(448px,48px)}43.15%{transform:translate(448px,64px)}43.44%{transform:translate(464px,64px)}44.02%{transform:translate(464px,96px)}45.19%{transform:translate(528px,96px)}45.48%{transform:translate(528px,80px)}45.77%{transform:translate(512px,80px)}46.65%{transform:translate(512px,32px)}47.52%{transform:translate(464px,32px)}47.81%{transform:translate(464px,16px)}48.69%{transform:translate(496px,0px)}49.56%{transform:translate(544px,0px)}49.85%{transform:translate(544px,16px)}52.48%{transform:translate(688px,16px)}52.77%{transform:translate(688px,0px)}54.81%{transform:translate(704px,96px)}56.27%{transform:translate(624px,96px)}56.56%{transform:translate(624px,80px)}59.77%{transform:translate(784px,64px)}60.93%,83.09%{transform:translate(784px,32px)}61.22%{transform:translate(784px,16px)}61.81%{transform:translate(816px,16px)}62.1%{transform:translate(816px,0px)}68.22%{transform:translate(480px,0px)}69.1%{transform:translate(448px,16px)}70.55%{transform:translate(448px,96px)}70.85%{transform:translate(432px,96px)}71.43%{transform:translate(432px,64px)}72.01%{transform:translate(400px,64px)}73.47%{transform:translate(464px,48px)}74.34%{transform:translate(464px,0px)}75.51%{transform:translate(512px,16px)}77.26%{transform:translate(608px,16px)}78.72%{transform:translate(608px,96px)}80.76%{transform:translate(720px,96px)}81.63%{transform:translate(720px,48px)}82.22%{transform:translate(752px,48px)}82.51%{transform:translate(752px,32px)}83.38%,85.13%{transform:translate(784px,48px)}83.67%{transform:translate(800px,48px)}84.26%{transform:translate(800px,80px)}85.42%{transform:translate(768px,48px)}85.71%{transform:translate(768px,32px)}98.54%{transform:translate(64px,32px)}99.42%{transform:translate(64px,-16px)}}.s.s3{transform:translate(48px,-16px);animation-name:s3}</style><rect class="c" x="2" y="2" rx="2" ry="2"/><rect class="c" x="2" y="18" rx="2" ry="2"/><rect class="c" x="2" y="34" rx="2" ry="2"/><rect class="c" x="2" y="50" rx="2" ry="2"/><rect class="c" x="2" y="66" rx="2" ry="2"/><rect class="c" x="2" y="82" rx="2" ry="2"/><rect class="c" x="2" y="98" rx="2" ry="2"/><rect class="c" x="18" y="2" rx="2" ry="2"/><rect class="c" x="18" y="18" rx="2" ry="2"/><rect class="c" x="18" y="34" rx="2" ry="2"/><rect class="c" x="18" y="50" rx="2" ry="2"/><rect class="c" x="18" y="66" rx="2" ry="2"/><rect class="c" x="18" y="82" rx="2" ry="2"/><rect class="c" x="18" y="98" rx="2" ry="2"/><rect class="c" x="34" y="2" rx="2" ry="2"/><rect class="c" x="34" y="18" rx="2" ry="2"/><rect class="c" x="34" y="34" rx="2" ry="2"/><rect class="c" x="34" y="50" rx="2" ry="2"/><rect class="c" x="34" y="66" rx="2" ry="2"/><rect class="c" x="34" y="82" rx="2" ry="2"/><rect class="c" x="34" y="98" rx="2" ry="2"/><rect class="c" x="50" y="2" rx="2" ry="2"/><rect class="c" x="50" y="18" rx="2" ry="2"/><rect class="c" x="50" y="34" rx="2" ry="2"/><rect class="c" x="50" y="50" rx="2" ry="2"/><rect class="c" x="50" y="66" rx="2" ry="2"/><rect class="c" x="50" y="82" rx="2" ry="2"/><rect class="c" x="50" y="98" rx="2" ry="2"/><rect class="c" x="66" y="2" rx="2" ry="2"/><rect class="c" x="66" y="18" rx="2" ry="2"/><rect class="c" x="66" y="34" rx="2" ry="2"/><rect class="c" x="66" y="50" rx="2" ry="2"/><rect class="c" x="66" y="66" rx="2" ry="2"/><rect class="c" x="66" y="82" rx="2" ry="2"/><rect class="c" x="66" y="98" rx="2" ry="2"/><rect class="c" x="82" y="2" rx="2" ry="2"/><rect class="c" x="82" y="18" rx="2" ry="2"/><rect class="c" x="82" y="34" rx="2" ry="2"/><rect class="c" x="82" y="50" rx="2" ry="2"/><rect class="c" x="82" y="66" rx="2" ry="2"/><rect class="c" x="82" y="82" rx="2" ry="2"/><rect class="c" x="82" y="98" rx="2" ry="2"/><rect class="c" x="98" y="2" rx="2" ry="2"/><rect class="c" x="98" y="18" rx="2" ry="2"/><rect class="c" x="98" y="34" rx="2" ry="2"/><rect class="c" x="98" y="50" rx="2" ry="2"/><rect class="c" x="98" y="66" rx="2" ry="2"/><rect class="c" x="98" y="82" rx="2" ry="2"/><rect class="c" x="98" y="98" rx="2" ry="2"/><rect class="c" x="114" y="2" rx="2" ry="2"/><rect class="c c0" x="114" y="18" rx="2" ry="2"/><rect class="c" x="114" y="34" rx="2" ry="2"/><rect class="c" x="114" y="50" rx="2" ry="2"/><rect class="c" x="114" y="66" rx="2" ry="2"/><rect class="c" x="114" y="82" rx="2" ry="2"/><rect class="c" x="114" y="98" rx="2" ry="2"/><rect class="c" x="130" y="2" rx="2" ry="2"/><rect class="c" x="130" y="18" rx="2" ry="2"/><rect class="c" x="130" y="34" rx="2" ry="2"/><rect class="c" x="130" y="50" rx="2" ry="2"/><rect class="c" x="130" y="66" rx="2" ry="2"/><rect class="c" x="130" y="82" rx="2" ry="2"/><rect class="c" x="130" y="98" rx="2" ry="2"/><rect class="c" x="146" y="2" rx="2" ry="2"/><rect class="c" x="146" y="18" rx="2" ry="2"/><rect class="c" x="146" y="34" rx="2" ry="2"/><rect class="c" x="146" y="50" rx="2" ry="2"/><rect class="c" x="146" y="66" rx="2" ry="2"/><rect class="c" x="146" y="82" rx="2" ry="2"/><rect class="c" x="146" y="98" rx="2" ry="2"/><rect class="c" x="162" y="2" rx="2" ry="2"/><rect class="c" x="162" y="18" rx="2" ry="2"/><rect class="c" x="162" y="34" rx="2" ry="2"/><rect class="c" x="162" y="50" rx="2" ry="2"/><rect class="c" x="162" y="66" rx="2" ry="2"/><rect class="c" x="162" y="82" rx="2" ry="2"/><rect class="c" x="162" y="98" rx="2" ry="2"/><rect class="c" x="178" y="2" rx="2" ry="2"/><rect class="c" x="178" y="18" rx="2" ry="2"/><rect class="c" x="178" y="34" rx="2" ry="2"/><rect class="c" x="178" y="50" rx="2" ry="2"/><rect class="c" x="178" y="66" rx="2" ry="2"/><rect class="c" x="178" y="82" rx="2" ry="2"/><rect class="c" x="178" y="98" rx="2" ry="2"/><rect class="c" x="194" y="2" rx="2" ry="2"/><rect class="c" x="194" y="18" rx="2" ry="2"/><rect class="c" x="194" y="34" rx="2" ry="2"/><rect class="c" x="194" y="50" rx="2" ry="2"/><rect class="c" x="194" y="66" rx="2" ry="2"/><rect class="c" x="194" y="82" rx="2" ry="2"/><rect class="c" x="194" y="98" rx="2" ry="2"/><rect class="c" x="210" y="2" rx="2" ry="2"/><rect class="c" x="210" y="18" rx="2" ry="2"/><rect class="c" x="210" y="34" rx="2" ry="2"/><rect class="c" x="210" y="50" rx="2" ry="2"/><rect class="c" x="210" y="66" rx="2" ry="2"/><rect class="c" x="210" y="82" rx="2" ry="2"/><rect class="c" x="210" y="98" rx="2" ry="2"/><rect class="c" x="226" y="2" rx="2" ry="2"/><rect class="c" x="226" y="18" rx="2" ry="2"/><rect class="c" x="226" y="34" rx="2" ry="2"/><rect class="c c1" x="226" y="50" rx="2" ry="2"/><rect class="c c2" x="226" y="66" rx="2" ry="2"/><rect class="c" x="226" y="82" rx="2" ry="2"/><rect class="c" x="226" y="98" rx="2" ry="2"/><rect class="c" x="242" y="2" rx="2" ry="2"/><rect class="c" x="242" y="18" rx="2" ry="2"/><rect class="c" x="242" y="34" rx="2" ry="2"/><rect class="c" x="242" y="50" rx="2" ry="2"/><rect class="c" x="242" y="66" rx="2" ry="2"/><rect class="c" x="242" y="82" rx="2" ry="2"/><rect class="c" x="242" y="98" rx="2" ry="2"/><rect class="c" x="258" y="2" rx="2" ry="2"/><rect class="c" x="258" y="18" rx="2" ry="2"/><rect class="c" x="258" y="34" rx="2" ry="2"/><rect class="c" x="258" y="50" rx="2" ry="2"/><rect class="c" x="258" y="66" rx="2" ry="2"/><rect class="c" x="258" y="82" rx="2" ry="2"/><rect class="c" x="258" y="98" rx="2" ry="2"/><rect class="c" x="274" y="2" rx="2" ry="2"/><rect class="c" x="274" y="18" rx="2" ry="2"/><rect class="c" x="274" y="34" rx="2" ry="2"/><rect class="c" x="274" y="50" rx="2" ry="2"/><rect class="c" x="274" y="66" rx="2" ry="2"/><rect class="c" x="274" y="82" rx="2" ry="2"/><rect class="c c3" x="274" y="98" rx="2" ry="2"/><rect class="c" x="290" y="2" rx="2" ry="2"/><rect class="c c4" x="290" y="18" rx="2" ry="2"/><rect class="c" x="290" y="34" rx="2" ry="2"/><rect class="c" x="290" y="50" rx="2" ry="2"/><rect class="c" x="290" y="66" rx="2" ry="2"/><rect class="c" x="290" y="82" rx="2" ry="2"/><rect class="c" x="290" y="98" rx="2" ry="2"/><rect class="c c5" x="306" y="2" rx="2" ry="2"/><rect class="c c6" x="306" y="18" rx="2" ry="2"/><rect class="c" x="306" y="34" rx="2" ry="2"/><rect class="c" x="306" y="50" rx="2" ry="2"/><rect class="c" x="306" y="66" rx="2" ry="2"/><rect class="c" x="306" y="82" rx="2" ry="2"/><rect class="c" x="306" y="98" rx="2" ry="2"/><rect class="c" x="322" y="2" rx="2" ry="2"/><rect class="c" x="322" y="18" rx="2" ry="2"/><rect class="c" x="322" y="34" rx="2" ry="2"/><rect class="c" x="322" y="50" rx="2" ry="2"/><rect class="c" x="322" y="66" rx="2" ry="2"/><rect class="c" x="322" y="82" rx="2" ry="2"/><rect class="c" x="322" y="98" rx="2" ry="2"/><rect class="c" x="338" y="2" rx="2" ry="2"/><rect class="c" x="338" y="18" rx="2" ry="2"/><rect class="c" x="338" y="34" rx="2" ry="2"/><rect class="c" x="338" y="50" rx="2" ry="2"/><rect class="c" x="338" y="66" rx="2" ry="2"/><rect class="c" x="338" y="82" rx="2" ry="2"/><rect class="c" x="338" y="98" rx="2" ry="2"/><rect class="c" x="354" y="2" rx="2" ry="2"/><rect class="c" x="354" y="18" rx="2" ry="2"/><rect class="c" x="354" y="34" rx="2" ry="2"/><rect class="c" x="354" y="50" rx="2" ry="2"/><rect class="c" x="354" y="66" rx="2" ry="2"/><rect class="c" x="354" y="82" rx="2" ry="2"/><rect class="c" x="354" y="98" rx="2" ry="2"/><rect class="c" x="370" y="2" rx="2" ry="2"/><rect class="c" x="370" y="18" rx="2" ry="2"/><rect class="c" x="370" y="34" rx="2" ry="2"/><rect class="c" x="370" y="50" rx="2" ry="2"/><rect class="c" x="370" y="66" rx="2" ry="2"/><rect class="c" x="370" y="82" rx="2" ry="2"/><rect class="c" x="370" y="98" rx="2" ry="2"/><rect class="c" x="386" y="2" rx="2" ry="2"/><rect class="c" x="386" y="18" rx="2" ry="2"/><rect class="c" x="386" y="34" rx="2" ry="2"/><rect class="c c7" x="386" y="50" rx="2" ry="2"/><rect class="c c8" x="386" y="66" rx="2" ry="2"/><rect class="c" x="386" y="82" rx="2" ry="2"/><rect class="c c9" x="386" y="98" rx="2" ry="2"/><rect class="c" x="402" y="2" rx="2" ry="2"/><rect class="c ca" x="402" y="18" rx="2" ry="2"/><rect class="c" x="402" y="34" rx="2" ry="2"/><rect class="c cb" x="402" y="50" rx="2" ry="2"/><rect class="c cc" x="402" y="66" rx="2" ry="2"/><rect class="c cd" x="402" y="82" rx="2" ry="2"/><rect class="c" x="402" y="98" rx="2" ry="2"/><rect class="c" x="418" y="2" rx="2" ry="2"/><rect class="c" x="418" y="18" rx="2" ry="2"/><rect class="c" x="418" y="34" rx="2" ry="2"/><rect class="c" x="418" y="50" rx="2" ry="2"/><rect class="c" x="418" y="66" rx="2" ry="2"/><rect class="c" x="418" y="82" rx="2" ry="2"/><rect class="c ce" x="418" y="98" rx="2" ry="2"/><rect class="c" x="434" y="2" rx="2" ry="2"/><rect class="c" x="434" y="18" rx="2" ry="2"/><rect class="c" x="434" y="34" rx="2" ry="2"/><rect class="c" x="434" y="50" rx="2" ry="2"/><rect class="c" x="434" y="66" rx="2" ry="2"/><rect class="c" x="434" y="82" rx="2" ry="2"/><rect class="c" x="434" y="98" rx="2" ry="2"/><rect class="c" x="450" y="2" rx="2" ry="2"/><rect class="c" x="450" y="18" rx="2" ry="2"/><rect class="c" x="450" y="34" rx="2" ry="2"/><rect class="c cf" x="450" y="50" rx="2" ry="2"/><rect class="c" x="450" y="66" rx="2" ry="2"/><rect class="c cg" x="450" y="82" rx="2" ry="2"/><rect class="c ch" x="450" y="98" rx="2" ry="2"/><rect class="c ci" x="466" y="2" rx="2" ry="2"/><rect class="c" x="466" y="18" rx="2" ry="2"/><rect class="c cj" x="466" y="34" rx="2" ry="2"/><rect class="c ck" x="466" y="50" rx="2" ry="2"/><rect class="c" x="466" y="66" rx="2" ry="2"/><rect class="c" x="466" y="82" rx="2" ry="2"/><rect class="c cl" x="466" y="98" rx="2" ry="2"/><rect class="c cm" x="482" y="2" rx="2" ry="2"/><rect class="c cn" x="482" y="18" rx="2" ry="2"/><rect class="c co" x="482" y="34" rx="2" ry="2"/><rect class="c cp" x="482" y="50" rx="2" ry="2"/><rect class="c cq" x="482" y="66" rx="2" ry="2"/><rect class="c cr" x="482" y="82" rx="2" ry="2"/><rect class="c cs" x="482" y="98" rx="2" ry="2"/><rect class="c ct" x="498" y="2" rx="2" ry="2"/><rect class="c" x="498" y="18" rx="2" ry="2"/><rect class="c cu" x="498" y="34" rx="2" ry="2"/><rect class="c cv" x="498" y="50" rx="2" ry="2"/><rect class="c cw" x="498" y="66" rx="2" ry="2"/><rect class="c" x="498" y="82" rx="2" ry="2"/><rect class="c" x="498" y="98" rx="2" ry="2"/><rect class="c cx" x="514" y="2" rx="2" ry="2"/><rect class="c cy" x="514" y="18" rx="2" ry="2"/><rect class="c" x="514" y="34" rx="2" ry="2"/><rect class="c" x="514" y="50" rx="2" ry="2"/><rect class="c cz" x="514" y="66" rx="2" ry="2"/><rect class="c c10" x="514" y="82" rx="2" ry="2"/><rect class="c c11" x="514" y="98" rx="2" ry="2"/><rect class="c c12" x="530" y="2" rx="2" ry="2"/><rect class="c" x="530" y="18" rx="2" ry="2"/><rect class="c" x="530" y="34" rx="2" ry="2"/><rect class="c c13" x="530" y="50" rx="2" ry="2"/><rect class="c c14" x="530" y="66" rx="2" ry="2"/><rect class="c" x="530" y="82" rx="2" ry="2"/><rect class="c c15" x="530" y="98" rx="2" ry="2"/><rect class="c c16" x="546" y="2" rx="2" ry="2"/><rect class="c c17" x="546" y="18" rx="2" ry="2"/><rect class="c c18" x="546" y="34" rx="2" ry="2"/><rect class="c c19" x="546" y="50" rx="2" ry="2"/><rect class="c c1a" x="546" y="66" rx="2" ry="2"/><rect class="c" x="546" y="82" rx="2" ry="2"/><rect class="c" x="546" y="98" rx="2" ry="2"/><rect class="c" x="562" y="2" rx="2" ry="2"/><rect class="c" x="562" y="18" rx="2" ry="2"/><rect class="c" x="562" y="34" rx="2" ry="2"/><rect class="c c1b" x="562" y="50" rx="2" ry="2"/><rect class="c" x="562" y="66" rx="2" ry="2"/><rect class="c" x="562" y="82" rx="2" ry="2"/><rect class="c" x="562" y="98" rx="2" ry="2"/><rect class="c" x="578" y="2" rx="2" ry="2"/><rect class="c" x="578" y="18" rx="2" ry="2"/><rect class="c c1c" x="578" y="34" rx="2" ry="2"/><rect class="c" x="578" y="50" rx="2" ry="2"/><rect class="c c1d" x="578" y="66" rx="2" ry="2"/><rect class="c" x="578" y="82" rx="2" ry="2"/><rect class="c" x="578" y="98" rx="2" ry="2"/><rect class="c" x="594" y="2" rx="2" ry="2"/><rect class="c" x="594" y="18" rx="2" ry="2"/><rect class="c c1e" x="594" y="34" rx="2" ry="2"/><rect class="c c1f" x="594" y="50" rx="2" ry="2"/><rect class="c" x="594" y="66" rx="2" ry="2"/><rect class="c" x="594" y="82" rx="2" ry="2"/><rect class="c" x="594" y="98" rx="2" ry="2"/><rect class="c" x="610" y="2" rx="2" ry="2"/><rect class="c" x="610" y="18" rx="2" ry="2"/><rect class="c" x="610" y="34" rx="2" ry="2"/><rect class="c c1g" x="610" y="50" rx="2" ry="2"/><rect class="c" x="610" y="66" rx="2" ry="2"/><rect class="c c1h" x="610" y="82" rx="2" ry="2"/><rect class="c c1i" x="610" y="98" rx="2" ry="2"/><rect class="c c1j" x="626" y="2" rx="2" ry="2"/><rect class="c c1k" x="626" y="18" rx="2" ry="2"/><rect class="c c1l" x="626" y="34" rx="2" ry="2"/><rect class="c c1m" x="626" y="50" rx="2" ry="2"/><rect class="c c1n" x="626" y="66" rx="2" ry="2"/><rect class="c" x="626" y="82" rx="2" ry="2"/><rect class="c c1o" x="626" y="98" rx="2" ry="2"/><rect class="c c1p" x="642" y="2" rx="2" ry="2"/><rect class="c" x="642" y="18" rx="2" ry="2"/><rect class="c" x="642" y="34" rx="2" ry="2"/><rect class="c" x="642" y="50" rx="2" ry="2"/><rect class="c" x="642" y="66" rx="2" ry="2"/><rect class="c" x="642" y="82" rx="2" ry="2"/><rect class="c" x="642" y="98" rx="2" ry="2"/><rect class="c" x="658" y="2" rx="2" ry="2"/><rect class="c" x="658" y="18" rx="2" ry="2"/><rect class="c" x="658" y="34" rx="2" ry="2"/><rect class="c" x="658" y="50" rx="2" ry="2"/><rect class="c c1q" x="658" y="66" rx="2" ry="2"/><rect class="c" x="658" y="82" rx="2" ry="2"/><rect class="c" x="658" y="98" rx="2" ry="2"/><rect class="c" x="674" y="2" rx="2" ry="2"/><rect class="c" x="674" y="18" rx="2" ry="2"/><rect class="c" x="674" y="34" rx="2" ry="2"/><rect class="c" x="674" y="50" rx="2" ry="2"/><rect class="c" x="674" y="66" rx="2" ry="2"/><rect class="c" x="674" y="82" rx="2" ry="2"/><rect class="c" x="674" y="98" rx="2" ry="2"/><rect class="c c1r" x="690" y="2" rx="2" ry="2"/><rect class="c" x="690" y="18" rx="2" ry="2"/><rect class="c" x="690" y="34" rx="2" ry="2"/><rect class="c" x="690" y="50" rx="2" ry="2"/><rect class="c" x="690" y="66" rx="2" ry="2"/><rect class="c c1s" x="690" y="82" rx="2" ry="2"/><rect class="c c1t" x="690" y="98" rx="2" ry="2"/><rect class="c c1u" x="706" y="2" rx="2" ry="2"/><rect class="c c1v" x="706" y="18" rx="2" ry="2"/><rect class="c" x="706" y="34" rx="2" ry="2"/><rect class="c" x="706" y="50" rx="2" ry="2"/><rect class="c" x="706" y="66" rx="2" ry="2"/><rect class="c" x="706" y="82" rx="2" ry="2"/><rect class="c c1w" x="706" y="98" rx="2" ry="2"/><rect class="c c1x" x="722" y="2" rx="2" ry="2"/><rect class="c c1y" x="722" y="18" rx="2" ry="2"/><rect class="c c1z" x="722" y="34" rx="2" ry="2"/><rect class="c c20" x="722" y="50" rx="2" ry="2"/><rect class="c" x="722" y="66" rx="2" ry="2"/><rect class="c" x="722" y="82" rx="2" ry="2"/><rect class="c" x="722" y="98" rx="2" ry="2"/><rect class="c" x="738" y="2" rx="2" ry="2"/><rect class="c" x="738" y="18" rx="2" ry="2"/><rect class="c" x="738" y="34" rx="2" ry="2"/><rect class="c" x="738" y="50" rx="2" ry="2"/><rect class="c" x="738" y="66" rx="2" ry="2"/><rect class="c" x="738" y="82" rx="2" ry="2"/><rect class="c" x="738" y="98" rx="2" ry="2"/><rect class="c" x="754" y="2" rx="2" ry="2"/><rect class="c" x="754" y="18" rx="2" ry="2"/><rect class="c" x="754" y="34" rx="2" ry="2"/><rect class="c" x="754" y="50" rx="2" ry="2"/><rect class="c" x="754" y="66" rx="2" ry="2"/><rect class="c" x="754" y="82" rx="2" ry="2"/><rect class="c" x="754" y="98" rx="2" ry="2"/><rect class="c" x="770" y="2" rx="2" ry="2"/><rect class="c c21" x="770" y="18" rx="2" ry="2"/><rect class="c" x="770" y="34" rx="2" ry="2"/><rect class="c c22" x="770" y="50" rx="2" ry="2"/><rect class="c" x="770" y="66" rx="2" ry="2"/><rect class="c c23" x="770" y="82" rx="2" ry="2"/><rect class="c" x="770" y="98" rx="2" ry="2"/><rect class="c" x="786" y="2" rx="2" ry="2"/><rect class="c" x="786" y="18" rx="2" ry="2"/><rect class="c c24" x="786" y="34" rx="2" ry="2"/><rect class="c c25" x="786" y="50" rx="2" ry="2"/><rect class="c c26" x="786" y="66" rx="2" ry="2"/><rect class="c c27" x="786" y="82" rx="2" ry="2"/><rect class="c c28" x="786" y="98" rx="2" ry="2"/><rect class="c" x="802" y="2" rx="2" ry="2"/><rect class="c" x="802" y="18" rx="2" ry="2"/><rect class="c" x="802" y="34" rx="2" ry="2"/><rect class="c" x="802" y="50" rx="2" ry="2"/><rect class="c c29" x="802" y="66" rx="2" ry="2"/><rect class="c c2a" x="802" y="82" rx="2" ry="2"/><rect class="c c2b" x="802" y="98" rx="2" ry="2"/><rect class="c c2c" x="818" y="2" rx="2" ry="2"/><rect class="c c2d" x="818" y="18" rx="2" ry="2"/><rect class="c" x="818" y="34" rx="2" ry="2"/><rect class="c" x="818" y="50" rx="2" ry="2"/><rect class="c" x="818" y="66" rx="2" ry="2"/><rect class="c" x="818" y="82" rx="2" ry="2"/><rect class="c" x="818" y="98" rx="2" ry="2"/><rect class="c" x="834" y="2" rx="2" ry="2"/><rect class="c" x="834" y="18" rx="2" ry="2"/><rect class="c c2e" x="834" y="34" rx="2" ry="2"/><rect class="c" x="834" y="50" rx="2" ry="2"/><rect class="c" x="834" y="66" rx="2" ry="2"/><rect class="c" x="834" y="82" rx="2" ry="2"/><rect class="c" x="834" y="98" rx="2" ry="2"/><rect class="u u0" height="12" width="653.7" x="0.0" y="144"/><rect class="u u1" height="12" width="117.6" x="653.1" y="144"/><rect class="u u2" height="12" width="59.1" x="770.0" y="144"/><rect class="u u3" height="12" width="20.1" x="828.5" y="144"/><rect class="s s0" x="0.8" y="0.8" width="14.4" height="14.4" rx="4.5" ry="4.5"/><rect class="s s1" x="1.8" y="1.8" width="12.3" height="12.3" rx="4.1" ry="4.1"/><rect class="s s2" x="2.6" y="2.6" width="10.8" height="10.8" rx="3.6" ry="3.6"/><rect class="s s3" x="3.0" y="3.0" width="9.9" height="9.9" rx="3.3" ry="3.3"/></svg>