<svg viewBox="-16 -32 880 192" width="880" height="192" xmlns="http://www.w3.org/2000/svg"><desc>Generated with https://github.com/Platane/snk</desc><style>:root{--cb:#1b1f230a;--cs:purple;--ce:#ebedf0;--c0:#ebedf0;--c1:#9be9a8;--c2:#40c463;--c3:#30a14e;--c4:#216e39}.c{shape-rendering:geometricPrecision;fill:var(--ce);stroke-width:1px;stroke:var(--cb);animation:none 38500ms linear infinite;width:12px;height:12px}@keyframes c0{1.55%{fill:var(--c1)}1.57%,100%{fill:var(--ce)}}.c.c0{fill:var(--c1);animation-name:c0}@keyframes c1{3.89%{fill:var(--c1)}3.91%,100%{fill:var(--ce)}}.c.c1{fill:var(--c1);animation-name:c1}@keyframes c2{4.15%{fill:var(--c1)}4.17%,100%{fill:var(--ce)}}.c.c2{fill:var(--c1);animation-name:c2}@keyframes c3{5.44%{fill:var(--c1)}5.46%,100%{fill:var(--ce)}}.c.c3{fill:var(--c1);animation-name:c3}@keyframes c4{7%{fill:var(--c1)}7.02%,100%{fill:var(--ce)}}.c.c4{fill:var(--c1);animation-name:c4}@keyframes c5{7.52%{fill:var(--c1)}7.54%,100%{fill:var(--ce)}}.c.c5{fill:var(--c1);animation-name:c5}@keyframes c6{7.26%{fill:var(--c1)}7.28%,100%{fill:var(--ce)}}.c.c6{fill:var(--c1);animation-name:c6}@keyframes c7{10.12%{fill:var(--c1)}10.14%,100%{fill:var(--ce)}}.c.c7{fill:var(--c1);animation-name:c7}@keyframes c8{10.38%{fill:var(--c1)}10.4%,100%{fill:var(--ce)}}.c.c8{fill:var(--c1);animation-name:c8}@keyframes c9{11.94%{fill:var(--c1)}11.96%,100%{fill:var(--ce)}}.c.c9{fill:var(--c1);animation-name:c9}@keyframes ca{9.34%{fill:var(--c1)}9.36%,100%{fill:var(--ce)}}.c.ca{fill:var(--c1);animation-name:ca}@keyframes cb{9.86%{fill:var(--c1)}9.88%,100%{fill:var(--ce)}}.c.cb{fill:var(--c1);animation-name:cb}@keyframes cc{62.59%{fill:var(--c2)}62.61%,100%{fill:var(--ce)}}.c.cc{fill:var(--c2);animation-name:cc}@keyframes cd{10.9%{fill:var(--c1)}10.92%,100%{fill:var(--ce)}}.c.cd{fill:var(--c1);animation-name:cd}@keyframes ce{11.42%{fill:var(--c1)}11.44%,100%{fill:var(--ce)}}.c.ce{fill:var(--c1);animation-name:ce}@keyframes cf{36.61%{fill:var(--c1)}36.63%,100%{fill:var(--ce)}}.c.cf{fill:var(--c1);animation-name:cf}@keyframes cg{13.24%{fill:var(--c1)}13.26%,100%{fill:var(--ce)}}.c.cg{fill:var(--c1);animation-name:cg}@keyframes ch{61.29%{fill:var(--c2)}61.31%,100%{fill:var(--ce)}}.c.ch{fill:var(--c2);animation-name:ch}@keyframes ci{81.29%{fill:var(--c3)}81.31%,100%{fill:var(--ce)}}.c.ci{fill:var(--c3);animation-name:ci}@keyframes cj{59.99%{fill:var(--c2)}60.01%,100%{fill:var(--ce)}}.c.cj{fill:var(--c2);animation-name:cj}@keyframes ck{36.35%{fill:var(--c1)}36.37%,100%{fill:var(--ce)}}.c.ck{fill:var(--c1);animation-name:ck}@keyframes cl{37.65%{fill:var(--c1)}37.67%,100%{fill:var(--ce)}}.c.cl{fill:var(--c1);animation-name:cl}@keyframes cm{33.24%{fill:var(--c1)}33.26%,100%{fill:var(--ce)}}.c.cm{fill:var(--c1);animation-name:cm}@keyframes cn{33.5%{fill:var(--c1)}33.52%,100%{fill:var(--ce)}}.c.cn{fill:var(--c1);animation-name:cn}@keyframes co{59.73%{fill:var(--c2)}59.75%,100%{fill:var(--ce)}}.c.co{fill:var(--c2);animation-name:co}@keyframes cp{36.09%{fill:var(--c1)}36.11%,100%{fill:var(--ce)}}.c.cp{fill:var(--c1);animation-name:cp}@keyframes cq{14.02%{fill:var(--c1)}14.04%,100%{fill:var(--ce)}}.c.cq{fill:var(--c1);animation-name:cq}@keyframes cr{13.76%{fill:var(--c1)}13.78%,100%{fill:var(--ce)}}.c.cr{fill:var(--c1);animation-name:cr}@keyframes cs{37.91%{fill:var(--c1)}37.93%,100%{fill:var(--ce)}}.c.cs{fill:var(--c1);animation-name:cs}@keyframes ct{58.95%{fill:var(--c2)}58.97%,100%{fill:var(--ce)}}.c.ct{fill:var(--c2);animation-name:ct}@keyframes cu{34.02%{fill:var(--c1)}34.04%,100%{fill:var(--ce)}}.c.cu{fill:var(--c1);animation-name:cu}@keyframes cv{35.83%{fill:var(--c1)}35.85%,100%{fill:var(--ce)}}.c.cv{fill:var(--c1);animation-name:cv}@keyframes cw{14.28%{fill:var(--c1)}14.3%,100%{fill:var(--ce)}}.c.cw{fill:var(--c1);animation-name:cw}@keyframes cx{32.2%{fill:var(--c1)}32.22%,100%{fill:var(--ce)}}.c.cx{fill:var(--c1);animation-name:cx}@keyframes cy{80.25%{fill:var(--c3)}80.27%,100%{fill:var(--ce)}}.c.cy{fill:var(--c3);animation-name:cy}@keyframes cz{14.54%{fill:var(--c1)}14.56%,100%{fill:var(--ce)}}.c.cz{fill:var(--c1);animation-name:cz}@keyframes c10{39.21%{fill:var(--c1)}39.23%,100%{fill:var(--ce)}}.c.c10{fill:var(--c1);animation-name:c10}@keyframes c11{38.43%{fill:var(--c1)}38.45%,100%{fill:var(--ce)}}.c.c11{fill:var(--c1);animation-name:c11}@keyframes c12{31.94%{fill:var(--c1)}31.96%,100%{fill:var(--ce)}}.c.c12{fill:var(--c1);animation-name:c12}@keyframes c13{35.31%{fill:var(--c1)}35.33%,100%{fill:var(--ce)}}.c.c13{fill:var(--c1);animation-name:c13}@keyframes c14{14.8%{fill:var(--c1)}14.82%,100%{fill:var(--ce)}}.c.c14{fill:var(--c1);animation-name:c14}@keyframes c15{38.69%{fill:var(--c1)}38.71%,100%{fill:var(--ce)}}.c.c15{fill:var(--c1);animation-name:c15}@keyframes c16{31.68%{fill:var(--c1)}31.7%,100%{fill:var(--ce)}}.c.c16{fill:var(--c1);animation-name:c16}@keyframes c17{57.91%{fill:var(--c2)}57.93%,100%{fill:var(--ce)}}.c.c17{fill:var(--c2);animation-name:c17}@keyframes c18{34.8%{fill:var(--c1)}34.82%,100%{fill:var(--ce)}}.c.c18{fill:var(--c1);animation-name:c18}@keyframes c19{15.31%{fill:var(--c1)}15.33%,100%{fill:var(--ce)}}.c.c19{fill:var(--c1);animation-name:c19}@keyframes c1a{15.05%{fill:var(--c1)}15.07%,100%{fill:var(--ce)}}.c.c1a{fill:var(--c1);animation-name:c1a}@keyframes c1b{15.57%{fill:var(--c1)}15.59%,100%{fill:var(--ce)}}.c.c1b{fill:var(--c1);animation-name:c1b}@keyframes c1c{30.12%{fill:var(--c1)}30.14%,100%{fill:var(--ce)}}.c.c1c{fill:var(--c1);animation-name:c1c}@keyframes c1d{29.6%{fill:var(--c1)}29.62%,100%{fill:var(--ce)}}.c.c1d{fill:var(--c1);animation-name:c1d}@keyframes c1e{30.38%{fill:var(--c1)}30.4%,100%{fill:var(--ce)}}.c.c1e{fill:var(--c1);animation-name:c1e}@keyframes c1f{16.09%{fill:var(--c1)}16.11%,100%{fill:var(--ce)}}.c.c1f{fill:var(--c1);animation-name:c1f}@keyframes c1g{16.35%{fill:var(--c1)}16.37%,100%{fill:var(--ce)}}.c.c1g{fill:var(--c1);animation-name:c1g}@keyframes c1h{28.82%{fill:var(--c1)}28.84%,100%{fill:var(--ce)}}.c.c1h{fill:var(--c1);animation-name:c1h}@keyframes c1i{77.39%{fill:var(--c3)}77.41%,100%{fill:var(--ce)}}.c.c1i{fill:var(--c3);animation-name:c1i}@keyframes c1j{17.39%{fill:var(--c1)}17.41%,100%{fill:var(--ce)}}.c.c1j{fill:var(--c1);animation-name:c1j}@keyframes c1k{17.13%{fill:var(--c1)}17.15%,100%{fill:var(--ce)}}.c.c1k{fill:var(--c1);animation-name:c1k}@keyframes c1l{16.87%{fill:var(--c1)}16.89%,100%{fill:var(--ce)}}.c.c1l{fill:var(--c1);animation-name:c1l}@keyframes c1m{16.61%{fill:var(--c1)}16.63%,100%{fill:var(--ce)}}.c.c1m{fill:var(--c1);animation-name:c1m}@keyframes c1n{28.3%{fill:var(--c1)}28.32%,100%{fill:var(--ce)}}.c.c1n{fill:var(--c1);animation-name:c1n}@keyframes c1o{52.72%{fill:var(--c2)}52.74%,100%{fill:var(--ce)}}.c.c1o{fill:var(--c2);animation-name:c1o}@keyframes c1p{17.65%{fill:var(--c1)}17.67%,100%{fill:var(--ce)}}.c.c1p{fill:var(--c1);animation-name:c1p}@keyframes c1q{27.78%{fill:var(--c1)}27.8%,100%{fill:var(--ce)}}.c.c1q{fill:var(--c1);animation-name:c1q}@keyframes c1r{55.31%{fill:var(--c2)}55.33%,100%{fill:var(--ce)}}.c.c1r{fill:var(--c2);animation-name:c1r}@keyframes c1s{26.48%{fill:var(--c1)}26.5%,100%{fill:var(--ce)}}.c.c1s{fill:var(--c1);animation-name:c1s}@keyframes c1t{26.74%{fill:var(--c1)}26.76%,100%{fill:var(--ce)}}.c.c1t{fill:var(--c1);animation-name:c1t}@keyframes c1u{19.73%{fill:var(--c1)}19.75%,100%{fill:var(--ce)}}.c.c1u{fill:var(--c1);animation-name:c1u}@keyframes c1v{18.95%{fill:var(--c1)}18.97%,100%{fill:var(--ce)}}.c.c1v{fill:var(--c1);animation-name:c1v}@keyframes c1w{51.42%{fill:var(--c2)}51.44%,100%{fill:var(--ce)}}.c.c1w{fill:var(--c2);animation-name:c1w}@keyframes c1x{19.47%{fill:var(--c1)}19.49%,100%{fill:var(--ce)}}.c.c1x{fill:var(--c1);animation-name:c1x}@keyframes c1y{19.21%{fill:var(--c1)}19.23%,100%{fill:var(--ce)}}.c.c1y{fill:var(--c1);animation-name:c1y}@keyframes c1z{85.96%{fill:var(--c4)}85.98%,100%{fill:var(--ce)}}.c.c1z{fill:var(--c4);animation-name:c1z}@keyframes c20{74.8%{fill:var(--c3)}74.82%,100%{fill:var(--ce)}}.c.c20{fill:var(--c3);animation-name:c20}@keyframes c21{21.03%{fill:var(--c1)}21.05%,100%{fill:var(--ce)}}.c.c21{fill:var(--c1);animation-name:c21}@keyframes c22{87%{fill:var(--c4)}87.02%,100%{fill:var(--ce)}}.c.c22{fill:var(--c4);animation-name:c22}@keyframes c23{25.18%{fill:var(--c1)}25.2%,100%{fill:var(--ce)}}.c.c23{fill:var(--c1);animation-name:c23}@keyframes c24{48.56%{fill:var(--c2)}48.58%,100%{fill:var(--ce)}}.c.c24{fill:var(--c2);animation-name:c24}@keyframes c25{72.2%{fill:var(--c3)}72.22%,100%{fill:var(--ce)}}.c.c25{fill:var(--c3);animation-name:c25}@keyframes c26{49.6%{fill:var(--c2)}49.62%,100%{fill:var(--ce)}}.c.c26{fill:var(--c2);animation-name:c26}@keyframes c27{24.93%{fill:var(--c1)}24.95%,100%{fill:var(--ce)}}.c.c27{fill:var(--c1);animation-name:c27}@keyframes c28{24.67%{fill:var(--c1)}24.69%,100%{fill:var(--ce)}}.c.c28{fill:var(--c1);animation-name:c28}@keyframes c29{23.37%{fill:var(--c1)}23.39%,100%{fill:var(--ce)}}.c.c29{fill:var(--c1);animation-name:c29}@keyframes c2a{72.98%{fill:var(--c3)}73%,100%{fill:var(--ce)}}.c.c2a{fill:var(--c3);animation-name:c2a}@keyframes c2b{24.41%{fill:var(--c1)}24.43%,100%{fill:var(--ce)}}.c.c2b{fill:var(--c1);animation-name:c2b}@keyframes c2c{47.52%{fill:var(--c2)}47.54%,100%{fill:var(--ce)}}.c.c2c{fill:var(--c2);animation-name:c2c}@keyframes c2d{21.81%{fill:var(--c1)}21.83%,100%{fill:var(--ce)}}.c.c2d{fill:var(--c1);animation-name:c2d}@keyframes c2e{24.15%{fill:var(--c1)}24.17%,100%{fill:var(--ce)}}.c.c2e{fill:var(--c1);animation-name:c2e}@keyframes c2f{22.33%{fill:var(--c1)}22.35%,100%{fill:var(--ce)}}.c.c2f{fill:var(--c1);animation-name:c2f}@keyframes c2g{70.9%{fill:var(--c3)}70.92%,100%{fill:var(--ce)}}.c.c2g{fill:var(--c3);animation-name:c2g}@keyframes c2h{70.64%{fill:var(--c2)}70.66%,100%{fill:var(--ce)}}.c.c2h{fill:var(--c2);animation-name:c2h}@keyframes c2i{46.74%{fill:var(--c1)}46.76%,100%{fill:var(--ce)}}.c.c2i{fill:var(--c1);animation-name:c2i}@keyframes c2j{46.22%{fill:var(--c1)}46.24%,100%{fill:var(--ce)}}.c.c2j{fill:var(--c1);animation-name:c2j}.u{transform-origin:0 0;transform:scale(0,1);animation:none linear 38500ms infinite}@keyframes u0{1.55%{transform:scale(0.000,1)}1.57%,3.89%{transform:scale(0.014,1)}3.91%,4.15%{transform:scale(0.029,1)}4.17%,5.44%{transform:scale(0.043,1)}5.46%,7%{transform:scale(0.057,1)}7.02%,7.26%{transform:scale(0.071,1)}7.28%,7.52%{transform:scale(0.086,1)}7.54%,9.34%{transform:scale(0.100,1)}9.36%,9.86%{transform:scale(0.114,1)}9.88%,10.12%{transform:scale(0.129,1)}10.14%,10.38%{transform:scale(0.143,1)}10.4%,10.9%{transform:scale(0.157,1)}10.92%,11.42%{transform:scale(0.171,1)}11.44%,11.94%{transform:scale(0.186,1)}11.96%,13.24%{transform:scale(0.200,1)}13.26%,13.76%{transform:scale(0.214,1)}13.78%,14.02%{transform:scale(0.229,1)}14.04%,14.28%{transform:scale(0.243,1)}14.3%,14.54%{transform:scale(0.257,1)}14.56%,14.8%{transform:scale(0.271,1)}14.82%,15.05%{transform:scale(0.286,1)}15.07%,15.31%{transform:scale(0.300,1)}15.33%,15.57%{transform:scale(0.314,1)}15.59%,16.09%{transform:scale(0.329,1)}16.11%,16.35%{transform:scale(0.343,1)}16.37%,16.61%{transform:scale(0.357,1)}16.63%,16.87%{transform:scale(0.371,1)}16.89%,17.13%{transform:scale(0.386,1)}17.15%,17.39%{transform:scale(0.400,1)}17.41%,17.65%{transform:scale(0.414,1)}17.67%,18.95%{transform:scale(0.429,1)}18.97%,19.21%{transform:scale(0.443,1)}19.23%,19.47%{transform:scale(0.457,1)}19.49%,19.73%{transform:scale(0.471,1)}19.75%,21.03%{transform:scale(0.486,1)}21.05%,21.81%{transform:scale(0.500,1)}21.83%,22.33%{transform:scale(0.514,1)}22.35%,23.37%{transform:scale(0.529,1)}23.39%,24.15%{transform:scale(0.543,1)}24.17%,24.41%{transform:scale(0.557,1)}24.43%,24.67%{transform:scale(0.571,1)}24.69%,24.93%{transform:scale(0.586,1)}24.95%,25.18%{transform:scale(0.600,1)}25.2%,26.48%{transform:scale(0.614,1)}26.5%,26.74%{transform:scale(0.629,1)}26.76%,27.78%{transform:scale(0.643,1)}27.8%,28.3%{transform:scale(0.657,1)}28.32%,28.82%{transform:scale(0.671,1)}28.84%,29.6%{transform:scale(0.686,1)}29.62%,30.12%{transform:scale(0.700,1)}30.14%,30.38%{transform:scale(0.714,1)}30.4%,31.68%{transform:scale(0.729,1)}31.7%,31.94%{transform:scale(0.743,1)}31.96%,32.2%{transform:scale(0.757,1)}32.22%,33.24%{transform:scale(0.771,1)}33.26%,33.5%{transform:scale(0.786,1)}33.52%,34.02%{transform:scale(0.800,1)}34.04%,34.8%{transform:scale(0.814,1)}34.82%,35.31%{transform:scale(0.829,1)}35.33%,35.83%{transform:scale(0.843,1)}35.85%,36.09%{transform:scale(0.857,1)}36.11%,36.35%{transform:scale(0.871,1)}36.37%,36.61%{transform:scale(0.886,1)}36.63%,37.65%{transform:scale(0.900,1)}37.67%,37.91%{transform:scale(0.914,1)}37.93%,38.43%{transform:scale(0.929,1)}38.45%,38.69%{transform:scale(0.943,1)}38.71%,39.21%{transform:scale(0.957,1)}39.23%,46.22%{transform:scale(0.971,1)}46.24%,46.74%{transform:scale(0.986,1)}46.76%,100%{transform:scale(1.000,1)}}.u.u0{fill:var(--c1);animation-name:u0;transform-origin:0.0px 0}@keyframes u1{47.52%{transform:scale(0.000,1)}47.54%,48.56%{transform:scale(0.077,1)}48.58%,49.6%{transform:scale(0.154,1)}49.62%,51.42%{transform:scale(0.231,1)}51.44%,52.72%{transform:scale(0.308,1)}52.74%,55.31%{transform:scale(0.385,1)}55.33%,57.91%{transform:scale(0.462,1)}57.93%,58.95%{transform:scale(0.538,1)}58.97%,59.73%{transform:scale(0.615,1)}59.75%,59.99%{transform:scale(0.692,1)}60.01%,61.29%{transform:scale(0.769,1)}61.31%,62.59%{transform:scale(0.846,1)}62.61%,70.64%{transform:scale(0.923,1)}70.66%,100%{transform:scale(1.000,1)}}.u.u1{fill:var(--c2);animation-name:u1;transform-origin:645.2px 0}@keyframes u2{70.9%{transform:scale(0.000,1)}70.92%,72.2%{transform:scale(0.143,1)}72.22%,72.98%{transform:scale(0.286,1)}73%,74.8%{transform:scale(0.429,1)}74.82%,77.39%{transform:scale(0.571,1)}77.41%,80.25%{transform:scale(0.714,1)}80.27%,81.29%{transform:scale(0.857,1)}81.31%,100%{transform:scale(1.000,1)}}.u.u2{fill:var(--c3);animation-name:u2;transform-origin:765.0px 0}@keyframes u3{85.96%{transform:scale(0.000,1)}85.98%,87%{transform:scale(0.500,1)}87.02%,100%{transform:scale(1.000,1)}}.u.u3{fill:var(--c4);animation-name:u3;transform-origin:829.6px 0}.s{shape-rendering:geometricPrecision;fill:var(--cs);animation:none linear 38500ms infinite}@keyframes s0{0%,99.74%{transform:translate(0px,-16px)}0.26%{transform:translate(0px,0px)}1.3%{transform:translate(64px,0px)}1.56%,98.18%{transform:translate(64px,16px)}3.38%{transform:translate(176px,16px)}4.16%{transform:translate(176px,64px)}4.94%{transform:translate(224px,64px)}5.45%{transform:translate(224px,96px)}5.71%{transform:translate(240px,96px)}7.01%{transform:translate(240px,16px)}7.27%{transform:translate(256px,16px)}7.53%{transform:translate(256px,0px)}9.09%{transform:translate(352px,0px)}9.87%,62.86%{transform:translate(352px,48px)}10.13%{transform:translate(336px,48px)}10.65%,12.21%{transform:translate(336px,80px)}11.17%{transform:translate(368px,80px)}11.43%{transform:translate(368px,96px)}11.95%{transform:translate(336px,96px)}13.77%{transform:translate(432px,80px)}14.03%{transform:translate(432px,64px)}15.06%{transform:translate(496px,64px)}15.32%,35.06%{transform:translate(496px,48px)}16.62%{transform:translate(576px,48px)}17.4%{transform:translate(576px,0px)}18.18%{transform:translate(624px,0px)}18.44%{transform:translate(624px,16px)}19.22%,85.71%{transform:translate(672px,16px)}19.48%{transform:translate(672px,0px)}19.74%{transform:translate(656px,0px)}20%{transform:translate(656px,16px)}22.08%{transform:translate(784px,16px)}22.34%{transform:translate(784px,32px)}22.86%,48.83%{transform:translate(752px,32px)}23.38%,49.35%{transform:translate(752px,64px)}23.64%{transform:translate(768px,64px)}24.16%{transform:translate(768px,96px)}24.68%{transform:translate(736px,96px)}24.94%,73.25%{transform:translate(736px,80px)}26.49%,54.03%{transform:translate(640px,80px)}26.75%{transform:translate(640px,96px)}27.01%{transform:translate(624px,96px)}27.53%{transform:translate(624px,64px)}28.57%{transform:translate(560px,64px)}28.83%{transform:translate(560px,80px)}29.09%{transform:translate(544px,80px)}29.35%{transform:translate(544px,64px)}29.61%{transform:translate(528px,64px)}30.13%{transform:translate(528px,32px)}30.39%{transform:translate(544px,32px)}30.91%{transform:translate(544px,0px)}32.21%,80.52%{transform:translate(464px,0px)}32.47%{transform:translate(464px,-16px)}32.99%{transform:translate(432px,-16px)}33.51%{transform:translate(432px,16px)}33.77%{transform:translate(448px,16px)}34.03%{transform:translate(448px,32px)}34.81%{transform:translate(496px,32px)}36.62%{transform:translate(400px,48px)}36.88%{transform:translate(400px,64px)}37.14%{transform:translate(416px,64px)}37.66%{transform:translate(416px,96px)}38.7%{transform:translate(480px,96px)}38.96%{transform:translate(480px,80px)}39.22%{transform:translate(464px,80px)}39.48%{transform:translate(464px,64px)}43.38%,74.03%{transform:translate(704px,64px)}43.9%{transform:translate(704px,32px)}44.16%,86.75%{transform:translate(720px,32px)}44.42%{transform:translate(720px,16px)}46.23%{transform:translate(832px,16px)}46.49%{transform:translate(832px,0px)}48.05%{transform:translate(736px,0px)}48.57%,71.95%{transform:translate(736px,32px)}50.91%,68.05%{transform:translate(656px,64px)}51.43%{transform:translate(656px,96px)}52.73%{transform:translate(576px,96px)}52.99%{transform:translate(576px,80px)}55.32%{transform:translate(640px,0px)}57.66%{transform:translate(496px,0px)}57.92%{transform:translate(496px,16px)}58.18%{transform:translate(480px,16px)}58.44%{transform:translate(480px,0px)}59.22%{transform:translate(432px,0px)}59.74%{transform:translate(432px,32px)}60.26%{transform:translate(400px,32px)}61.3%{transform:translate(400px,96px)}61.56%{transform:translate(384px,96px)}62.08%{transform:translate(384px,64px)}62.6%{transform:translate(352px,64px)}67.79%{transform:translate(656px,48px)}70.39%{transform:translate(800px,64px)}70.91%{transform:translate(800px,32px)}72.21%{transform:translate(736px,48px)}72.47%{transform:translate(752px,48px)}72.99%{transform:translate(752px,80px)}73.51%{transform:translate(736px,64px)}74.29%{transform:translate(704px,48px)}76.62%{transform:translate(560px,48px)}77.4%{transform:translate(560px,96px)}77.66%{transform:translate(544px,96px)}78.96%{transform:translate(544px,16px)}80.26%{transform:translate(464px,16px)}81.3%{transform:translate(416px,0px)}81.56%{transform:translate(416px,16px)}85.97%{transform:translate(672px,32px)}87.01%{transform:translate(720px,48px)}97.14%{transform:translate(96px,48px)}97.66%{transform:translate(96px,16px)}98.7%{transform:translate(64px,-16px)}}.s.s0{transform:translate(0px,-16px);animation-name:s0}@keyframes s1{0%,99.74%{transform:translate(16px,-16px)}0.26%{transform:translate(0px,-16px)}0.52%{transform:translate(0px,0px)}1.56%{transform:translate(64px,0px)}1.82%,98.44%{transform:translate(64px,16px)}3.64%{transform:translate(176px,16px)}4.42%{transform:translate(176px,64px)}5.19%{transform:translate(224px,64px)}5.71%{transform:translate(224px,96px)}5.97%{transform:translate(240px,96px)}7.27%{transform:translate(240px,16px)}7.53%{transform:translate(256px,16px)}7.79%{transform:translate(256px,0px)}9.35%{transform:translate(352px,0px)}10.13%,63.12%{transform:translate(352px,48px)}10.39%{transform:translate(336px,48px)}10.91%,12.47%{transform:translate(336px,80px)}11.43%{transform:translate(368px,80px)}11.69%{transform:translate(368px,96px)}12.21%{transform:translate(336px,96px)}14.03%{transform:translate(432px,80px)}14.29%{transform:translate(432px,64px)}15.32%{transform:translate(496px,64px)}15.58%,35.32%{transform:translate(496px,48px)}16.88%{transform:translate(576px,48px)}17.66%{transform:translate(576px,0px)}18.44%{transform:translate(624px,0px)}18.7%{transform:translate(624px,16px)}19.48%,85.97%{transform:translate(672px,16px)}19.74%{transform:translate(672px,0px)}20%{transform:translate(656px,0px)}20.26%{transform:translate(656px,16px)}22.34%{transform:translate(784px,16px)}22.6%{transform:translate(784px,32px)}23.12%,49.09%{transform:translate(752px,32px)}23.64%,49.61%{transform:translate(752px,64px)}23.9%{transform:translate(768px,64px)}24.42%{transform:translate(768px,96px)}24.94%{transform:translate(736px,96px)}25.19%,73.51%{transform:translate(736px,80px)}26.75%,54.29%{transform:translate(640px,80px)}27.01%{transform:translate(640px,96px)}27.27%{transform:translate(624px,96px)}27.79%{transform:translate(624px,64px)}28.83%{transform:translate(560px,64px)}29.09%{transform:translate(560px,80px)}29.35%{transform:translate(544px,80px)}29.61%{transform:translate(544px,64px)}29.87%{transform:translate(528px,64px)}30.39%{transform:translate(528px,32px)}30.65%{transform:translate(544px,32px)}31.17%{transform:translate(544px,0px)}32.47%,80.78%{transform:translate(464px,0px)}32.73%{transform:translate(464px,-16px)}33.25%{transform:translate(432px,-16px)}33.77%{transform:translate(432px,16px)}34.03%{transform:translate(448px,16px)}34.29%{transform:translate(448px,32px)}35.06%{transform:translate(496px,32px)}36.88%{transform:translate(400px,48px)}37.14%{transform:translate(400px,64px)}37.4%{transform:translate(416px,64px)}37.92%{transform:translate(416px,96px)}38.96%{transform:translate(480px,96px)}39.22%{transform:translate(480px,80px)}39.48%{transform:translate(464px,80px)}39.74%{transform:translate(464px,64px)}43.64%,74.29%{transform:translate(704px,64px)}44.16%{transform:translate(704px,32px)}44.42%,87.01%{transform:translate(720px,32px)}44.68%{transform:translate(720px,16px)}46.49%{transform:translate(832px,16px)}46.75%{transform:translate(832px,0px)}48.31%{transform:translate(736px,0px)}48.83%,72.21%{transform:translate(736px,32px)}51.17%,68.31%{transform:translate(656px,64px)}51.69%{transform:translate(656px,96px)}52.99%{transform:translate(576px,96px)}53.25%{transform:translate(576px,80px)}55.58%{transform:translate(640px,0px)}57.92%{transform:translate(496px,0px)}58.18%{transform:translate(496px,16px)}58.44%{transform:translate(480px,16px)}58.7%{transform:translate(480px,0px)}59.48%{transform:translate(432px,0px)}60%{transform:translate(432px,32px)}60.52%{transform:translate(400px,32px)}61.56%{transform:translate(400px,96px)}61.82%{transform:translate(384px,96px)}62.34%{transform:translate(384px,64px)}62.86%{transform:translate(352px,64px)}68.05%{transform:translate(656px,48px)}70.65%{transform:translate(800px,64px)}71.17%{transform:translate(800px,32px)}72.47%{transform:translate(736px,48px)}72.73%{transform:translate(752px,48px)}73.25%{transform:translate(752px,80px)}73.77%{transform:translate(736px,64px)}74.55%{transform:translate(704px,48px)}76.88%{transform:translate(560px,48px)}77.66%{transform:translate(560px,96px)}77.92%{transform:translate(544px,96px)}79.22%{transform:translate(544px,16px)}80.52%{transform:translate(464px,16px)}81.56%{transform:translate(416px,0px)}81.82%{transform:translate(416px,16px)}86.23%{transform:translate(672px,32px)}87.27%{transform:translate(720px,48px)}97.4%{transform:translate(96px,48px)}97.92%{transform:translate(96px,16px)}98.96%{transform:translate(64px,-16px)}}.s.s1{transform:translate(16px,-16px);animation-name:s1}@keyframes s2{0%,99.74%{transform:translate(32px,-16px)}0.52%{transform:translate(0px,-16px)}0.78%{transform:translate(0px,0px)}1.82%{transform:translate(64px,0px)}2.08%,98.7%{transform:translate(64px,16px)}3.9%{transform:translate(176px,16px)}4.68%{transform:translate(176px,64px)}5.45%{transform:translate(224px,64px)}5.97%{transform:translate(224px,96px)}6.23%{transform:translate(240px,96px)}7.53%{transform:translate(240px,16px)}7.79%{transform:translate(256px,16px)}8.05%{transform:translate(256px,0px)}9.61%{transform:translate(352px,0px)}10.39%,63.38%{transform:translate(352px,48px)}10.65%{transform:translate(336px,48px)}11.17%,12.73%{transform:translate(336px,80px)}11.69%{transform:translate(368px,80px)}11.95%{transform:translate(368px,96px)}12.47%{transform:translate(336px,96px)}14.29%{transform:translate(432px,80px)}14.55%{transform:translate(432px,64px)}15.58%{transform:translate(496px,64px)}15.84%,35.58%{transform:translate(496px,48px)}17.14%{transform:translate(576px,48px)}17.92%{transform:translate(576px,0px)}18.7%{transform:translate(624px,0px)}18.96%{transform:translate(624px,16px)}19.74%,86.23%{transform:translate(672px,16px)}20%{transform:translate(672px,0px)}20.26%{transform:translate(656px,0px)}20.52%{transform:translate(656px,16px)}22.6%{transform:translate(784px,16px)}22.86%{transform:translate(784px,32px)}23.38%,49.35%{transform:translate(752px,32px)}23.9%,49.87%{transform:translate(752px,64px)}24.16%{transform:translate(768px,64px)}24.68%{transform:translate(768px,96px)}25.19%{transform:translate(736px,96px)}25.45%,73.77%{transform:translate(736px,80px)}27.01%,54.55%{transform:translate(640px,80px)}27.27%{transform:translate(640px,96px)}27.53%{transform:translate(624px,96px)}28.05%{transform:translate(624px,64px)}29.09%{transform:translate(560px,64px)}29.35%{transform:translate(560px,80px)}29.61%{transform:translate(544px,80px)}29.87%{transform:translate(544px,64px)}30.13%{transform:translate(528px,64px)}30.65%{transform:translate(528px,32px)}30.91%{transform:translate(544px,32px)}31.43%{transform:translate(544px,0px)}32.73%,81.04%{transform:translate(464px,0px)}32.99%{transform:translate(464px,-16px)}33.51%{transform:translate(432px,-16px)}34.03%{transform:translate(432px,16px)}34.29%{transform:translate(448px,16px)}34.55%{transform:translate(448px,32px)}35.32%{transform:translate(496px,32px)}37.14%{transform:translate(400px,48px)}37.4%{transform:translate(400px,64px)}37.66%{transform:translate(416px,64px)}38.18%{transform:translate(416px,96px)}39.22%{transform:translate(480px,96px)}39.48%{transform:translate(480px,80px)}39.74%{transform:translate(464px,80px)}40%{transform:translate(464px,64px)}43.9%,74.55%{transform:translate(704px,64px)}44.42%{transform:translate(704px,32px)}44.68%,87.27%{transform:translate(720px,32px)}44.94%{transform:translate(720px,16px)}46.75%{transform:translate(832px,16px)}47.01%{transform:translate(832px,0px)}48.57%{transform:translate(736px,0px)}49.09%,72.47%{transform:translate(736px,32px)}51.43%,68.57%{transform:translate(656px,64px)}51.95%{transform:translate(656px,96px)}53.25%{transform:translate(576px,96px)}53.51%{transform:translate(576px,80px)}55.84%{transform:translate(640px,0px)}58.18%{transform:translate(496px,0px)}58.44%{transform:translate(496px,16px)}58.7%{transform:translate(480px,16px)}58.96%{transform:translate(480px,0px)}59.74%{transform:translate(432px,0px)}60.26%{transform:translate(432px,32px)}60.78%{transform:translate(400px,32px)}61.82%{transform:translate(400px,96px)}62.08%{transform:translate(384px,96px)}62.6%{transform:translate(384px,64px)}63.12%{transform:translate(352px,64px)}68.31%{transform:translate(656px,48px)}70.91%{transform:translate(800px,64px)}71.43%{transform:translate(800px,32px)}72.73%{transform:translate(736px,48px)}72.99%{transform:translate(752px,48px)}73.51%{transform:translate(752px,80px)}74.03%{transform:translate(736px,64px)}74.81%{transform:translate(704px,48px)}77.14%{transform:translate(560px,48px)}77.92%{transform:translate(560px,96px)}78.18%{transform:translate(544px,96px)}79.48%{transform:translate(544px,16px)}80.78%{transform:translate(464px,16px)}81.82%{transform:translate(416px,0px)}82.08%{transform:translate(416px,16px)}86.49%{transform:translate(672px,32px)}87.53%{transform:translate(720px,48px)}97.66%{transform:translate(96px,48px)}98.18%{transform:translate(96px,16px)}99.22%{transform:translate(64px,-16px)}}.s.s2{transform:translate(32px,-16px);animation-name:s2}@keyframes s3{0%,99.74%{transform:translate(48px,-16px)}0.78%{transform:translate(0px,-16px)}1.04%{transform:translate(0px,0px)}2.08%{transform:translate(64px,0px)}2.34%,98.96%{transform:translate(64px,16px)}4.16%{transform:translate(176px,16px)}4.94%{transform:translate(176px,64px)}5.71%{transform:translate(224px,64px)}6.23%{transform:translate(224px,96px)}6.49%{transform:translate(240px,96px)}7.79%{transform:translate(240px,16px)}8.05%{transform:translate(256px,16px)}8.31%{transform:translate(256px,0px)}9.87%{transform:translate(352px,0px)}10.65%,63.64%{transform:translate(352px,48px)}10.91%{transform:translate(336px,48px)}11.43%,12.99%{transform:translate(336px,80px)}11.95%{transform:translate(368px,80px)}12.21%{transform:translate(368px,96px)}12.73%{transform:translate(336px,96px)}14.55%{transform:translate(432px,80px)}14.81%{transform:translate(432px,64px)}15.84%{transform:translate(496px,64px)}16.1%,35.84%{transform:translate(496px,48px)}17.4%{transform:translate(576px,48px)}18.18%{transform:translate(576px,0px)}18.96%{transform:translate(624px,0px)}19.22%{transform:translate(624px,16px)}20%,86.49%{transform:translate(672px,16px)}20.26%{transform:translate(672px,0px)}20.52%{transform:translate(656px,0px)}20.78%{transform:translate(656px,16px)}22.86%{transform:translate(784px,16px)}23.12%{transform:translate(784px,32px)}23.64%,49.61%{transform:translate(752px,32px)}24.16%,50.13%{transform:translate(752px,64px)}24.42%{transform:translate(768px,64px)}24.94%{transform:translate(768px,96px)}25.45%{transform:translate(736px,96px)}25.71%,74.03%{transform:translate(736px,80px)}27.27%,54.81%{transform:translate(640px,80px)}27.53%{transform:translate(640px,96px)}27.79%{transform:translate(624px,96px)}28.31%{transform:translate(624px,64px)}29.35%{transform:translate(560px,64px)}29.61%{transform:translate(560px,80px)}29.87%{transform:translate(544px,80px)}30.13%{transform:translate(544px,64px)}30.39%{transform:translate(528px,64px)}30.91%{transform:translate(528px,32px)}31.17%{transform:translate(544px,32px)}31.69%{transform:translate(544px,0px)}32.99%,81.3%{transform:translate(464px,0px)}33.25%{transform:translate(464px,-16px)}33.77%{transform:translate(432px,-16px)}34.29%{transform:translate(432px,16px)}34.55%{transform:translate(448px,16px)}34.81%{transform:translate(448px,32px)}35.58%{transform:translate(496px,32px)}37.4%{transform:translate(400px,48px)}37.66%{transform:translate(400px,64px)}37.92%{transform:translate(416px,64px)}38.44%{transform:translate(416px,96px)}39.48%{transform:translate(480px,96px)}39.74%{transform:translate(480px,80px)}40%{transform:translate(464px,80px)}40.26%{transform:translate(464px,64px)}44.16%,74.81%{transform:translate(704px,64px)}44.68%{transform:translate(704px,32px)}44.94%,87.53%{transform:translate(720px,32px)}45.19%{transform:translate(720px,16px)}47.01%{transform:translate(832px,16px)}47.27%{transform:translate(832px,0px)}48.83%{transform:translate(736px,0px)}49.35%,72.73%{transform:translate(736px,32px)}51.69%,68.83%{transform:translate(656px,64px)}52.21%{transform:translate(656px,96px)}53.51%{transform:translate(576px,96px)}53.77%{transform:translate(576px,80px)}56.1%{transform:translate(640px,0px)}58.44%{transform:translate(496px,0px)}58.7%{transform:translate(496px,16px)}58.96%{transform:translate(480px,16px)}59.22%{transform:translate(480px,0px)}60%{transform:translate(432px,0px)}60.52%{transform:translate(432px,32px)}61.04%{transform:translate(400px,32px)}62.08%{transform:translate(400px,96px)}62.34%{transform:translate(384px,96px)}62.86%{transform:translate(384px,64px)}63.38%{transform:translate(352px,64px)}68.57%{transform:translate(656px,48px)}71.17%{transform:translate(800px,64px)}71.69%{transform:translate(800px,32px)}72.99%{transform:translate(736px,48px)}73.25%{transform:translate(752px,48px)}73.77%{transform:translate(752px,80px)}74.29%{transform:translate(736px,64px)}75.06%{transform:translate(704px,48px)}77.4%{transform:translate(560px,48px)}78.18%{transform:translate(560px,96px)}78.44%{transform:translate(544px,96px)}79.74%{transform:translate(544px,16px)}81.04%{transform:translate(464px,16px)}82.08%{transform:translate(416px,0px)}82.34%{transform:translate(416px,16px)}86.75%{transform:translate(672px,32px)}87.79%{transform:translate(720px,48px)}97.92%{transform:translate(96px,48px)}98.44%{transform:translate(96px,16px)}99.48%{transform:translate(64px,-16px)}}.s.s3{transform:translate(48px,-16px);animation-name:s3}</style><rect class="c" x="2" y="2" rx="2" ry="2"/><rect class="c" x="2" y="18" rx="2" ry="2"/><rect class="c" x="2" y="34" rx="2" ry="2"/><rect class="c" x="2" y="50" rx="2" ry="2"/><rect class="c" x="2" y="66" rx="2" ry="2"/><rect class="c" x="2" y="82" rx="2" ry="2"/><rect class="c" x="2" y="98" rx="2" ry="2"/><rect class="c" x="18" y="2" rx="2" ry="2"/><rect class="c" x="18" y="18" rx="2" ry="2"/><rect class="c" x="18" y="34" rx="2" ry="2"/><rect class="c" x="18" y="50" rx="2" ry="2"/><rect class="c" x="18" y="66" rx="2" ry="2"/><rect class="c" x="18" y="82" rx="2" ry="2"/><rect class="c" x="18" y="98" rx="2" ry="2"/><rect class="c" x="34" y="2" rx="2" ry="2"/><rect class="c" x="34" y="18" rx="2" ry="2"/><rect class="c" x="34" y="34" rx="2" ry="2"/><rect class="c" x="34" y="50" rx="2" ry="2"/><rect class="c" x="34" y="66" rx="2" ry="2"/><rect class="c" x="34" y="82" rx="2" ry="2"/><rect class="c" x="34" y="98" rx="2" ry="2"/><rect class="c" x="50" y="2" rx="2" ry="2"/><rect class="c" x="50" y="18" rx="2" ry="2"/><rect class="c" x="50" y="34" rx="2" ry="2"/><rect class="c" x="50" y="50" rx="2" ry="2"/><rect class="c" x="50" y="66" rx="2" ry="2"/><rect class="c" x="50" y="82" rx="2" ry="2"/><rect class="c" x="50" y="98" rx="2" ry="2"/><rect class="c" x="66" y="2" rx="2" ry="2"/><rect class="c c0" x="66" y="18" rx="2" ry="2"/><rect class="c" x="66" y="34" rx="2" ry="2"/><rect class="c" x="66" y="50" rx="2" ry="2"/><rect class="c" x="66" y="66" rx="2" ry="2"/><rect class="c" x="66" y="82" rx="2" ry="2"/><rect class="c" x="66" y="98" rx="2" ry="2"/><rect class="c" x="82" y="2" rx="2" ry="2"/><rect class="c" x="82" y="18" rx="2" ry="2"/><rect class="c" x="82" y="34" rx="2" ry="2"/><rect class="c" x="82" y="50" rx="2" ry="2"/><rect class="c" x="82" y="66" rx="2" ry="2"/><rect class="c" x="82" y="82" rx="2" ry="2"/><rect class="c" x="82" y="98" rx="2" ry="2"/><rect class="c" x="98" y="2" rx="2" ry="2"/><rect class="c" x="98" y="18" rx="2" ry="2"/><rect class="c" x="98" y="34" rx="2" ry="2"/><rect class="c" x="98" y="50" rx="2" ry="2"/><rect class="c" x="98" y="66" rx="2" ry="2"/><rect class="c" x="98" y="82" rx="2" ry="2"/><rect class="c" x="98" y="98" rx="2" ry="2"/><rect class="c" x="114" y="2" rx="2" ry="2"/><rect class="c" x="114" y="18" rx="2" ry="2"/><rect class="c" x="114" y="34" rx="2" ry="2"/><rect class="c" x="114" y="50" rx="2" ry="2"/><rect class="c" x="114" y="66" rx="2" ry="2"/><rect class="c" x="114" y="82" rx="2" ry="2"/><rect class="c" x="114" y="98" rx="2" ry="2"/><rect class="c" x="130" y="2" rx="2" ry="2"/><rect class="c" x="130" y="18" rx="2" ry="2"/><rect class="c" x="130" y="34" rx="2" ry="2"/><rect class="c" x="130" y="50" rx="2" ry="2"/><rect class="c" x="130" y="66" rx="2" ry="2"/><rect class="c" x="130" y="82" rx="2" ry="2"/><rect class="c" x="130" y="98" rx="2" ry="2"/><rect class="c" x="146" y="2" rx="2" ry="2"/><rect class="c" x="146" y="18" rx="2" ry="2"/><rect class="c" x="146" y="34" rx="2" ry="2"/><rect class="c" x="146" y="50" rx="2" ry="2"/><rect class="c" x="146" y="66" rx="2" ry="2"/><rect class="c" x="146" y="82" rx="2" ry="2"/><rect class="c" x="146" y="98" rx="2" ry="2"/><rect class="c" x="162" y="2" rx="2" ry="2"/><rect class="c" x="162" y="18" rx="2" ry="2"/><rect class="c" x="162" y="34" rx="2" ry="2"/><rect class="c" x="162" y="50" rx="2" ry="2"/><rect class="c" x="162" y="66" rx="2" ry="2"/><rect class="c" x="162" y="82" rx="2" ry="2"/><rect class="c" x="162" y="98" rx="2" ry="2"/><rect class="c" x="178" y="2" rx="2" ry="2"/><rect class="c" x="178" y="18" rx="2" ry="2"/><rect class="c" x="178" y="34" rx="2" ry="2"/><rect class="c c1" x="178" y="50" rx="2" ry="2"/><rect class="c c2" x="178" y="66" rx="2" ry="2"/><rect class="c" x="178" y="82" rx="2" ry="2"/><rect class="c" x="178" y="98" rx="2" ry="2"/><rect class="c" x="194" y="2" rx="2" ry="2"/><rect class="c" x="194" y="18" rx="2" ry="2"/><rect class="c" x="194" y="34" rx="2" ry="2"/><rect class="c" x="194" y="50" rx="2" ry="2"/><rect class="c" x="194" y="66" rx="2" ry="2"/><rect class="c" x="194" y="82" rx="2" ry="2"/><rect class="c" x="194" y="98" rx="2" ry="2"/><rect class="c" x="210" y="2" rx="2" ry="2"/><rect class="c" x="210" y="18" rx="2" ry="2"/><rect class="c" x="210" y="34" rx="2" ry="2"/><rect class="c" x="210" y="50" rx="2" ry="2"/><rect class="c" x="210" y="66" rx="2" ry="2"/><rect class="c" x="210" y="82" rx="2" ry="2"/><rect class="c" x="210" y="98" rx="2" ry="2"/><rect class="c" x="226" y="2" rx="2" ry="2"/><rect class="c" x="226" y="18" rx="2" ry="2"/><rect class="c" x="226" y="34" rx="2" ry="2"/><rect class="c" x="226" y="50" rx="2" ry="2"/><rect class="c" x="226" y="66" rx="2" ry="2"/><rect class="c" x="226" y="82" rx="2" ry="2"/><rect class="c c3" x="226" y="98" rx="2" ry="2"/><rect class="c" x="242" y="2" rx="2" ry="2"/><rect class="c c4" x="242" y="18" rx="2" ry="2"/><rect class="c" x="242" y="34" rx="2" ry="2"/><rect class="c" x="242" y="50" rx="2" ry="2"/><rect class="c" x="242" y="66" rx="2" ry="2"/><rect class="c" x="242" y="82" rx="2" ry="2"/><rect class="c" x="242" y="98" rx="2" ry="2"/><rect class="c c5" x="258" y="2" rx="2" ry="2"/><rect class="c c6" x="258" y="18" rx="2" ry="2"/><rect class="c" x="258" y="34" rx="2" ry="2"/><rect class="c" x="258" y="50" rx="2" ry="2"/><rect class="c" x="258" y="66" rx="2" ry="2"/><rect class="c" x="258" y="82" rx="2" ry="2"/><rect class="c" x="258" y="98" rx="2" ry="2"/><rect class="c" x="274" y="2" rx="2" ry="2"/><rect class="c" x="274" y="18" rx="2" ry="2"/><rect class="c" x="274" y="34" rx="2" ry="2"/><rect class="c" x="274" y="50" rx="2" ry="2"/><rect class="c" x="274" y="66" rx="2" ry="2"/><rect class="c" x="274" y="82" rx="2" ry="2"/><rect class="c" x="274" y="98" rx="2" ry="2"/><rect class="c" x="290" y="2" rx="2" ry="2"/><rect class="c" x="290" y="18" rx="2" ry="2"/><rect class="c" x="290" y="34" rx="2" ry="2"/><rect class="c" x="290" y="50" rx="2" ry="2"/><rect class="c" x="290" y="66" rx="2" ry="2"/><rect class="c" x="290" y="82" rx="2" ry="2"/><rect class="c" x="290" y="98" rx="2" ry="2"/><rect class="c" x="306" y="2" rx="2" ry="2"/><rect class="c" x="306" y="18" rx="2" ry="2"/><rect class="c" x="306" y="34" rx="2" ry="2"/><rect class="c" x="306" y="50" rx="2" ry="2"/><rect class="c" x="306" y="66" rx="2" ry="2"/><rect class="c" x="306" y="82" rx="2" ry="2"/><rect class="c" x="306" y="98" rx="2" ry="2"/><rect class="c" x="322" y="2" rx="2" ry="2"/><rect class="c" x="322" y="18" rx="2" ry="2"/><rect class="c" x="322" y="34" rx="2" ry="2"/><rect class="c" x="322" y="50" rx="2" ry="2"/><rect class="c" x="322" y="66" rx="2" ry="2"/><rect class="c" x="322" y="82" rx="2" ry="2"/><rect class="c" x="322" y="98" rx="2" ry="2"/><rect class="c" x="338" y="2" rx="2" ry="2"/><rect class="c" x="338" y="18" rx="2" ry="2"/><rect class="c" x="338" y="34" rx="2" ry="2"/><rect class="c c7" x="338" y="50" rx="2" ry="2"/><rect class="c c8" x="338" y="66" rx="2" ry="2"/><rect class="c" x="338" y="82" rx="2" ry="2"/><rect class="c c9" x="338" y="98" rx="2" ry="2"/><rect class="c" x="354" y="2" rx="2" ry="2"/><rect class="c ca" x="354" y="18" rx="2" ry="2"/><rect class="c" x="354" y="34" rx="2" ry="2"/><rect class="c cb" x="354" y="50" rx="2" ry="2"/><rect class="c cc" x="354" y="66" rx="2" ry="2"/><rect class="c cd" x="354" y="82" rx="2" ry="2"/><rect class="c" x="354" y="98" rx="2" ry="2"/><rect class="c" x="370" y="2" rx="2" ry="2"/><rect class="c" x="370" y="18" rx="2" ry="2"/><rect class="c" x="370" y="34" rx="2" ry="2"/><rect class="c" x="370" y="50" rx="2" ry="2"/><rect class="c" x="370" y="66" rx="2" ry="2"/><rect class="c" x="370" y="82" rx="2" ry="2"/><rect class="c ce" x="370" y="98" rx="2" ry="2"/><rect class="c" x="386" y="2" rx="2" ry="2"/><rect class="c" x="386" y="18" rx="2" ry="2"/><rect class="c" x="386" y="34" rx="2" ry="2"/><rect class="c" x="386" y="50" rx="2" ry="2"/><rect class="c" x="386" y="66" rx="2" ry="2"/><rect class="c" x="386" y="82" rx="2" ry="2"/><rect class="c" x="386" y="98" rx="2" ry="2"/><rect class="c" x="402" y="2" rx="2" ry="2"/><rect class="c" x="402" y="18" rx="2" ry="2"/><rect class="c" x="402" y="34" rx="2" ry="2"/><rect class="c cf" x="402" y="50" rx="2" ry="2"/><rect class="c" x="402" y="66" rx="2" ry="2"/><rect class="c cg" x="402" y="82" rx="2" ry="2"/><rect class="c ch" x="402" y="98" rx="2" ry="2"/><rect class="c ci" x="418" y="2" rx="2" ry="2"/><rect class="c" x="418" y="18" rx="2" ry="2"/><rect class="c cj" x="418" y="34" rx="2" ry="2"/><rect class="c ck" x="418" y="50" rx="2" ry="2"/><rect class="c" x="418" y="66" rx="2" ry="2"/><rect class="c" x="418" y="82" rx="2" ry="2"/><rect class="c cl" x="418" y="98" rx="2" ry="2"/><rect class="c cm" x="434" y="2" rx="2" ry="2"/><rect class="c cn" x="434" y="18" rx="2" ry="2"/><rect class="c co" x="434" y="34" rx="2" ry="2"/><rect class="c cp" x="434" y="50" rx="2" ry="2"/><rect class="c cq" x="434" y="66" rx="2" ry="2"/><rect class="c cr" x="434" y="82" rx="2" ry="2"/><rect class="c cs" x="434" y="98" rx="2" ry="2"/><rect class="c ct" x="450" y="2" rx="2" ry="2"/><rect class="c" x="450" y="18" rx="2" ry="2"/><rect class="c cu" x="450" y="34" rx="2" ry="2"/><rect class="c cv" x="450" y="50" rx="2" ry="2"/><rect class="c cw" x="450" y="66" rx="2" ry="2"/><rect class="c" x="450" y="82" rx="2" ry="2"/><rect class="c" x="450" y="98" rx="2" ry="2"/><rect class="c cx" x="466" y="2" rx="2" ry="2"/><rect class="c cy" x="466" y="18" rx="2" ry="2"/><rect class="c" x="466" y="34" rx="2" ry="2"/><rect class="c" x="466" y="50" rx="2" ry="2"/><rect class="c cz" x="466" y="66" rx="2" ry="2"/><rect class="c c10" x="466" y="82" rx="2" ry="2"/><rect class="c c11" x="466" y="98" rx="2" ry="2"/><rect class="c c12" x="482" y="2" rx="2" ry="2"/><rect class="c" x="482" y="18" rx="2" ry="2"/><rect class="c" x="482" y="34" rx="2" ry="2"/><rect class="c c13" x="482" y="50" rx="2" ry="2"/><rect class="c c14" x="482" y="66" rx="2" ry="2"/><rect class="c" x="482" y="82" rx="2" ry="2"/><rect class="c c15" x="482" y="98" rx="2" ry="2"/><rect class="c c16" x="498" y="2" rx="2" ry="2"/><rect class="c c17" x="498" y="18" rx="2" ry="2"/><rect class="c c18" x="498" y="34" rx="2" ry="2"/><rect class="c c19" x="498" y="50" rx="2" ry="2"/><rect class="c c1a" x="498" y="66" rx="2" ry="2"/><rect class="c" x="498" y="82" rx="2" ry="2"/><rect class="c" x="498" y="98" rx="2" ry="2"/><rect class="c" x="514" y="2" rx="2" ry="2"/><rect class="c" x="514" y="18" rx="2" ry="2"/><rect class="c" x="514" y="34" rx="2" ry="2"/><rect class="c c1b" x="514" y="50" rx="2" ry="2"/><rect class="c" x="514" y="66" rx="2" ry="2"/><rect class="c" x="514" y="82" rx="2" ry="2"/><rect class="c" x="514" y="98" rx="2" ry="2"/><rect class="c" x="530" y="2" rx="2" ry="2"/><rect class="c" x="530" y="18" rx="2" ry="2"/><rect class="c c1c" x="530" y="34" rx="2" ry="2"/><rect class="c" x="530" y="50" rx="2" ry="2"/><rect class="c c1d" x="530" y="66" rx="2" ry="2"/><rect class="c" x="530" y="82" rx="2" ry="2"/><rect class="c" x="530" y="98" rx="2" ry="2"/><rect class="c" x="546" y="2" rx="2" ry="2"/><rect class="c" x="546" y="18" rx="2" ry="2"/><rect class="c c1e" x="546" y="34" rx="2" ry="2"/><rect class="c c1f" x="546" y="50" rx="2" ry="2"/><rect class="c" x="546" y="66" rx="2" ry="2"/><rect class="c" x="546" y="82" rx="2" ry="2"/><rect class="c" x="546" y="98" rx="2" ry="2"/><rect class="c" x="562" y="2" rx="2" ry="2"/><rect class="c" x="562" y="18" rx="2" ry="2"/><rect class="c" x="562" y="34" rx="2" ry="2"/><rect class="c c1g" x="562" y="50" rx="2" ry="2"/><rect class="c" x="562" y="66" rx="2" ry="2"/><rect class="c c1h" x="562" y="82" rx="2" ry="2"/><rect class="c c1i" x="562" y="98" rx="2" ry="2"/><rect class="c c1j" x="578" y="2" rx="2" ry="2"/><rect class="c c1k" x="578" y="18" rx="2" ry="2"/><rect class="c c1l" x="578" y="34" rx="2" ry="2"/><rect class="c c1m" x="578" y="50" rx="2" ry="2"/><rect class="c c1n" x="578" y="66" rx="2" ry="2"/><rect class="c" x="578" y="82" rx="2" ry="2"/><rect class="c c1o" x="578" y="98" rx="2" ry="2"/><rect class="c c1p" x="594" y="2" rx="2" ry="2"/><rect class="c" x="594" y="18" rx="2" ry="2"/><rect class="c" x="594" y="34" rx="2" ry="2"/><rect class="c" x="594" y="50" rx="2" ry="2"/><rect class="c" x="594" y="66" rx="2" ry="2"/><rect class="c" x="594" y="82" rx="2" ry="2"/><rect class="c" x="594" y="98" rx="2" ry="2"/><rect class="c" x="610" y="2" rx="2" ry="2"/><rect class="c" x="610" y="18" rx="2" ry="2"/><rect class="c" x="610" y="34" rx="2" ry="2"/><rect class="c" x="610" y="50" rx="2" ry="2"/><rect class="c c1q" x="610" y="66" rx="2" ry="2"/><rect class="c" x="610" y="82" rx="2" ry="2"/><rect class="c" x="610" y="98" rx="2" ry="2"/><rect class="c" x="626" y="2" rx="2" ry="2"/><rect class="c" x="626" y="18" rx="2" ry="2"/><rect class="c" x="626" y="34" rx="2" ry="2"/><rect class="c" x="626" y="50" rx="2" ry="2"/><rect class="c" x="626" y="66" rx="2" ry="2"/><rect class="c" x="626" y="82" rx="2" ry="2"/><rect class="c" x="626" y="98" rx="2" ry="2"/><rect class="c c1r" x="642" y="2" rx="2" ry="2"/><rect class="c" x="642" y="18" rx="2" ry="2"/><rect class="c" x="642" y="34" rx="2" ry="2"/><rect class="c" x="642" y="50" rx="2" ry="2"/><rect class="c" x="642" y="66" rx="2" ry="2"/><rect class="c c1s" x="642" y="82" rx="2" ry="2"/><rect class="c c1t" x="642" y="98" rx="2" ry="2"/><rect class="c c1u" x="658" y="2" rx="2" ry="2"/><rect class="c c1v" x="658" y="18" rx="2" ry="2"/><rect class="c" x="658" y="34" rx="2" ry="2"/><rect class="c" x="658" y="50" rx="2" ry="2"/><rect class="c" x="658" y="66" rx="2" ry="2"/><rect class="c" x="658" y="82" rx="2" ry="2"/><rect class="c c1w" x="658" y="98" rx="2" ry="2"/><rect class="c c1x" x="674" y="2" rx="2" ry="2"/><rect class="c c1y" x="674" y="18" rx="2" ry="2"/><rect class="c c1z" x="674" y="34" rx="2" ry="2"/><rect class="c c20" x="674" y="50" rx="2" ry="2"/><rect class="c" x="674" y="66" rx="2" ry="2"/><rect class="c" x="674" y="82" rx="2" ry="2"/><rect class="c" x="674" y="98" rx="2" ry="2"/><rect class="c" x="690" y="2" rx="2" ry="2"/><rect class="c" x="690" y="18" rx="2" ry="2"/><rect class="c" x="690" y="34" rx="2" ry="2"/><rect class="c" x="690" y="50" rx="2" ry="2"/><rect class="c" x="690" y="66" rx="2" ry="2"/><rect class="c" x="690" y="82" rx="2" ry="2"/><rect class="c" x="690" y="98" rx="2" ry="2"/><rect class="c" x="706" y="2" rx="2" ry="2"/><rect class="c" x="706" y="18" rx="2" ry="2"/><rect class="c" x="706" y="34" rx="2" ry="2"/><rect class="c" x="706" y="50" rx="2" ry="2"/><rect class="c" x="706" y="66" rx="2" ry="2"/><rect class="c" x="706" y="82" rx="2" ry="2"/><rect class="c" x="706" y="98" rx="2" ry="2"/><rect class="c" x="722" y="2" rx="2" ry="2"/><rect class="c c21" x="722" y="18" rx="2" ry="2"/><rect class="c" x="722" y="34" rx="2" ry="2"/><rect class="c c22" x="722" y="50" rx="2" ry="2"/><rect class="c" x="722" y="66" rx="2" ry="2"/><rect class="c c23" x="722" y="82" rx="2" ry="2"/><rect class="c" x="722" y="98" rx="2" ry="2"/><rect class="c" x="738" y="2" rx="2" ry="2"/><rect class="c" x="738" y="18" rx="2" ry="2"/><rect class="c c24" x="738" y="34" rx="2" ry="2"/><rect class="c c25" x="738" y="50" rx="2" ry="2"/><rect class="c c26" x="738" y="66" rx="2" ry="2"/><rect class="c c27" x="738" y="82" rx="2" ry="2"/><rect class="c c28" x="738" y="98" rx="2" ry="2"/><rect class="c" x="754" y="2" rx="2" ry="2"/><rect class="c" x="754" y="18" rx="2" ry="2"/><rect class="c" x="754" y="34" rx="2" ry="2"/><rect class="c" x="754" y="50" rx="2" ry="2"/><rect class="c c29" x="754" y="66" rx="2" ry="2"/><rect class="c c2a" x="754" y="82" rx="2" ry="2"/><rect class="c c2b" x="754" y="98" rx="2" ry="2"/><rect class="c c2c" x="770" y="2" rx="2" ry="2"/><rect class="c c2d" x="770" y="18" rx="2" ry="2"/><rect class="c" x="770" y="34" rx="2" ry="2"/><rect class="c" x="770" y="50" rx="2" ry="2"/><rect class="c" x="770" y="66" rx="2" ry="2"/><rect class="c" x="770" y="82" rx="2" ry="2"/><rect class="c c2e" x="770" y="98" rx="2" ry="2"/><rect class="c" x="786" y="2" rx="2" ry="2"/><rect class="c" x="786" y="18" rx="2" ry="2"/><rect class="c c2f" x="786" y="34" rx="2" ry="2"/><rect class="c" x="786" y="50" rx="2" ry="2"/><rect class="c" x="786" y="66" rx="2" ry="2"/><rect class="c" x="786" y="82" rx="2" ry="2"/><rect class="c" x="786" y="98" rx="2" ry="2"/><rect class="c" x="802" y="2" rx="2" ry="2"/><rect class="c" x="802" y="18" rx="2" ry="2"/><rect class="c c2g" x="802" y="34" rx="2" ry="2"/><rect class="c c2h" x="802" y="50" rx="2" ry="2"/><rect class="c" x="802" y="66" rx="2" ry="2"/><rect class="c" x="802" y="82" rx="2" ry="2"/><rect class="c" x="802" y="98" rx="2" ry="2"/><rect class="c c2i" x="818" y="2" rx="2" ry="2"/><rect class="c" x="818" y="18" rx="2" ry="2"/><rect class="c" x="818" y="34" rx="2" ry="2"/><rect class="c" x="818" y="50" rx="2" ry="2"/><rect class="c" x="818" y="66" rx="2" ry="2"/><rect class="c" x="818" y="82" rx="2" ry="2"/><rect class="c" x="818" y="98" rx="2" ry="2"/><rect class="c" x="834" y="2" rx="2" ry="2"/><rect class="c c2j" x="834" y="18" rx="2" ry="2"/><rect class="u u0" height="12" width="645.8" x="0.0" y="144"/><rect class="u u1" height="12" width="120.4" x="645.2" y="144"/><rect class="u u2" height="12" width="65.1" x="765.0" y="144"/><rect class="u u3" height="12" width="19.0" x="829.6" y="144"/><rect class="s s0" x="0.8" y="0.8" width="14.4" height="14.4" rx="4.5" ry="4.5"/><rect class="s s1" x="1.8" y="1.8" width="12.3" height="12.3" rx="4.1" ry="4.1"/><rect class="s s2" x="2.6" y="2.6" width="10.8" height="10.8" rx="3.6" ry="3.6"/><rect class="s s3" x="3.0" y="3.0" width="9.9" height="9.9" rx="3.3" ry="3.3"/></svg>