<svg viewBox="-16 -32 880 192" width="880" height="192" xmlns="http://www.w3.org/2000/svg"><desc>Generated with https://github.com/Platane/snk</desc><style>:root{--cb:#1b1f230a;--cs:purple;--ce:#ebedf0;--c0:#ebedf0;--c1:#9be9a8;--c2:#40c463;--c3:#30a14e;--c4:#216e39}.c{shape-rendering:geometricPrecision;fill:var(--ce);stroke-width:1px;stroke:var(--cb);animation:none 32900ms linear infinite;width:12px;height:12px}@keyframes c0{0.6%{fill:var(--c1)}0.62%,100%{fill:var(--ce)}}.c.c0{fill:var(--c1);animation-name:c0}@keyframes c1{1.21%{fill:var(--c1)}1.23%,100%{fill:var(--ce)}}.c.c1{fill:var(--c1);animation-name:c1}@keyframes c2{2.12%{fill:var(--c1)}2.14%,100%{fill:var(--ce)}}.c.c2{fill:var(--c1);animation-name:c2}@keyframes c3{7.28%{fill:var(--c1)}7.3%,100%{fill:var(--ce)}}.c.c3{fill:var(--c1);animation-name:c3}@keyframes c4{10.02%{fill:var(--c1)}10.04%,100%{fill:var(--ce)}}.c.c4{fill:var(--c1);animation-name:c4}@keyframes c5{56.52%{fill:var(--c2)}56.54%,100%{fill:var(--ce)}}.c.c5{fill:var(--c2);animation-name:c5}@keyframes c6{39.2%{fill:var(--c1)}39.22%,100%{fill:var(--ce)}}.c.c6{fill:var(--c1);animation-name:c6}@keyframes c7{11.84%{fill:var(--c1)}11.86%,100%{fill:var(--ce)}}.c.c7{fill:var(--c1);animation-name:c7}@keyframes c8{12.45%{fill:var(--c1)}12.47%,100%{fill:var(--ce)}}.c.c8{fill:var(--c1);animation-name:c8}@keyframes c9{12.15%{fill:var(--c1)}12.17%,100%{fill:var(--ce)}}.c.c9{fill:var(--c1);animation-name:c9}@keyframes ca{15.49%{fill:var(--c1)}15.51%,100%{fill:var(--ce)}}.c.ca{fill:var(--c1);animation-name:ca}@keyframes cb{15.8%{fill:var(--c1)}15.82%,100%{fill:var(--ce)}}.c.cb{fill:var(--c1);animation-name:cb}@keyframes cc{17.62%{fill:var(--c1)}17.64%,100%{fill:var(--ce)}}.c.cc{fill:var(--c1);animation-name:cc}@keyframes cd{14.58%{fill:var(--c1)}14.6%,100%{fill:var(--ce)}}.c.cd{fill:var(--c1);animation-name:cd}@keyframes ce{52.88%{fill:var(--c2)}52.9%,100%{fill:var(--ce)}}.c.ce{fill:var(--c2);animation-name:ce}@keyframes cf{73.24%{fill:var(--c3)}73.26%,100%{fill:var(--ce)}}.c.cf{fill:var(--c3);animation-name:cf}@keyframes cg{16.4%{fill:var(--c1)}16.42%,100%{fill:var(--ce)}}.c.cg{fill:var(--c1);animation-name:cg}@keyframes ch{17.01%{fill:var(--c1)}17.03%,100%{fill:var(--ce)}}.c.ch{fill:var(--c1);animation-name:ch}@keyframes ci{51.97%{fill:var(--c2)}51.99%,100%{fill:var(--ce)}}.c.ci{fill:var(--c2);animation-name:ci}@keyframes cj{19.14%{fill:var(--c1)}19.16%,100%{fill:var(--ce)}}.c.cj{fill:var(--c1);animation-name:cj}@keyframes ck{71.72%{fill:var(--c3)}71.74%,100%{fill:var(--ce)}}.c.ck{fill:var(--c3);animation-name:ck}@keyframes cl{77.5%{fill:var(--c4)}77.52%,100%{fill:var(--ce)}}.c.cl{fill:var(--c4);animation-name:cl}@keyframes cm{70.2%{fill:var(--c3)}70.22%,100%{fill:var(--ce)}}.c.cm{fill:var(--c3);animation-name:cm}@keyframes cn{43.76%{fill:var(--c1)}43.78%,100%{fill:var(--ce)}}.c.cn{fill:var(--c1);animation-name:cn}@keyframes co{50.75%{fill:var(--c2)}50.77%,100%{fill:var(--ce)}}.c.co{fill:var(--c2);animation-name:co}@keyframes cp{45.58%{fill:var(--c2)}45.6%,100%{fill:var(--ce)}}.c.cp{fill:var(--c2);animation-name:cp}@keyframes cq{45.28%{fill:var(--c2)}45.3%,100%{fill:var(--ce)}}.c.cq{fill:var(--c2);animation-name:cq}@keyframes cr{75.37%{fill:var(--c4)}75.39%,100%{fill:var(--ce)}}.c.cr{fill:var(--c4);animation-name:cr}@keyframes cs{44.06%{fill:var(--c1)}44.08%,100%{fill:var(--ce)}}.c.cs{fill:var(--c1);animation-name:cs}@keyframes ct{49.84%{fill:var(--c2)}49.86%,100%{fill:var(--ce)}}.c.ct{fill:var(--c2);animation-name:ct}@keyframes cu{19.75%{fill:var(--c1)}19.77%,100%{fill:var(--ce)}}.c.cu{fill:var(--c1);animation-name:cu}@keyframes cv{50.45%{fill:var(--c2)}50.47%,100%{fill:var(--ce)}}.c.cv{fill:var(--c2);animation-name:cv}@keyframes cw{68.99%{fill:var(--c3)}69.01%,100%{fill:var(--ce)}}.c.cw{fill:var(--c3);animation-name:cw}@keyframes cx{44.67%{fill:var(--c1)}44.69%,100%{fill:var(--ce)}}.c.cx{fill:var(--c1);animation-name:cx}@keyframes cy{44.37%{fill:var(--c2)}44.39%,100%{fill:var(--ce)}}.c.cy{fill:var(--c2);animation-name:cy}@keyframes cz{49.53%{fill:var(--c2)}49.55%,100%{fill:var(--ce)}}.c.cz{fill:var(--c2);animation-name:cz}@keyframes c10{46.8%{fill:var(--c2)}46.82%,100%{fill:var(--ce)}}.c.c10{fill:var(--c2);animation-name:c10}@keyframes c11{76.28%{fill:var(--c4)}76.3%,100%{fill:var(--ce)}}.c.c11{fill:var(--c4);animation-name:c11}@keyframes c12{49.23%{fill:var(--c2)}49.25%,100%{fill:var(--ce)}}.c.c12{fill:var(--c2);animation-name:c12}@keyframes c13{20.35%{fill:var(--c1)}20.37%,100%{fill:var(--ce)}}.c.c13{fill:var(--c1);animation-name:c13}@keyframes c14{20.66%{fill:var(--c1)}20.68%,100%{fill:var(--ce)}}.c.c14{fill:var(--c1);animation-name:c14}@keyframes c15{47.1%{fill:var(--c2)}47.12%,100%{fill:var(--ce)}}.c.c15{fill:var(--c2);animation-name:c15}@keyframes c16{22.48%{fill:var(--c1)}22.5%,100%{fill:var(--ce)}}.c.c16{fill:var(--c1);animation-name:c16}@keyframes c17{22.18%{fill:var(--c1)}22.2%,100%{fill:var(--ce)}}.c.c17{fill:var(--c1);animation-name:c17}@keyframes c18{62.91%{fill:var(--c2)}62.93%,100%{fill:var(--ce)}}.c.c18{fill:var(--c2);animation-name:c18}@keyframes c19{27.95%{fill:var(--c1)}27.97%,100%{fill:var(--ce)}}.c.c19{fill:var(--c1);animation-name:c19}@keyframes c1a{67.77%{fill:var(--c3)}67.79%,100%{fill:var(--ce)}}.c.c1a{fill:var(--c3);animation-name:c1a}@keyframes c1b{25.52%{fill:var(--c1)}25.54%,100%{fill:var(--ce)}}.c.c1b{fill:var(--c1);animation-name:c1b}@keyframes c1c{22.79%{fill:var(--c1)}22.81%,100%{fill:var(--ce)}}.c.c1c{fill:var(--c1);animation-name:c1c}@keyframes c1d{48.62%{fill:var(--c2)}48.64%,100%{fill:var(--ce)}}.c.c1d{fill:var(--c2);animation-name:c1d}@keyframes c1e{23.09%{fill:var(--c1)}23.11%,100%{fill:var(--ce)}}.c.c1e{fill:var(--c1);animation-name:c1e}@keyframes c1f{24.91%{fill:var(--c1)}24.93%,100%{fill:var(--ce)}}.c.c1f{fill:var(--c1);animation-name:c1f}@keyframes c1g{24.31%{fill:var(--c1)}24.33%,100%{fill:var(--ce)}}.c.c1g{fill:var(--c1);animation-name:c1g}@keyframes c1h{66.56%{fill:var(--c2)}66.58%,100%{fill:var(--ce)}}.c.c1h{fill:var(--c2);animation-name:c1h}@keyframes c1i{23.7%{fill:var(--c1)}23.72%,100%{fill:var(--ce)}}.c.c1i{fill:var(--c1);animation-name:c1i}@keyframes c1j{65.34%{fill:var(--c2)}65.36%,100%{fill:var(--ce)}}.c.c1j{fill:var(--c2);animation-name:c1j}@keyframes c1k{32.51%{fill:var(--c1)}32.53%,100%{fill:var(--ce)}}.c.c1k{fill:var(--c1);animation-name:c1k}@keyframes c1l{82.06%{fill:var(--c4)}82.08%,100%{fill:var(--ce)}}.c.c1l{fill:var(--c4);animation-name:c1l}@keyframes c1m{30.08%{fill:var(--c1)}30.1%,100%{fill:var(--ce)}}.c.c1m{fill:var(--c1);animation-name:c1m}@keyframes c1n{30.39%{fill:var(--c1)}30.41%,100%{fill:var(--ce)}}.c.c1n{fill:var(--c1);animation-name:c1n}@keyframes c1o{65.95%{fill:var(--c2)}65.97%,100%{fill:var(--ce)}}.c.c1o{fill:var(--c2);animation-name:c1o}@keyframes c1p{31.6%{fill:var(--c1)}31.62%,100%{fill:var(--ce)}}.c.c1p{fill:var(--c1);animation-name:c1p}.u{transform-origin:0 0;transform:scale(0,1);animation:none linear 32900ms infinite}@keyframes u0{0.6%{transform:scale(0.000,1)}0.62%,1.21%{transform:scale(0.029,1)}1.23%,2.12%{transform:scale(0.059,1)}2.14%,7.28%{transform:scale(0.088,1)}7.3%,10.02%{transform:scale(0.118,1)}10.04%,11.84%{transform:scale(0.147,1)}11.86%,12.15%{transform:scale(0.176,1)}12.17%,12.45%{transform:scale(0.206,1)}12.47%,14.58%{transform:scale(0.235,1)}14.6%,15.49%{transform:scale(0.265,1)}15.51%,15.8%{transform:scale(0.294,1)}15.82%,16.4%{transform:scale(0.324,1)}16.42%,17.01%{transform:scale(0.353,1)}17.03%,17.62%{transform:scale(0.382,1)}17.64%,19.14%{transform:scale(0.412,1)}19.16%,19.75%{transform:scale(0.441,1)}19.77%,20.35%{transform:scale(0.471,1)}20.37%,20.66%{transform:scale(0.500,1)}20.68%,22.18%{transform:scale(0.529,1)}22.2%,22.48%{transform:scale(0.559,1)}22.5%,22.79%{transform:scale(0.588,1)}22.81%,23.09%{transform:scale(0.618,1)}23.11%,23.7%{transform:scale(0.647,1)}23.72%,24.31%{transform:scale(0.676,1)}24.33%,24.91%{transform:scale(0.706,1)}24.93%,25.52%{transform:scale(0.735,1)}25.54%,27.95%{transform:scale(0.765,1)}27.97%,30.08%{transform:scale(0.794,1)}30.1%,30.39%{transform:scale(0.824,1)}30.41%,31.6%{transform:scale(0.853,1)}31.62%,32.51%{transform:scale(0.882,1)}32.53%,39.2%{transform:scale(0.912,1)}39.22%,43.76%{transform:scale(0.941,1)}43.78%,44.06%{transform:scale(0.971,1)}44.08%,100%{transform:scale(1.000,1)}}.u.u0{fill:var(--c1);animation-name:u0;transform-origin:0.0px 0}@keyframes u1{44.37%{transform:scale(0.000,1)}44.39%,100%{transform:scale(1.000,1)}}.u.u1{fill:var(--c2);animation-name:u1;transform-origin:465.0px 0}@keyframes u2{44.67%{transform:scale(0.000,1)}44.69%,100%{transform:scale(1.000,1)}}.u.u2{fill:var(--c1);animation-name:u2;transform-origin:478.7px 0}@keyframes u3{45.28%{transform:scale(0.000,1)}45.3%,45.58%{transform:scale(0.059,1)}45.6%,46.8%{transform:scale(0.118,1)}46.82%,47.1%{transform:scale(0.176,1)}47.12%,48.62%{transform:scale(0.235,1)}48.64%,49.23%{transform:scale(0.294,1)}49.25%,49.53%{transform:scale(0.353,1)}49.55%,49.84%{transform:scale(0.412,1)}49.86%,50.45%{transform:scale(0.471,1)}50.47%,50.75%{transform:scale(0.529,1)}50.77%,51.97%{transform:scale(0.588,1)}51.99%,52.88%{transform:scale(0.647,1)}52.9%,56.52%{transform:scale(0.706,1)}56.54%,62.91%{transform:scale(0.765,1)}62.93%,65.34%{transform:scale(0.824,1)}65.36%,65.95%{transform:scale(0.882,1)}65.97%,66.56%{transform:scale(0.941,1)}66.58%,100%{transform:scale(1.000,1)}}.u.u3{fill:var(--c2);animation-name:u3;transform-origin:492.4px 0}@keyframes u4{67.77%{transform:scale(0.000,1)}67.79%,68.99%{transform:scale(0.200,1)}69.01%,70.2%{transform:scale(0.400,1)}70.22%,71.72%{transform:scale(0.600,1)}71.74%,73.24%{transform:scale(0.800,1)}73.26%,100%{transform:scale(1.000,1)}}.u.u4{fill:var(--c3);animation-name:u4;transform-origin:724.9px 0}@keyframes u5{75.37%{transform:scale(0.000,1)}75.39%,76.28%{transform:scale(0.250,1)}76.3%,77.5%{transform:scale(0.500,1)}77.52%,82.06%{transform:scale(0.750,1)}82.08%,100%{transform:scale(1.000,1)}}.u.u5{fill:var(--c4);animation-name:u5;transform-origin:793.3px 0}.s{shape-rendering:geometricPrecision;fill:var(--cs);animation:none linear 32900ms infinite}@keyframes s0{0%,99.7%{transform:translate(0px,-16px)}0.3%{transform:translate(0px,0px)}0.91%{transform:translate(32px,0px)}1.22%{transform:translate(32px,16px)}1.82%{transform:translate(64px,16px)}2.13%{transform:translate(64px,0px)}6.99%{transform:translate(320px,0px)}7.29%{transform:translate(320px,16px)}9.42%{transform:translate(432px,16px)}10.03%,56.23%{transform:translate(432px,48px)}11.25%{transform:translate(496px,48px)}11.85%{transform:translate(496px,16px)}12.16%{transform:translate(512px,16px)}12.46%{transform:translate(512px,0px)}14.29%{transform:translate(608px,0px)}14.59%{transform:translate(608px,16px)}14.89%{transform:translate(592px,16px)}16.11%,17.93%,59.88%{transform:translate(592px,80px)}16.72%,42.25%{transform:translate(624px,80px)}17.02%{transform:translate(624px,96px)}17.63%{transform:translate(592px,96px)}20.36%{transform:translate(720px,80px)}20.67%{transform:translate(720px,96px)}20.97%{transform:translate(704px,96px)}21.28%{transform:translate(704px,80px)}21.88%,62.61%{transform:translate(736px,80px)}22.49%,26.14%{transform:translate(736px,48px)}23.71%{transform:translate(800px,48px)}24.01%{transform:translate(800px,64px)}24.32%{transform:translate(784px,64px)}24.92%{transform:translate(784px,32px)}25.84%,47.72%{transform:translate(736px,32px)}26.75%{transform:translate(768px,48px)}27.66%{transform:translate(768px,0px)}27.96%,68.09%{transform:translate(752px,0px)}28.27%{transform:translate(752px,-16px)}29.79%{transform:translate(832px,-16px)}30.4%{transform:translate(832px,16px)}30.7%{transform:translate(848px,16px)}31.31%{transform:translate(848px,48px)}31.61%,65.65%{transform:translate(832px,48px)}31.91%{transform:translate(832px,64px)}32.22%{transform:translate(816px,64px)}32.52%,64.74%{transform:translate(816px,80px)}38.91%{transform:translate(480px,80px)}39.21%{transform:translate(480px,96px)}39.51%{transform:translate(496px,96px)}39.82%{transform:translate(496px,80px)}42.55%{transform:translate(624px,64px)}43.47%{transform:translate(672px,64px)}43.77%,51.67%{transform:translate(672px,48px)}44.38%{transform:translate(704px,48px)}44.98%{transform:translate(704px,16px)}45.29%,69.6%{transform:translate(688px,16px)}45.9%{transform:translate(688px,-16px)}46.5%{transform:translate(720px,-16px)}46.81%,76.6%{transform:translate(720px,0px)}47.11%{transform:translate(736px,0px)}48.02%{transform:translate(752px,32px)}48.63%{transform:translate(752px,64px)}49.85%{transform:translate(688px,64px)}50.46%{transform:translate(688px,96px)}50.76%{transform:translate(672px,96px)}56.53%{transform:translate(432px,64px)}59.57%{transform:translate(592px,64px)}62.92%{transform:translate(736px,96px)}64.13%{transform:translate(800px,96px)}64.44%{transform:translate(800px,80px)}65.35%{transform:translate(816px,48px)}65.96%{transform:translate(832px,32px)}66.57%{transform:translate(800px,32px)}66.87%{transform:translate(800px,16px)}67.78%{transform:translate(752px,16px)}69.3%{transform:translate(688px,0px)}69.91%,77.81%{transform:translate(672px,16px)}70.21%{transform:translate(672px,32px)}70.52%{transform:translate(656px,32px)}71.73%{transform:translate(656px,96px)}72.04%{transform:translate(640px,96px)}72.64%{transform:translate(640px,64px)}73.25%{transform:translate(608px,64px)}73.56%{transform:translate(608px,48px)}75.08%{transform:translate(688px,48px)}75.38%{transform:translate(688px,32px)}75.99%{transform:translate(720px,32px)}77.51%{transform:translate(672px,0px)}80.55%{transform:translate(816px,16px)}82.07%{transform:translate(816px,96px)}92.4%{transform:translate(272px,96px)}92.71%{transform:translate(272px,80px)}93.01%{transform:translate(256px,80px)}93.31%{transform:translate(256px,64px)}95.44%{transform:translate(144px,64px)}96.35%{transform:translate(144px,16px)}96.66%{transform:translate(128px,16px)}96.96%{transform:translate(128px,0px)}97.87%{transform:translate(80px,0px)}98.18%{transform:translate(80px,-16px)}}.s.s0{transform:translate(0px,-16px);animation-name:s0}@keyframes s1{0%,99.7%{transform:translate(16px,-16px)}0.3%{transform:translate(0px,-16px)}0.61%{transform:translate(0px,0px)}1.22%{transform:translate(32px,0px)}1.52%{transform:translate(32px,16px)}2.13%{transform:translate(64px,16px)}2.43%{transform:translate(64px,0px)}7.29%{transform:translate(320px,0px)}7.6%{transform:translate(320px,16px)}9.73%{transform:translate(432px,16px)}10.33%,56.53%{transform:translate(432px,48px)}11.55%{transform:translate(496px,48px)}12.16%{transform:translate(496px,16px)}12.46%{transform:translate(512px,16px)}12.77%{transform:translate(512px,0px)}14.59%{transform:translate(608px,0px)}14.89%{transform:translate(608px,16px)}15.2%{transform:translate(592px,16px)}16.41%,18.24%,60.18%{transform:translate(592px,80px)}17.02%,42.55%{transform:translate(624px,80px)}17.33%{transform:translate(624px,96px)}17.93%{transform:translate(592px,96px)}20.67%{transform:translate(720px,80px)}20.97%{transform:translate(720px,96px)}21.28%{transform:translate(704px,96px)}21.58%{transform:translate(704px,80px)}22.19%,62.92%{transform:translate(736px,80px)}22.8%,26.44%{transform:translate(736px,48px)}24.01%{transform:translate(800px,48px)}24.32%{transform:translate(800px,64px)}24.62%{transform:translate(784px,64px)}25.23%{transform:translate(784px,32px)}26.14%,48.02%{transform:translate(736px,32px)}27.05%{transform:translate(768px,48px)}27.96%{transform:translate(768px,0px)}28.27%,68.39%{transform:translate(752px,0px)}28.57%{transform:translate(752px,-16px)}30.09%{transform:translate(832px,-16px)}30.7%{transform:translate(832px,16px)}31%{transform:translate(848px,16px)}31.61%{transform:translate(848px,48px)}31.91%,65.96%{transform:translate(832px,48px)}32.22%{transform:translate(832px,64px)}32.52%{transform:translate(816px,64px)}32.83%,65.05%{transform:translate(816px,80px)}39.21%{transform:translate(480px,80px)}39.51%{transform:translate(480px,96px)}39.82%{transform:translate(496px,96px)}40.12%{transform:translate(496px,80px)}42.86%{transform:translate(624px,64px)}43.77%{transform:translate(672px,64px)}44.07%,51.98%{transform:translate(672px,48px)}44.68%{transform:translate(704px,48px)}45.29%{transform:translate(704px,16px)}45.59%,69.91%{transform:translate(688px,16px)}46.2%{transform:translate(688px,-16px)}46.81%{transform:translate(720px,-16px)}47.11%,76.9%{transform:translate(720px,0px)}47.42%{transform:translate(736px,0px)}48.33%{transform:translate(752px,32px)}48.94%{transform:translate(752px,64px)}50.15%{transform:translate(688px,64px)}50.76%{transform:translate(688px,96px)}51.06%{transform:translate(672px,96px)}56.84%{transform:translate(432px,64px)}59.88%{transform:translate(592px,64px)}63.22%{transform:translate(736px,96px)}64.44%{transform:translate(800px,96px)}64.74%{transform:translate(800px,80px)}65.65%{transform:translate(816px,48px)}66.26%{transform:translate(832px,32px)}66.87%{transform:translate(800px,32px)}67.17%{transform:translate(800px,16px)}68.09%{transform:translate(752px,16px)}69.6%{transform:translate(688px,0px)}70.21%,78.12%{transform:translate(672px,16px)}70.52%{transform:translate(672px,32px)}70.82%{transform:translate(656px,32px)}72.04%{transform:translate(656px,96px)}72.34%{transform:translate(640px,96px)}72.95%{transform:translate(640px,64px)}73.56%{transform:translate(608px,64px)}73.86%{transform:translate(608px,48px)}75.38%{transform:translate(688px,48px)}75.68%{transform:translate(688px,32px)}76.29%{transform:translate(720px,32px)}77.81%{transform:translate(672px,0px)}80.85%{transform:translate(816px,16px)}82.37%{transform:translate(816px,96px)}92.71%{transform:translate(272px,96px)}93.01%{transform:translate(272px,80px)}93.31%{transform:translate(256px,80px)}93.62%{transform:translate(256px,64px)}95.74%{transform:translate(144px,64px)}96.66%{transform:translate(144px,16px)}96.96%{transform:translate(128px,16px)}97.26%{transform:translate(128px,0px)}98.18%{transform:translate(80px,0px)}98.48%{transform:translate(80px,-16px)}}.s.s1{transform:translate(16px,-16px);animation-name:s1}@keyframes s2{0%,99.7%{transform:translate(32px,-16px)}0.61%{transform:translate(0px,-16px)}0.91%{transform:translate(0px,0px)}1.52%{transform:translate(32px,0px)}1.82%{transform:translate(32px,16px)}2.43%{transform:translate(64px,16px)}2.74%{transform:translate(64px,0px)}7.6%{transform:translate(320px,0px)}7.9%{transform:translate(320px,16px)}10.03%{transform:translate(432px,16px)}10.64%,56.84%{transform:translate(432px,48px)}11.85%{transform:translate(496px,48px)}12.46%{transform:translate(496px,16px)}12.77%{transform:translate(512px,16px)}13.07%{transform:translate(512px,0px)}14.89%{transform:translate(608px,0px)}15.2%{transform:translate(608px,16px)}15.5%{transform:translate(592px,16px)}16.72%,18.54%,60.49%{transform:translate(592px,80px)}17.33%,42.86%{transform:translate(624px,80px)}17.63%{transform:translate(624px,96px)}18.24%{transform:translate(592px,96px)}20.97%{transform:translate(720px,80px)}21.28%{transform:translate(720px,96px)}21.58%{transform:translate(704px,96px)}21.88%{transform:translate(704px,80px)}22.49%,63.22%{transform:translate(736px,80px)}23.1%,26.75%{transform:translate(736px,48px)}24.32%{transform:translate(800px,48px)}24.62%{transform:translate(800px,64px)}24.92%{transform:translate(784px,64px)}25.53%{transform:translate(784px,32px)}26.44%,48.33%{transform:translate(736px,32px)}27.36%{transform:translate(768px,48px)}28.27%{transform:translate(768px,0px)}28.57%,68.69%{transform:translate(752px,0px)}28.88%{transform:translate(752px,-16px)}30.4%{transform:translate(832px,-16px)}31%{transform:translate(832px,16px)}31.31%{transform:translate(848px,16px)}31.91%{transform:translate(848px,48px)}32.22%,66.26%{transform:translate(832px,48px)}32.52%{transform:translate(832px,64px)}32.83%{transform:translate(816px,64px)}33.13%,65.35%{transform:translate(816px,80px)}39.51%{transform:translate(480px,80px)}39.82%{transform:translate(480px,96px)}40.12%{transform:translate(496px,96px)}40.43%{transform:translate(496px,80px)}43.16%{transform:translate(624px,64px)}44.07%{transform:translate(672px,64px)}44.38%,52.28%{transform:translate(672px,48px)}44.98%{transform:translate(704px,48px)}45.59%{transform:translate(704px,16px)}45.9%,70.21%{transform:translate(688px,16px)}46.5%{transform:translate(688px,-16px)}47.11%{transform:translate(720px,-16px)}47.42%,77.2%{transform:translate(720px,0px)}47.72%{transform:translate(736px,0px)}48.63%{transform:translate(752px,32px)}49.24%{transform:translate(752px,64px)}50.46%{transform:translate(688px,64px)}51.06%{transform:translate(688px,96px)}51.37%{transform:translate(672px,96px)}57.14%{transform:translate(432px,64px)}60.18%{transform:translate(592px,64px)}63.53%{transform:translate(736px,96px)}64.74%{transform:translate(800px,96px)}65.05%{transform:translate(800px,80px)}65.96%{transform:translate(816px,48px)}66.57%{transform:translate(832px,32px)}67.17%{transform:translate(800px,32px)}67.48%{transform:translate(800px,16px)}68.39%{transform:translate(752px,16px)}69.91%{transform:translate(688px,0px)}70.52%,78.42%{transform:translate(672px,16px)}70.82%{transform:translate(672px,32px)}71.12%{transform:translate(656px,32px)}72.34%{transform:translate(656px,96px)}72.64%{transform:translate(640px,96px)}73.25%{transform:translate(640px,64px)}73.86%{transform:translate(608px,64px)}74.16%{transform:translate(608px,48px)}75.68%{transform:translate(688px,48px)}75.99%{transform:translate(688px,32px)}76.6%{transform:translate(720px,32px)}78.12%{transform:translate(672px,0px)}81.16%{transform:translate(816px,16px)}82.67%{transform:translate(816px,96px)}93.01%{transform:translate(272px,96px)}93.31%{transform:translate(272px,80px)}93.62%{transform:translate(256px,80px)}93.92%{transform:translate(256px,64px)}96.05%{transform:translate(144px,64px)}96.96%{transform:translate(144px,16px)}97.26%{transform:translate(128px,16px)}97.57%{transform:translate(128px,0px)}98.48%{transform:translate(80px,0px)}98.78%{transform:translate(80px,-16px)}}.s.s2{transform:translate(32px,-16px);animation-name:s2}@keyframes s3{0%,99.7%{transform:translate(48px,-16px)}0.91%{transform:translate(0px,-16px)}1.22%{transform:translate(0px,0px)}1.82%{transform:translate(32px,0px)}2.13%{transform:translate(32px,16px)}2.74%{transform:translate(64px,16px)}3.04%{transform:translate(64px,0px)}7.9%{transform:translate(320px,0px)}8.21%{transform:translate(320px,16px)}10.33%{transform:translate(432px,16px)}10.94%,57.14%{transform:translate(432px,48px)}12.16%{transform:translate(496px,48px)}12.77%{transform:translate(496px,16px)}13.07%{transform:translate(512px,16px)}13.37%{transform:translate(512px,0px)}15.2%{transform:translate(608px,0px)}15.5%{transform:translate(608px,16px)}15.81%{transform:translate(592px,16px)}17.02%,18.84%,60.79%{transform:translate(592px,80px)}17.63%,43.16%{transform:translate(624px,80px)}17.93%{transform:translate(624px,96px)}18.54%{transform:translate(592px,96px)}21.28%{transform:translate(720px,80px)}21.58%{transform:translate(720px,96px)}21.88%{transform:translate(704px,96px)}22.19%{transform:translate(704px,80px)}22.8%,63.53%{transform:translate(736px,80px)}23.4%,27.05%{transform:translate(736px,48px)}24.62%{transform:translate(800px,48px)}24.92%{transform:translate(800px,64px)}25.23%{transform:translate(784px,64px)}25.84%{transform:translate(784px,32px)}26.75%,48.63%{transform:translate(736px,32px)}27.66%{transform:translate(768px,48px)}28.57%{transform:translate(768px,0px)}28.88%,69%{transform:translate(752px,0px)}29.18%{transform:translate(752px,-16px)}30.7%{transform:translate(832px,-16px)}31.31%{transform:translate(832px,16px)}31.61%{transform:translate(848px,16px)}32.22%{transform:translate(848px,48px)}32.52%,66.57%{transform:translate(832px,48px)}32.83%{transform:translate(832px,64px)}33.13%{transform:translate(816px,64px)}33.43%,65.65%{transform:translate(816px,80px)}39.82%{transform:translate(480px,80px)}40.12%{transform:translate(480px,96px)}40.43%{transform:translate(496px,96px)}40.73%{transform:translate(496px,80px)}43.47%{transform:translate(624px,64px)}44.38%{transform:translate(672px,64px)}44.68%,52.58%{transform:translate(672px,48px)}45.29%{transform:translate(704px,48px)}45.9%{transform:translate(704px,16px)}46.2%,70.52%{transform:translate(688px,16px)}46.81%{transform:translate(688px,-16px)}47.42%{transform:translate(720px,-16px)}47.72%,77.51%{transform:translate(720px,0px)}48.02%{transform:translate(736px,0px)}48.94%{transform:translate(752px,32px)}49.54%{transform:translate(752px,64px)}50.76%{transform:translate(688px,64px)}51.37%{transform:translate(688px,96px)}51.67%{transform:translate(672px,96px)}57.45%{transform:translate(432px,64px)}60.49%{transform:translate(592px,64px)}63.83%{transform:translate(736px,96px)}65.05%{transform:translate(800px,96px)}65.35%{transform:translate(800px,80px)}66.26%{transform:translate(816px,48px)}66.87%{transform:translate(832px,32px)}67.48%{transform:translate(800px,32px)}67.78%{transform:translate(800px,16px)}68.69%{transform:translate(752px,16px)}70.21%{transform:translate(688px,0px)}70.82%,78.72%{transform:translate(672px,16px)}71.12%{transform:translate(672px,32px)}71.43%{transform:translate(656px,32px)}72.64%{transform:translate(656px,96px)}72.95%{transform:translate(640px,96px)}73.56%{transform:translate(640px,64px)}74.16%{transform:translate(608px,64px)}74.47%{transform:translate(608px,48px)}75.99%{transform:translate(688px,48px)}76.29%{transform:translate(688px,32px)}76.9%{transform:translate(720px,32px)}78.42%{transform:translate(672px,0px)}81.46%{transform:translate(816px,16px)}82.98%{transform:translate(816px,96px)}93.31%{transform:translate(272px,96px)}93.62%{transform:translate(272px,80px)}93.92%{transform:translate(256px,80px)}94.22%{transform:translate(256px,64px)}96.35%{transform:translate(144px,64px)}97.26%{transform:translate(144px,16px)}97.57%{transform:translate(128px,16px)}97.87%{transform:translate(128px,0px)}98.78%{transform:translate(80px,0px)}99.09%{transform:translate(80px,-16px)}}.s.s3{transform:translate(48px,-16px);animation-name:s3}</style><rect class="c" x="2" y="2" rx="2" ry="2"/><rect class="c" x="2" y="18" rx="2" ry="2"/><rect class="c" x="2" y="34" rx="2" ry="2"/><rect class="c" x="2" y="50" rx="2" ry="2"/><rect class="c" x="2" y="66" rx="2" ry="2"/><rect class="c" x="2" y="82" rx="2" ry="2"/><rect class="c" x="2" y="98" rx="2" ry="2"/><rect class="c c0" x="18" y="2" rx="2" ry="2"/><rect class="c" x="18" y="18" rx="2" ry="2"/><rect class="c" x="18" y="34" rx="2" ry="2"/><rect class="c" x="18" y="50" rx="2" ry="2"/><rect class="c" x="18" y="66" rx="2" ry="2"/><rect class="c" x="18" y="82" rx="2" ry="2"/><rect class="c" x="18" y="98" rx="2" ry="2"/><rect class="c" x="34" y="2" rx="2" ry="2"/><rect class="c c1" x="34" y="18" rx="2" ry="2"/><rect class="c" x="34" y="34" rx="2" ry="2"/><rect class="c" x="34" y="50" rx="2" ry="2"/><rect class="c" x="34" y="66" rx="2" ry="2"/><rect class="c" x="34" y="82" rx="2" ry="2"/><rect class="c" x="34" y="98" rx="2" ry="2"/><rect class="c" x="50" y="2" rx="2" ry="2"/><rect class="c" x="50" y="18" rx="2" ry="2"/><rect class="c" x="50" y="34" rx="2" ry="2"/><rect class="c" x="50" y="50" rx="2" ry="2"/><rect class="c" x="50" y="66" rx="2" ry="2"/><rect class="c" x="50" y="82" rx="2" ry="2"/><rect class="c" x="50" y="98" rx="2" ry="2"/><rect class="c c2" x="66" y="2" rx="2" ry="2"/><rect class="c" x="66" y="18" rx="2" ry="2"/><rect class="c" x="66" y="34" rx="2" ry="2"/><rect class="c" x="66" y="50" rx="2" ry="2"/><rect class="c" x="66" y="66" rx="2" ry="2"/><rect class="c" x="66" y="82" rx="2" ry="2"/><rect class="c" x="66" y="98" rx="2" ry="2"/><rect class="c" x="82" y="2" rx="2" ry="2"/><rect class="c" x="82" y="18" rx="2" ry="2"/><rect class="c" x="82" y="34" rx="2" ry="2"/><rect class="c" x="82" y="50" rx="2" ry="2"/><rect class="c" x="82" y="66" rx="2" ry="2"/><rect class="c" x="82" y="82" rx="2" ry="2"/><rect class="c" x="82" y="98" rx="2" ry="2"/><rect class="c" x="98" y="2" rx="2" ry="2"/><rect class="c" x="98" y="18" rx="2" ry="2"/><rect class="c" x="98" y="34" rx="2" ry="2"/><rect class="c" x="98" y="50" rx="2" ry="2"/><rect class="c" x="98" y="66" rx="2" ry="2"/><rect class="c" x="98" y="82" rx="2" ry="2"/><rect class="c" x="98" y="98" rx="2" ry="2"/><rect class="c" x="114" y="2" rx="2" ry="2"/><rect class="c" x="114" y="18" rx="2" ry="2"/><rect class="c" x="114" y="34" rx="2" ry="2"/><rect class="c" x="114" y="50" rx="2" ry="2"/><rect class="c" x="114" y="66" rx="2" ry="2"/><rect class="c" x="114" y="82" rx="2" ry="2"/><rect class="c" x="114" y="98" rx="2" ry="2"/><rect class="c" x="130" y="2" rx="2" ry="2"/><rect class="c" x="130" y="18" rx="2" ry="2"/><rect class="c" x="130" y="34" rx="2" ry="2"/><rect class="c" x="130" y="50" rx="2" ry="2"/><rect class="c" x="130" y="66" rx="2" ry="2"/><rect class="c" x="130" y="82" rx="2" ry="2"/><rect class="c" x="130" y="98" rx="2" ry="2"/><rect class="c" x="146" y="2" rx="2" ry="2"/><rect class="c" x="146" y="18" rx="2" ry="2"/><rect class="c" x="146" y="34" rx="2" ry="2"/><rect class="c" x="146" y="50" rx="2" ry="2"/><rect class="c" x="146" y="66" rx="2" ry="2"/><rect class="c" x="146" y="82" rx="2" ry="2"/><rect class="c" x="146" y="98" rx="2" ry="2"/><rect class="c" x="162" y="2" rx="2" ry="2"/><rect class="c" x="162" y="18" rx="2" ry="2"/><rect class="c" x="162" y="34" rx="2" ry="2"/><rect class="c" x="162" y="50" rx="2" ry="2"/><rect class="c" x="162" y="66" rx="2" ry="2"/><rect class="c" x="162" y="82" rx="2" ry="2"/><rect class="c" x="162" y="98" rx="2" ry="2"/><rect class="c" x="178" y="2" rx="2" ry="2"/><rect class="c" x="178" y="18" rx="2" ry="2"/><rect class="c" x="178" y="34" rx="2" ry="2"/><rect class="c" x="178" y="50" rx="2" ry="2"/><rect class="c" x="178" y="66" rx="2" ry="2"/><rect class="c" x="178" y="82" rx="2" ry="2"/><rect class="c" x="178" y="98" rx="2" ry="2"/><rect class="c" x="194" y="2" rx="2" ry="2"/><rect class="c" x="194" y="18" rx="2" ry="2"/><rect class="c" x="194" y="34" rx="2" ry="2"/><rect class="c" x="194" y="50" rx="2" ry="2"/><rect class="c" x="194" y="66" rx="2" ry="2"/><rect class="c" x="194" y="82" rx="2" ry="2"/><rect class="c" x="194" y="98" rx="2" ry="2"/><rect class="c" x="210" y="2" rx="2" ry="2"/><rect class="c" x="210" y="18" rx="2" ry="2"/><rect class="c" x="210" y="34" rx="2" ry="2"/><rect class="c" x="210" y="50" rx="2" ry="2"/><rect class="c" x="210" y="66" rx="2" ry="2"/><rect class="c" x="210" y="82" rx="2" ry="2"/><rect class="c" x="210" y="98" rx="2" ry="2"/><rect class="c" x="226" y="2" rx="2" ry="2"/><rect class="c" x="226" y="18" rx="2" ry="2"/><rect class="c" x="226" y="34" rx="2" ry="2"/><rect class="c" x="226" y="50" rx="2" ry="2"/><rect class="c" x="226" y="66" rx="2" ry="2"/><rect class="c" x="226" y="82" rx="2" ry="2"/><rect class="c" x="226" y="98" rx="2" ry="2"/><rect class="c" x="242" y="2" rx="2" ry="2"/><rect class="c" x="242" y="18" rx="2" ry="2"/><rect class="c" x="242" y="34" rx="2" ry="2"/><rect class="c" x="242" y="50" rx="2" ry="2"/><rect class="c" x="242" y="66" rx="2" ry="2"/><rect class="c" x="242" y="82" rx="2" ry="2"/><rect class="c" x="242" y="98" rx="2" ry="2"/><rect class="c" x="258" y="2" rx="2" ry="2"/><rect class="c" x="258" y="18" rx="2" ry="2"/><rect class="c" x="258" y="34" rx="2" ry="2"/><rect class="c" x="258" y="50" rx="2" ry="2"/><rect class="c" x="258" y="66" rx="2" ry="2"/><rect class="c" x="258" y="82" rx="2" ry="2"/><rect class="c" x="258" y="98" rx="2" ry="2"/><rect class="c" x="274" y="2" rx="2" ry="2"/><rect class="c" x="274" y="18" rx="2" ry="2"/><rect class="c" x="274" y="34" rx="2" ry="2"/><rect class="c" x="274" y="50" rx="2" ry="2"/><rect class="c" x="274" y="66" rx="2" ry="2"/><rect class="c" x="274" y="82" rx="2" ry="2"/><rect class="c" x="274" y="98" rx="2" ry="2"/><rect class="c" x="290" y="2" rx="2" ry="2"/><rect class="c" x="290" y="18" rx="2" ry="2"/><rect class="c" x="290" y="34" rx="2" ry="2"/><rect class="c" x="290" y="50" rx="2" ry="2"/><rect class="c" x="290" y="66" rx="2" ry="2"/><rect class="c" x="290" y="82" rx="2" ry="2"/><rect class="c" x="290" y="98" rx="2" ry="2"/><rect class="c" x="306" y="2" rx="2" ry="2"/><rect class="c" x="306" y="18" rx="2" ry="2"/><rect class="c" x="306" y="34" rx="2" ry="2"/><rect class="c" x="306" y="50" rx="2" ry="2"/><rect class="c" x="306" y="66" rx="2" ry="2"/><rect class="c" x="306" y="82" rx="2" ry="2"/><rect class="c" x="306" y="98" rx="2" ry="2"/><rect class="c" x="322" y="2" rx="2" ry="2"/><rect class="c c3" x="322" y="18" rx="2" ry="2"/><rect class="c" x="322" y="34" rx="2" ry="2"/><rect class="c" x="322" y="50" rx="2" ry="2"/><rect class="c" x="322" y="66" rx="2" ry="2"/><rect class="c" x="322" y="82" rx="2" ry="2"/><rect class="c" x="322" y="98" rx="2" ry="2"/><rect class="c" x="338" y="2" rx="2" ry="2"/><rect class="c" x="338" y="18" rx="2" ry="2"/><rect class="c" x="338" y="34" rx="2" ry="2"/><rect class="c" x="338" y="50" rx="2" ry="2"/><rect class="c" x="338" y="66" rx="2" ry="2"/><rect class="c" x="338" y="82" rx="2" ry="2"/><rect class="c" x="338" y="98" rx="2" ry="2"/><rect class="c" x="354" y="2" rx="2" ry="2"/><rect class="c" x="354" y="18" rx="2" ry="2"/><rect class="c" x="354" y="34" rx="2" ry="2"/><rect class="c" x="354" y="50" rx="2" ry="2"/><rect class="c" x="354" y="66" rx="2" ry="2"/><rect class="c" x="354" y="82" rx="2" ry="2"/><rect class="c" x="354" y="98" rx="2" ry="2"/><rect class="c" x="370" y="2" rx="2" ry="2"/><rect class="c" x="370" y="18" rx="2" ry="2"/><rect class="c" x="370" y="34" rx="2" ry="2"/><rect class="c" x="370" y="50" rx="2" ry="2"/><rect class="c" x="370" y="66" rx="2" ry="2"/><rect class="c" x="370" y="82" rx="2" ry="2"/><rect class="c" x="370" y="98" rx="2" ry="2"/><rect class="c" x="386" y="2" rx="2" ry="2"/><rect class="c" x="386" y="18" rx="2" ry="2"/><rect class="c" x="386" y="34" rx="2" ry="2"/><rect class="c" x="386" y="50" rx="2" ry="2"/><rect class="c" x="386" y="66" rx="2" ry="2"/><rect class="c" x="386" y="82" rx="2" ry="2"/><rect class="c" x="386" y="98" rx="2" ry="2"/><rect class="c" x="402" y="2" rx="2" ry="2"/><rect class="c" x="402" y="18" rx="2" ry="2"/><rect class="c" x="402" y="34" rx="2" ry="2"/><rect class="c" x="402" y="50" rx="2" ry="2"/><rect class="c" x="402" y="66" rx="2" ry="2"/><rect class="c" x="402" y="82" rx="2" ry="2"/><rect class="c" x="402" y="98" rx="2" ry="2"/><rect class="c" x="418" y="2" rx="2" ry="2"/><rect class="c" x="418" y="18" rx="2" ry="2"/><rect class="c" x="418" y="34" rx="2" ry="2"/><rect class="c" x="418" y="50" rx="2" ry="2"/><rect class="c" x="418" y="66" rx="2" ry="2"/><rect class="c" x="418" y="82" rx="2" ry="2"/><rect class="c" x="418" y="98" rx="2" ry="2"/><rect class="c" x="434" y="2" rx="2" ry="2"/><rect class="c" x="434" y="18" rx="2" ry="2"/><rect class="c" x="434" y="34" rx="2" ry="2"/><rect class="c c4" x="434" y="50" rx="2" ry="2"/><rect class="c c5" x="434" y="66" rx="2" ry="2"/><rect class="c" x="434" y="82" rx="2" ry="2"/><rect class="c" x="434" y="98" rx="2" ry="2"/><rect class="c" x="450" y="2" rx="2" ry="2"/><rect class="c" x="450" y="18" rx="2" ry="2"/><rect class="c" x="450" y="34" rx="2" ry="2"/><rect class="c" x="450" y="50" rx="2" ry="2"/><rect class="c" x="450" y="66" rx="2" ry="2"/><rect class="c" x="450" y="82" rx="2" ry="2"/><rect class="c" x="450" y="98" rx="2" ry="2"/><rect class="c" x="466" y="2" rx="2" ry="2"/><rect class="c" x="466" y="18" rx="2" ry="2"/><rect class="c" x="466" y="34" rx="2" ry="2"/><rect class="c" x="466" y="50" rx="2" ry="2"/><rect class="c" x="466" y="66" rx="2" ry="2"/><rect class="c" x="466" y="82" rx="2" ry="2"/><rect class="c" x="466" y="98" rx="2" ry="2"/><rect class="c" x="482" y="2" rx="2" ry="2"/><rect class="c" x="482" y="18" rx="2" ry="2"/><rect class="c" x="482" y="34" rx="2" ry="2"/><rect class="c" x="482" y="50" rx="2" ry="2"/><rect class="c" x="482" y="66" rx="2" ry="2"/><rect class="c" x="482" y="82" rx="2" ry="2"/><rect class="c c6" x="482" y="98" rx="2" ry="2"/><rect class="c" x="498" y="2" rx="2" ry="2"/><rect class="c c7" x="498" y="18" rx="2" ry="2"/><rect class="c" x="498" y="34" rx="2" ry="2"/><rect class="c" x="498" y="50" rx="2" ry="2"/><rect class="c" x="498" y="66" rx="2" ry="2"/><rect class="c" x="498" y="82" rx="2" ry="2"/><rect class="c" x="498" y="98" rx="2" ry="2"/><rect class="c c8" x="514" y="2" rx="2" ry="2"/><rect class="c c9" x="514" y="18" rx="2" ry="2"/><rect class="c" x="514" y="34" rx="2" ry="2"/><rect class="c" x="514" y="50" rx="2" ry="2"/><rect class="c" x="514" y="66" rx="2" ry="2"/><rect class="c" x="514" y="82" rx="2" ry="2"/><rect class="c" x="514" y="98" rx="2" ry="2"/><rect class="c" x="530" y="2" rx="2" ry="2"/><rect class="c" x="530" y="18" rx="2" ry="2"/><rect class="c" x="530" y="34" rx="2" ry="2"/><rect class="c" x="530" y="50" rx="2" ry="2"/><rect class="c" x="530" y="66" rx="2" ry="2"/><rect class="c" x="530" y="82" rx="2" ry="2"/><rect class="c" x="530" y="98" rx="2" ry="2"/><rect class="c" x="546" y="2" rx="2" ry="2"/><rect class="c" x="546" y="18" rx="2" ry="2"/><rect class="c" x="546" y="34" rx="2" ry="2"/><rect class="c" x="546" y="50" rx="2" ry="2"/><rect class="c" x="546" y="66" rx="2" ry="2"/><rect class="c" x="546" y="82" rx="2" ry="2"/><rect class="c" x="546" y="98" rx="2" ry="2"/><rect class="c" x="562" y="2" rx="2" ry="2"/><rect class="c" x="562" y="18" rx="2" ry="2"/><rect class="c" x="562" y="34" rx="2" ry="2"/><rect class="c" x="562" y="50" rx="2" ry="2"/><rect class="c" x="562" y="66" rx="2" ry="2"/><rect class="c" x="562" y="82" rx="2" ry="2"/><rect class="c" x="562" y="98" rx="2" ry="2"/><rect class="c" x="578" y="2" rx="2" ry="2"/><rect class="c" x="578" y="18" rx="2" ry="2"/><rect class="c" x="578" y="34" rx="2" ry="2"/><rect class="c" x="578" y="50" rx="2" ry="2"/><rect class="c" x="578" y="66" rx="2" ry="2"/><rect class="c" x="578" y="82" rx="2" ry="2"/><rect class="c" x="578" y="98" rx="2" ry="2"/><rect class="c" x="594" y="2" rx="2" ry="2"/><rect class="c" x="594" y="18" rx="2" ry="2"/><rect class="c" x="594" y="34" rx="2" ry="2"/><rect class="c ca" x="594" y="50" rx="2" ry="2"/><rect class="c cb" x="594" y="66" rx="2" ry="2"/><rect class="c" x="594" y="82" rx="2" ry="2"/><rect class="c cc" x="594" y="98" rx="2" ry="2"/><rect class="c" x="610" y="2" rx="2" ry="2"/><rect class="c cd" x="610" y="18" rx="2" ry="2"/><rect class="c" x="610" y="34" rx="2" ry="2"/><rect class="c ce" x="610" y="50" rx="2" ry="2"/><rect class="c cf" x="610" y="66" rx="2" ry="2"/><rect class="c cg" x="610" y="82" rx="2" ry="2"/><rect class="c" x="610" y="98" rx="2" ry="2"/><rect class="c" x="626" y="2" rx="2" ry="2"/><rect class="c" x="626" y="18" rx="2" ry="2"/><rect class="c" x="626" y="34" rx="2" ry="2"/><rect class="c" x="626" y="50" rx="2" ry="2"/><rect class="c" x="626" y="66" rx="2" ry="2"/><rect class="c" x="626" y="82" rx="2" ry="2"/><rect class="c ch" x="626" y="98" rx="2" ry="2"/><rect class="c" x="642" y="2" rx="2" ry="2"/><rect class="c" x="642" y="18" rx="2" ry="2"/><rect class="c" x="642" y="34" rx="2" ry="2"/><rect class="c" x="642" y="50" rx="2" ry="2"/><rect class="c" x="642" y="66" rx="2" ry="2"/><rect class="c" x="642" y="82" rx="2" ry="2"/><rect class="c" x="642" y="98" rx="2" ry="2"/><rect class="c" x="658" y="2" rx="2" ry="2"/><rect class="c" x="658" y="18" rx="2" ry="2"/><rect class="c" x="658" y="34" rx="2" ry="2"/><rect class="c ci" x="658" y="50" rx="2" ry="2"/><rect class="c" x="658" y="66" rx="2" ry="2"/><rect class="c cj" x="658" y="82" rx="2" ry="2"/><rect class="c ck" x="658" y="98" rx="2" ry="2"/><rect class="c cl" x="674" y="2" rx="2" ry="2"/><rect class="c" x="674" y="18" rx="2" ry="2"/><rect class="c cm" x="674" y="34" rx="2" ry="2"/><rect class="c cn" x="674" y="50" rx="2" ry="2"/><rect class="c" x="674" y="66" rx="2" ry="2"/><rect class="c" x="674" y="82" rx="2" ry="2"/><rect class="c co" x="674" y="98" rx="2" ry="2"/><rect class="c cp" x="690" y="2" rx="2" ry="2"/><rect class="c cq" x="690" y="18" rx="2" ry="2"/><rect class="c cr" x="690" y="34" rx="2" ry="2"/><rect class="c cs" x="690" y="50" rx="2" ry="2"/><rect class="c ct" x="690" y="66" rx="2" ry="2"/><rect class="c cu" x="690" y="82" rx="2" ry="2"/><rect class="c cv" x="690" y="98" rx="2" ry="2"/><rect class="c cw" x="706" y="2" rx="2" ry="2"/><rect class="c" x="706" y="18" rx="2" ry="2"/><rect class="c cx" x="706" y="34" rx="2" ry="2"/><rect class="c cy" x="706" y="50" rx="2" ry="2"/><rect class="c cz" x="706" y="66" rx="2" ry="2"/><rect class="c" x="706" y="82" rx="2" ry="2"/><rect class="c" x="706" y="98" rx="2" ry="2"/><rect class="c c10" x="722" y="2" rx="2" ry="2"/><rect class="c c11" x="722" y="18" rx="2" ry="2"/><rect class="c" x="722" y="34" rx="2" ry="2"/><rect class="c" x="722" y="50" rx="2" ry="2"/><rect class="c c12" x="722" y="66" rx="2" ry="2"/><rect class="c c13" x="722" y="82" rx="2" ry="2"/><rect class="c c14" x="722" y="98" rx="2" ry="2"/><rect class="c c15" x="738" y="2" rx="2" ry="2"/><rect class="c" x="738" y="18" rx="2" ry="2"/><rect class="c" x="738" y="34" rx="2" ry="2"/><rect class="c c16" x="738" y="50" rx="2" ry="2"/><rect class="c c17" x="738" y="66" rx="2" ry="2"/><rect class="c" x="738" y="82" rx="2" ry="2"/><rect class="c c18" x="738" y="98" rx="2" ry="2"/><rect class="c c19" x="754" y="2" rx="2" ry="2"/><rect class="c c1a" x="754" y="18" rx="2" ry="2"/><rect class="c c1b" x="754" y="34" rx="2" ry="2"/><rect class="c c1c" x="754" y="50" rx="2" ry="2"/><rect class="c c1d" x="754" y="66" rx="2" ry="2"/><rect class="c" x="754" y="82" rx="2" ry="2"/><rect class="c" x="754" y="98" rx="2" ry="2"/><rect class="c" x="770" y="2" rx="2" ry="2"/><rect class="c" x="770" y="18" rx="2" ry="2"/><rect class="c" x="770" y="34" rx="2" ry="2"/><rect class="c c1e" x="770" y="50" rx="2" ry="2"/><rect class="c" x="770" y="66" rx="2" ry="2"/><rect class="c" x="770" y="82" rx="2" ry="2"/><rect class="c" x="770" y="98" rx="2" ry="2"/><rect class="c" x="786" y="2" rx="2" ry="2"/><rect class="c" x="786" y="18" rx="2" ry="2"/><rect class="c c1f" x="786" y="34" rx="2" ry="2"/><rect class="c" x="786" y="50" rx="2" ry="2"/><rect class="c c1g" x="786" y="66" rx="2" ry="2"/><rect class="c" x="786" y="82" rx="2" ry="2"/><rect class="c" x="786" y="98" rx="2" ry="2"/><rect class="c" x="802" y="2" rx="2" ry="2"/><rect class="c" x="802" y="18" rx="2" ry="2"/><rect class="c c1h" x="802" y="34" rx="2" ry="2"/><rect class="c c1i" x="802" y="50" rx="2" ry="2"/><rect class="c" x="802" y="66" rx="2" ry="2"/><rect class="c" x="802" y="82" rx="2" ry="2"/><rect class="c" x="802" y="98" rx="2" ry="2"/><rect class="c" x="818" y="2" rx="2" ry="2"/><rect class="c" x="818" y="18" rx="2" ry="2"/><rect class="c" x="818" y="34" rx="2" ry="2"/><rect class="c c1j" x="818" y="50" rx="2" ry="2"/><rect class="c" x="818" y="66" rx="2" ry="2"/><rect class="c c1k" x="818" y="82" rx="2" ry="2"/><rect class="c c1l" x="818" y="98" rx="2" ry="2"/><rect class="c c1m" x="834" y="2" rx="2" ry="2"/><rect class="c c1n" x="834" y="18" rx="2" ry="2"/><rect class="c c1o" x="834" y="34" rx="2" ry="2"/><rect class="c c1p" x="834" y="50" rx="2" ry="2"/><rect class="c" x="834" y="66" rx="2" ry="2"/><rect class="u u0" height="12" width="465.6" x="0.0" y="144"/><rect class="u u1" height="12" width="14.3" x="465.0" y="144"/><rect class="u u2" height="12" width="14.3" x="478.7" y="144"/><rect class="u u3" height="12" width="233.1" x="492.4" y="144"/><rect class="u u4" height="12" width="69.0" x="724.9" y="144"/><rect class="u u5" height="12" width="55.3" x="793.3" y="144"/><rect class="s s0" x="0.8" y="0.8" width="14.4" height="14.4" rx="4.5" ry="4.5"/><rect class="s s1" x="1.8" y="1.8" width="12.3" height="12.3" rx="4.1" ry="4.1"/><rect class="s s2" x="2.6" y="2.6" width="10.8" height="10.8" rx="3.6" ry="3.6"/><rect class="s s3" x="3.0" y="3.0" width="9.9" height="9.9" rx="3.3" ry="3.3"/></svg>