<svg viewBox="-16 -32 880 192" width="880" height="192" xmlns="http://www.w3.org/2000/svg"><desc>Generated with https://github.com/Platane/snk</desc><style>:root{--cb:#1b1f230a;--cs:purple;--ce:#ebedf0;--c0:#ebedf0;--c1:#9be9a8;--c2:#40c463;--c3:#30a14e;--c4:#216e39}.c{shape-rendering:geometricPrecision;fill:var(--ce);stroke-width:1px;stroke:var(--cb);animation:none 21700ms linear infinite;width:12px;height:12px}@keyframes c0{4.6%{fill:var(--c1)}4.62%,100%{fill:var(--ce)}}.c.c0{fill:var(--c1);animation-name:c0}@keyframes c1{5.52%{fill:var(--c1)}5.54%,100%{fill:var(--ce)}}.c.c1{fill:var(--c1);animation-name:c1}@keyframes c2{6.9%{fill:var(--c1)}6.92%,100%{fill:var(--ce)}}.c.c2{fill:var(--c1);animation-name:c2}@keyframes c3{14.74%{fill:var(--c1)}14.76%,100%{fill:var(--ce)}}.c.c3{fill:var(--c1);animation-name:c3}@keyframes c4{18.88%{fill:var(--c1)}18.9%,100%{fill:var(--ce)}}.c.c4{fill:var(--c1);animation-name:c4}@keyframes c5{46.07%{fill:var(--c2)}46.09%,100%{fill:var(--ce)}}.c.c5{fill:var(--c2);animation-name:c5}@keyframes c6{43.77%{fill:var(--c1)}43.79%,100%{fill:var(--ce)}}.c.c6{fill:var(--c1);animation-name:c6}@keyframes c7{21.65%{fill:var(--c1)}21.67%,100%{fill:var(--ce)}}.c.c7{fill:var(--c1);animation-name:c7}@keyframes c8{22.57%{fill:var(--c1)}22.59%,100%{fill:var(--ce)}}.c.c8{fill:var(--c1);animation-name:c8}@keyframes c9{22.11%{fill:var(--c1)}22.13%,100%{fill:var(--ce)}}.c.c9{fill:var(--c1);animation-name:c9}@keyframes ca{28.1%{fill:var(--c1)}28.12%,100%{fill:var(--ce)}}.c.ca{fill:var(--c1);animation-name:ca}@keyframes cb{28.56%{fill:var(--c1)}28.58%,100%{fill:var(--ce)}}.c.cb{fill:var(--c1);animation-name:cb}@keyframes cc{40.54%{fill:var(--c1)}40.56%,100%{fill:var(--ce)}}.c.cc{fill:var(--c1);animation-name:cc}@keyframes cd{26.72%{fill:var(--c1)}26.74%,100%{fill:var(--ce)}}.c.cd{fill:var(--c1);animation-name:cd}@keyframes ce{27.64%{fill:var(--c1)}27.66%,100%{fill:var(--ce)}}.c.ce{fill:var(--c1);animation-name:ce}@keyframes cf{69.58%{fill:var(--c3)}69.6%,100%{fill:var(--ce)}}.c.cf{fill:var(--c3);animation-name:cf}@keyframes cg{29.48%{fill:var(--c1)}29.5%,100%{fill:var(--ce)}}.c.cg{fill:var(--c1);animation-name:cg}@keyframes ch{52.06%{fill:var(--c2)}52.08%,100%{fill:var(--ce)}}.c.ch{fill:var(--c2);animation-name:ch}@keyframes ci{25.8%{fill:var(--c1)}25.82%,100%{fill:var(--ce)}}.c.ci{fill:var(--c1);animation-name:ci}@keyframes cj{30.4%{fill:var(--c1)}30.42%,100%{fill:var(--ce)}}.c.cj{fill:var(--c1);animation-name:cj}@keyframes ck{59.44%{fill:var(--c2)}59.46%,100%{fill:var(--ce)}}.c.ck{fill:var(--c2);animation-name:ck}@keyframes cl{31.79%{fill:var(--c1)}31.81%,100%{fill:var(--ce)}}.c.cl{fill:var(--c1);animation-name:cl}@keyframes cm{71.88%{fill:var(--c4)}71.9%,100%{fill:var(--ce)}}.c.cm{fill:var(--c4);animation-name:cm}@keyframes cn{76.03%{fill:var(--c4)}76.05%,100%{fill:var(--ce)}}.c.cn{fill:var(--c4);animation-name:cn}@keyframes co{64.05%{fill:var(--c3)}64.07%,100%{fill:var(--ce)}}.c.co{fill:var(--c3);animation-name:co}@keyframes cp{36.86%{fill:var(--c1)}36.88%,100%{fill:var(--ce)}}.c.cp{fill:var(--c1);animation-name:cp}@keyframes cq{54.83%{fill:var(--c2)}54.85%,100%{fill:var(--ce)}}.c.cq{fill:var(--c2);animation-name:cq}@keyframes cr{61.74%{fill:var(--c2)}61.76%,100%{fill:var(--ce)}}.c.cr{fill:var(--c2);animation-name:cr}@keyframes cs{61.28%{fill:var(--c2)}61.3%,100%{fill:var(--ce)}}.c.cs{fill:var(--c2);animation-name:cs}@keyframes ct{74.64%{fill:var(--c4)}74.66%,100%{fill:var(--ce)}}.c.ct{fill:var(--c4);animation-name:ct}@keyframes cu{36.4%{fill:var(--c1)}36.42%,100%{fill:var(--ce)}}.c.cu{fill:var(--c1);animation-name:cu}@keyframes cv{58.05%{fill:var(--c2)}58.07%,100%{fill:var(--ce)}}.c.cv{fill:var(--c2);animation-name:cv}@keyframes cw{32.71%{fill:var(--c1)}32.73%,100%{fill:var(--ce)}}.c.cw{fill:var(--c1);animation-name:cw}@keyframes cx{66.35%{fill:var(--c3)}66.37%,100%{fill:var(--ce)}}.c.cx{fill:var(--c3);animation-name:cx}@keyframes cy{62.2%{fill:var(--c3)}62.22%,100%{fill:var(--ce)}}.c.cy{fill:var(--c3);animation-name:cy}@keyframes cz{34.55%{fill:var(--c1)}34.57%,100%{fill:var(--ce)}}.c.cz{fill:var(--c1);animation-name:cz}.u{transform-origin:0 0;transform:scale(0,1);animation:none linear 21700ms infinite}@keyframes u0{4.6%{transform:scale(0.000,1)}4.62%,5.52%{transform:scale(0.045,1)}5.54%,6.9%{transform:scale(0.091,1)}6.92%,14.74%{transform:scale(0.136,1)}14.76%,18.88%{transform:scale(0.182,1)}18.9%,21.65%{transform:scale(0.227,1)}21.67%,22.11%{transform:scale(0.273,1)}22.13%,22.57%{transform:scale(0.318,1)}22.59%,25.8%{transform:scale(0.364,1)}25.82%,26.72%{transform:scale(0.409,1)}26.74%,27.64%{transform:scale(0.455,1)}27.66%,28.1%{transform:scale(0.500,1)}28.12%,28.56%{transform:scale(0.545,1)}28.58%,29.48%{transform:scale(0.591,1)}29.5%,30.4%{transform:scale(0.636,1)}30.42%,31.79%{transform:scale(0.682,1)}31.81%,32.71%{transform:scale(0.727,1)}32.73%,34.55%{transform:scale(0.773,1)}34.57%,36.4%{transform:scale(0.818,1)}36.42%,36.86%{transform:scale(0.864,1)}36.88%,40.54%{transform:scale(0.909,1)}40.56%,43.77%{transform:scale(0.955,1)}43.79%,100%{transform:scale(1.000,1)}}.u.u0{fill:var(--c1);animation-name:u0;transform-origin:0.0px 0}@keyframes u1{46.07%{transform:scale(0.000,1)}46.09%,52.06%{transform:scale(0.143,1)}52.08%,54.83%{transform:scale(0.286,1)}54.85%,58.05%{transform:scale(0.429,1)}58.07%,59.44%{transform:scale(0.571,1)}59.46%,61.28%{transform:scale(0.714,1)}61.3%,61.74%{transform:scale(0.857,1)}61.76%,100%{transform:scale(1.000,1)}}.u.u1{fill:var(--c2);animation-name:u1;transform-origin:518.2px 0}@keyframes u2{62.2%{transform:scale(0.000,1)}62.22%,64.05%{transform:scale(0.250,1)}64.07%,66.35%{transform:scale(0.500,1)}66.37%,69.58%{transform:scale(0.750,1)}69.6%,100%{transform:scale(1.000,1)}}.u.u2{fill:var(--c3);animation-name:u2;transform-origin:683.1px 0}@keyframes u3{71.88%{transform:scale(0.000,1)}71.9%,74.64%{transform:scale(0.333,1)}74.66%,76.03%{transform:scale(0.667,1)}76.05%,100%{transform:scale(1.000,1)}}.u.u3{fill:var(--c4);animation-name:u3;transform-origin:777.3px 0}.s{shape-rendering:geometricPrecision;fill:var(--cs);animation:none linear 21700ms infinite}@keyframes s0{0%,99.54%{transform:translate(0px,-16px)}0.46%{transform:translate(0px,0px)}5.07%{transform:translate(160px,0px)}5.53%{transform:translate(160px,16px)}6.45%{transform:translate(192px,16px)}6.91%{transform:translate(192px,0px)}14.29%{transform:translate(448px,0px)}14.75%{transform:translate(448px,16px)}17.97%{transform:translate(560px,16px)}18.89%{transform:translate(560px,48px)}20.74%{transform:translate(624px,48px)}21.66%{transform:translate(624px,16px)}22.12%{transform:translate(640px,16px)}22.58%{transform:translate(640px,0px)}25.81%{transform:translate(752px,0px)}26.27%{transform:translate(752px,16px)}26.73%{transform:translate(736px,16px)}27.65%{transform:translate(736px,48px)}28.11%{transform:translate(720px,48px)}29.03%,40.09%{transform:translate(720px,80px)}29.95%,39.17%{transform:translate(752px,80px)}30.41%{transform:translate(752px,96px)}30.88%,53%{transform:translate(768px,96px)}31.34%,53.46%{transform:translate(768px,80px)}33.18%{transform:translate(832px,80px)}34.56%{transform:translate(832px,32px)}35.02%{transform:translate(848px,32px)}35.48%{transform:translate(848px,48px)}36.87%,64.52%{transform:translate(800px,48px)}37.33%,67.74%{transform:translate(800px,64px)}38.71%{transform:translate(752px,64px)}40.55%{transform:translate(720px,96px)}43.78%{transform:translate(608px,96px)}44.7%{transform:translate(608px,64px)}46.08%{transform:translate(560px,64px)}46.54%{transform:translate(560px,80px)}51.61%,70.05%{transform:translate(736px,80px)}52.07%{transform:translate(736px,96px)}54.38%{transform:translate(800px,80px)}55.3%{transform:translate(800px,112px)}56.22%{transform:translate(832px,112px)}57.6%{transform:translate(832px,64px)}58.06%{transform:translate(816px,64px)}58.53%,64.98%{transform:translate(816px,48px)}59.45%{transform:translate(784px,48px)}60.37%{transform:translate(784px,16px)}61.29%{transform:translate(816px,16px)}61.75%,75.58%{transform:translate(816px,0px)}62.21%{transform:translate(832px,0px)}62.67%{transform:translate(832px,16px)}63.59%{transform:translate(800px,16px)}66.36%,72.81%{transform:translate(816px,96px)}66.82%{transform:translate(800px,96px)}69.59%{transform:translate(736px,64px)}71.43%{transform:translate(784px,80px)}71.89%{transform:translate(784px,96px)}97.7%{transform:translate(48px,0px)}98.16%{transform:translate(48px,-16px)}}.s.s0{transform:translate(0px,-16px);animation-name:s0}@keyframes s1{0%,99.54%{transform:translate(16px,-16px)}0.46%{transform:translate(0px,-16px)}0.92%{transform:translate(0px,0px)}5.53%{transform:translate(160px,0px)}5.99%{transform:translate(160px,16px)}6.91%{transform:translate(192px,16px)}7.37%{transform:translate(192px,0px)}14.75%{transform:translate(448px,0px)}15.21%{transform:translate(448px,16px)}18.43%{transform:translate(560px,16px)}19.35%{transform:translate(560px,48px)}21.2%{transform:translate(624px,48px)}22.12%{transform:translate(624px,16px)}22.58%{transform:translate(640px,16px)}23.04%{transform:translate(640px,0px)}26.27%{transform:translate(752px,0px)}26.73%{transform:translate(752px,16px)}27.19%{transform:translate(736px,16px)}28.11%{transform:translate(736px,48px)}28.57%{transform:translate(720px,48px)}29.49%,40.55%{transform:translate(720px,80px)}30.41%,39.63%{transform:translate(752px,80px)}30.88%{transform:translate(752px,96px)}31.34%,53.46%{transform:translate(768px,96px)}31.8%,53.92%{transform:translate(768px,80px)}33.64%{transform:translate(832px,80px)}35.02%{transform:translate(832px,32px)}35.48%{transform:translate(848px,32px)}35.94%{transform:translate(848px,48px)}37.33%,64.98%{transform:translate(800px,48px)}37.79%,68.2%{transform:translate(800px,64px)}39.17%{transform:translate(752px,64px)}41.01%{transform:translate(720px,96px)}44.24%{transform:translate(608px,96px)}45.16%{transform:translate(608px,64px)}46.54%{transform:translate(560px,64px)}47%{transform:translate(560px,80px)}52.07%,70.51%{transform:translate(736px,80px)}52.53%{transform:translate(736px,96px)}54.84%{transform:translate(800px,80px)}55.76%{transform:translate(800px,112px)}56.68%{transform:translate(832px,112px)}58.06%{transform:translate(832px,64px)}58.53%{transform:translate(816px,64px)}58.99%,65.44%{transform:translate(816px,48px)}59.91%{transform:translate(784px,48px)}60.83%{transform:translate(784px,16px)}61.75%{transform:translate(816px,16px)}62.21%,76.04%{transform:translate(816px,0px)}62.67%{transform:translate(832px,0px)}63.13%{transform:translate(832px,16px)}64.06%{transform:translate(800px,16px)}66.82%,73.27%{transform:translate(816px,96px)}67.28%{transform:translate(800px,96px)}70.05%{transform:translate(736px,64px)}71.89%{transform:translate(784px,80px)}72.35%{transform:translate(784px,96px)}98.16%{transform:translate(48px,0px)}98.62%{transform:translate(48px,-16px)}}.s.s1{transform:translate(16px,-16px);animation-name:s1}@keyframes s2{0%,99.54%{transform:translate(32px,-16px)}0.92%{transform:translate(0px,-16px)}1.38%{transform:translate(0px,0px)}5.99%{transform:translate(160px,0px)}6.45%{transform:translate(160px,16px)}7.37%{transform:translate(192px,16px)}7.83%{transform:translate(192px,0px)}15.21%{transform:translate(448px,0px)}15.67%{transform:translate(448px,16px)}18.89%{transform:translate(560px,16px)}19.82%{transform:translate(560px,48px)}21.66%{transform:translate(624px,48px)}22.58%{transform:translate(624px,16px)}23.04%{transform:translate(640px,16px)}23.5%{transform:translate(640px,0px)}26.73%{transform:translate(752px,0px)}27.19%{transform:translate(752px,16px)}27.65%{transform:translate(736px,16px)}28.57%{transform:translate(736px,48px)}29.03%{transform:translate(720px,48px)}29.95%,41.01%{transform:translate(720px,80px)}30.88%,40.09%{transform:translate(752px,80px)}31.34%{transform:translate(752px,96px)}31.8%,53.92%{transform:translate(768px,96px)}32.26%,54.38%{transform:translate(768px,80px)}34.1%{transform:translate(832px,80px)}35.48%{transform:translate(832px,32px)}35.94%{transform:translate(848px,32px)}36.41%{transform:translate(848px,48px)}37.79%,65.44%{transform:translate(800px,48px)}38.25%,68.66%{transform:translate(800px,64px)}39.63%{transform:translate(752px,64px)}41.47%{transform:translate(720px,96px)}44.7%{transform:translate(608px,96px)}45.62%{transform:translate(608px,64px)}47%{transform:translate(560px,64px)}47.47%{transform:translate(560px,80px)}52.53%,70.97%{transform:translate(736px,80px)}53%{transform:translate(736px,96px)}55.3%{transform:translate(800px,80px)}56.22%{transform:translate(800px,112px)}57.14%{transform:translate(832px,112px)}58.53%{transform:translate(832px,64px)}58.99%{transform:translate(816px,64px)}59.45%,65.9%{transform:translate(816px,48px)}60.37%{transform:translate(784px,48px)}61.29%{transform:translate(784px,16px)}62.21%{transform:translate(816px,16px)}62.67%,76.5%{transform:translate(816px,0px)}63.13%{transform:translate(832px,0px)}63.59%{transform:translate(832px,16px)}64.52%{transform:translate(800px,16px)}67.28%,73.73%{transform:translate(816px,96px)}67.74%{transform:translate(800px,96px)}70.51%{transform:translate(736px,64px)}72.35%{transform:translate(784px,80px)}72.81%{transform:translate(784px,96px)}98.62%{transform:translate(48px,0px)}99.08%{transform:translate(48px,-16px)}}.s.s2{transform:translate(32px,-16px);animation-name:s2}@keyframes s3{0%,99.54%{transform:translate(48px,-16px)}1.38%{transform:translate(0px,-16px)}1.84%{transform:translate(0px,0px)}6.45%{transform:translate(160px,0px)}6.91%{transform:translate(160px,16px)}7.83%{transform:translate(192px,16px)}8.29%{transform:translate(192px,0px)}15.67%{transform:translate(448px,0px)}16.13%{transform:translate(448px,16px)}19.35%{transform:translate(560px,16px)}20.28%{transform:translate(560px,48px)}22.12%{transform:translate(624px,48px)}23.04%{transform:translate(624px,16px)}23.5%{transform:translate(640px,16px)}23.96%{transform:translate(640px,0px)}27.19%{transform:translate(752px,0px)}27.65%{transform:translate(752px,16px)}28.11%{transform:translate(736px,16px)}29.03%{transform:translate(736px,48px)}29.49%{transform:translate(720px,48px)}30.41%,41.47%{transform:translate(720px,80px)}31.34%,40.55%{transform:translate(752px,80px)}31.8%{transform:translate(752px,96px)}32.26%,54.38%{transform:translate(768px,96px)}32.72%,54.84%{transform:translate(768px,80px)}34.56%{transform:translate(832px,80px)}35.94%{transform:translate(832px,32px)}36.41%{transform:translate(848px,32px)}36.87%{transform:translate(848px,48px)}38.25%,65.9%{transform:translate(800px,48px)}38.71%,69.12%{transform:translate(800px,64px)}40.09%{transform:translate(752px,64px)}41.94%{transform:translate(720px,96px)}45.16%{transform:translate(608px,96px)}46.08%{transform:translate(608px,64px)}47.47%{transform:translate(560px,64px)}47.93%{transform:translate(560px,80px)}53%,71.43%{transform:translate(736px,80px)}53.46%{transform:translate(736px,96px)}55.76%{transform:translate(800px,80px)}56.68%{transform:translate(800px,112px)}57.6%{transform:translate(832px,112px)}58.99%{transform:translate(832px,64px)}59.45%{transform:translate(816px,64px)}59.91%,66.36%{transform:translate(816px,48px)}60.83%{transform:translate(784px,48px)}61.75%{transform:translate(784px,16px)}62.67%{transform:translate(816px,16px)}63.13%,76.96%{transform:translate(816px,0px)}63.59%{transform:translate(832px,0px)}64.06%{transform:translate(832px,16px)}64.98%{transform:translate(800px,16px)}67.74%,74.19%{transform:translate(816px,96px)}68.2%{transform:translate(800px,96px)}70.97%{transform:translate(736px,64px)}72.81%{transform:translate(784px,80px)}73.27%{transform:translate(784px,96px)}99.08%{transform:translate(48px,0px)}}.s.s3{transform:translate(48px,-16px);animation-name:s3}</style><rect class="c" x="2" y="2" rx="2" ry="2"/><rect class="c" x="2" y="18" rx="2" ry="2"/><rect class="c" x="2" y="34" rx="2" ry="2"/><rect class="c" x="2" y="50" rx="2" ry="2"/><rect class="c" x="2" y="66" rx="2" ry="2"/><rect class="c" x="2" y="82" rx="2" ry="2"/><rect class="c" x="2" y="98" rx="2" ry="2"/><rect class="c" x="18" y="2" rx="2" ry="2"/><rect class="c" x="18" y="18" rx="2" ry="2"/><rect class="c" x="18" y="34" rx="2" ry="2"/><rect class="c" x="18" y="50" rx="2" ry="2"/><rect class="c" x="18" y="66" rx="2" ry="2"/><rect class="c" x="18" y="82" rx="2" ry="2"/><rect class="c" x="18" y="98" rx="2" ry="2"/><rect class="c" x="34" y="2" rx="2" ry="2"/><rect class="c" x="34" y="18" rx="2" ry="2"/><rect class="c" x="34" y="34" rx="2" ry="2"/><rect class="c" x="34" y="50" rx="2" ry="2"/><rect class="c" x="34" y="66" rx="2" ry="2"/><rect class="c" x="34" y="82" rx="2" ry="2"/><rect class="c" x="34" y="98" rx="2" ry="2"/><rect class="c" x="50" y="2" rx="2" ry="2"/><rect class="c" x="50" y="18" rx="2" ry="2"/><rect class="c" x="50" y="34" rx="2" ry="2"/><rect class="c" x="50" y="50" rx="2" ry="2"/><rect class="c" x="50" y="66" rx="2" ry="2"/><rect class="c" x="50" y="82" rx="2" ry="2"/><rect class="c" x="50" y="98" rx="2" ry="2"/><rect class="c" x="66" y="2" rx="2" ry="2"/><rect class="c" x="66" y="18" rx="2" ry="2"/><rect class="c" x="66" y="34" rx="2" ry="2"/><rect class="c" x="66" y="50" rx="2" ry="2"/><rect class="c" x="66" y="66" rx="2" ry="2"/><rect class="c" x="66" y="82" rx="2" ry="2"/><rect class="c" x="66" y="98" rx="2" ry="2"/><rect class="c" x="82" y="2" rx="2" ry="2"/><rect class="c" x="82" y="18" rx="2" ry="2"/><rect class="c" x="82" y="34" rx="2" ry="2"/><rect class="c" x="82" y="50" rx="2" ry="2"/><rect class="c" x="82" y="66" rx="2" ry="2"/><rect class="c" x="82" y="82" rx="2" ry="2"/><rect class="c" x="82" y="98" rx="2" ry="2"/><rect class="c" x="98" y="2" rx="2" ry="2"/><rect class="c" x="98" y="18" rx="2" ry="2"/><rect class="c" x="98" y="34" rx="2" ry="2"/><rect class="c" x="98" y="50" rx="2" ry="2"/><rect class="c" x="98" y="66" rx="2" ry="2"/><rect class="c" x="98" y="82" rx="2" ry="2"/><rect class="c" x="98" y="98" rx="2" ry="2"/><rect class="c" x="114" y="2" rx="2" ry="2"/><rect class="c" x="114" y="18" rx="2" ry="2"/><rect class="c" x="114" y="34" rx="2" ry="2"/><rect class="c" x="114" y="50" rx="2" ry="2"/><rect class="c" x="114" y="66" rx="2" ry="2"/><rect class="c" x="114" y="82" rx="2" ry="2"/><rect class="c" x="114" y="98" rx="2" ry="2"/><rect class="c" x="130" y="2" rx="2" ry="2"/><rect class="c" x="130" y="18" rx="2" ry="2"/><rect class="c" x="130" y="34" rx="2" ry="2"/><rect class="c" x="130" y="50" rx="2" ry="2"/><rect class="c" x="130" y="66" rx="2" ry="2"/><rect class="c" x="130" y="82" rx="2" ry="2"/><rect class="c" x="130" y="98" rx="2" ry="2"/><rect class="c c0" x="146" y="2" rx="2" ry="2"/><rect class="c" x="146" y="18" rx="2" ry="2"/><rect class="c" x="146" y="34" rx="2" ry="2"/><rect class="c" x="146" y="50" rx="2" ry="2"/><rect class="c" x="146" y="66" rx="2" ry="2"/><rect class="c" x="146" y="82" rx="2" ry="2"/><rect class="c" x="146" y="98" rx="2" ry="2"/><rect class="c" x="162" y="2" rx="2" ry="2"/><rect class="c c1" x="162" y="18" rx="2" ry="2"/><rect class="c" x="162" y="34" rx="2" ry="2"/><rect class="c" x="162" y="50" rx="2" ry="2"/><rect class="c" x="162" y="66" rx="2" ry="2"/><rect class="c" x="162" y="82" rx="2" ry="2"/><rect class="c" x="162" y="98" rx="2" ry="2"/><rect class="c" x="178" y="2" rx="2" ry="2"/><rect class="c" x="178" y="18" rx="2" ry="2"/><rect class="c" x="178" y="34" rx="2" ry="2"/><rect class="c" x="178" y="50" rx="2" ry="2"/><rect class="c" x="178" y="66" rx="2" ry="2"/><rect class="c" x="178" y="82" rx="2" ry="2"/><rect class="c" x="178" y="98" rx="2" ry="2"/><rect class="c c2" x="194" y="2" rx="2" ry="2"/><rect class="c" x="194" y="18" rx="2" ry="2"/><rect class="c" x="194" y="34" rx="2" ry="2"/><rect class="c" x="194" y="50" rx="2" ry="2"/><rect class="c" x="194" y="66" rx="2" ry="2"/><rect class="c" x="194" y="82" rx="2" ry="2"/><rect class="c" x="194" y="98" rx="2" ry="2"/><rect class="c" x="210" y="2" rx="2" ry="2"/><rect class="c" x="210" y="18" rx="2" ry="2"/><rect class="c" x="210" y="34" rx="2" ry="2"/><rect class="c" x="210" y="50" rx="2" ry="2"/><rect class="c" x="210" y="66" rx="2" ry="2"/><rect class="c" x="210" y="82" rx="2" ry="2"/><rect class="c" x="210" y="98" rx="2" ry="2"/><rect class="c" x="226" y="2" rx="2" ry="2"/><rect class="c" x="226" y="18" rx="2" ry="2"/><rect class="c" x="226" y="34" rx="2" ry="2"/><rect class="c" x="226" y="50" rx="2" ry="2"/><rect class="c" x="226" y="66" rx="2" ry="2"/><rect class="c" x="226" y="82" rx="2" ry="2"/><rect class="c" x="226" y="98" rx="2" ry="2"/><rect class="c" x="242" y="2" rx="2" ry="2"/><rect class="c" x="242" y="18" rx="2" ry="2"/><rect class="c" x="242" y="34" rx="2" ry="2"/><rect class="c" x="242" y="50" rx="2" ry="2"/><rect class="c" x="242" y="66" rx="2" ry="2"/><rect class="c" x="242" y="82" rx="2" ry="2"/><rect class="c" x="242" y="98" rx="2" ry="2"/><rect class="c" x="258" y="2" rx="2" ry="2"/><rect class="c" x="258" y="18" rx="2" ry="2"/><rect class="c" x="258" y="34" rx="2" ry="2"/><rect class="c" x="258" y="50" rx="2" ry="2"/><rect class="c" x="258" y="66" rx="2" ry="2"/><rect class="c" x="258" y="82" rx="2" ry="2"/><rect class="c" x="258" y="98" rx="2" ry="2"/><rect class="c" x="274" y="2" rx="2" ry="2"/><rect class="c" x="274" y="18" rx="2" ry="2"/><rect class="c" x="274" y="34" rx="2" ry="2"/><rect class="c" x="274" y="50" rx="2" ry="2"/><rect class="c" x="274" y="66" rx="2" ry="2"/><rect class="c" x="274" y="82" rx="2" ry="2"/><rect class="c" x="274" y="98" rx="2" ry="2"/><rect class="c" x="290" y="2" rx="2" ry="2"/><rect class="c" x="290" y="18" rx="2" ry="2"/><rect class="c" x="290" y="34" rx="2" ry="2"/><rect class="c" x="290" y="50" rx="2" ry="2"/><rect class="c" x="290" y="66" rx="2" ry="2"/><rect class="c" x="290" y="82" rx="2" ry="2"/><rect class="c" x="290" y="98" rx="2" ry="2"/><rect class="c" x="306" y="2" rx="2" ry="2"/><rect class="c" x="306" y="18" rx="2" ry="2"/><rect class="c" x="306" y="34" rx="2" ry="2"/><rect class="c" x="306" y="50" rx="2" ry="2"/><rect class="c" x="306" y="66" rx="2" ry="2"/><rect class="c" x="306" y="82" rx="2" ry="2"/><rect class="c" x="306" y="98" rx="2" ry="2"/><rect class="c" x="322" y="2" rx="2" ry="2"/><rect class="c" x="322" y="18" rx="2" ry="2"/><rect class="c" x="322" y="34" rx="2" ry="2"/><rect class="c" x="322" y="50" rx="2" ry="2"/><rect class="c" x="322" y="66" rx="2" ry="2"/><rect class="c" x="322" y="82" rx="2" ry="2"/><rect class="c" x="322" y="98" rx="2" ry="2"/><rect class="c" x="338" y="2" rx="2" ry="2"/><rect class="c" x="338" y="18" rx="2" ry="2"/><rect class="c" x="338" y="34" rx="2" ry="2"/><rect class="c" x="338" y="50" rx="2" ry="2"/><rect class="c" x="338" y="66" rx="2" ry="2"/><rect class="c" x="338" y="82" rx="2" ry="2"/><rect class="c" x="338" y="98" rx="2" ry="2"/><rect class="c" x="354" y="2" rx="2" ry="2"/><rect class="c" x="354" y="18" rx="2" ry="2"/><rect class="c" x="354" y="34" rx="2" ry="2"/><rect class="c" x="354" y="50" rx="2" ry="2"/><rect class="c" x="354" y="66" rx="2" ry="2"/><rect class="c" x="354" y="82" rx="2" ry="2"/><rect class="c" x="354" y="98" rx="2" ry="2"/><rect class="c" x="370" y="2" rx="2" ry="2"/><rect class="c" x="370" y="18" rx="2" ry="2"/><rect class="c" x="370" y="34" rx="2" ry="2"/><rect class="c" x="370" y="50" rx="2" ry="2"/><rect class="c" x="370" y="66" rx="2" ry="2"/><rect class="c" x="370" y="82" rx="2" ry="2"/><rect class="c" x="370" y="98" rx="2" ry="2"/><rect class="c" x="386" y="2" rx="2" ry="2"/><rect class="c" x="386" y="18" rx="2" ry="2"/><rect class="c" x="386" y="34" rx="2" ry="2"/><rect class="c" x="386" y="50" rx="2" ry="2"/><rect class="c" x="386" y="66" rx="2" ry="2"/><rect class="c" x="386" y="82" rx="2" ry="2"/><rect class="c" x="386" y="98" rx="2" ry="2"/><rect class="c" x="402" y="2" rx="2" ry="2"/><rect class="c" x="402" y="18" rx="2" ry="2"/><rect class="c" x="402" y="34" rx="2" ry="2"/><rect class="c" x="402" y="50" rx="2" ry="2"/><rect class="c" x="402" y="66" rx="2" ry="2"/><rect class="c" x="402" y="82" rx="2" ry="2"/><rect class="c" x="402" y="98" rx="2" ry="2"/><rect class="c" x="418" y="2" rx="2" ry="2"/><rect class="c" x="418" y="18" rx="2" ry="2"/><rect class="c" x="418" y="34" rx="2" ry="2"/><rect class="c" x="418" y="50" rx="2" ry="2"/><rect class="c" x="418" y="66" rx="2" ry="2"/><rect class="c" x="418" y="82" rx="2" ry="2"/><rect class="c" x="418" y="98" rx="2" ry="2"/><rect class="c" x="434" y="2" rx="2" ry="2"/><rect class="c" x="434" y="18" rx="2" ry="2"/><rect class="c" x="434" y="34" rx="2" ry="2"/><rect class="c" x="434" y="50" rx="2" ry="2"/><rect class="c" x="434" y="66" rx="2" ry="2"/><rect class="c" x="434" y="82" rx="2" ry="2"/><rect class="c" x="434" y="98" rx="2" ry="2"/><rect class="c" x="450" y="2" rx="2" ry="2"/><rect class="c c3" x="450" y="18" rx="2" ry="2"/><rect class="c" x="450" y="34" rx="2" ry="2"/><rect class="c" x="450" y="50" rx="2" ry="2"/><rect class="c" x="450" y="66" rx="2" ry="2"/><rect class="c" x="450" y="82" rx="2" ry="2"/><rect class="c" x="450" y="98" rx="2" ry="2"/><rect class="c" x="466" y="2" rx="2" ry="2"/><rect class="c" x="466" y="18" rx="2" ry="2"/><rect class="c" x="466" y="34" rx="2" ry="2"/><rect class="c" x="466" y="50" rx="2" ry="2"/><rect class="c" x="466" y="66" rx="2" ry="2"/><rect class="c" x="466" y="82" rx="2" ry="2"/><rect class="c" x="466" y="98" rx="2" ry="2"/><rect class="c" x="482" y="2" rx="2" ry="2"/><rect class="c" x="482" y="18" rx="2" ry="2"/><rect class="c" x="482" y="34" rx="2" ry="2"/><rect class="c" x="482" y="50" rx="2" ry="2"/><rect class="c" x="482" y="66" rx="2" ry="2"/><rect class="c" x="482" y="82" rx="2" ry="2"/><rect class="c" x="482" y="98" rx="2" ry="2"/><rect class="c" x="498" y="2" rx="2" ry="2"/><rect class="c" x="498" y="18" rx="2" ry="2"/><rect class="c" x="498" y="34" rx="2" ry="2"/><rect class="c" x="498" y="50" rx="2" ry="2"/><rect class="c" x="498" y="66" rx="2" ry="2"/><rect class="c" x="498" y="82" rx="2" ry="2"/><rect class="c" x="498" y="98" rx="2" ry="2"/><rect class="c" x="514" y="2" rx="2" ry="2"/><rect class="c" x="514" y="18" rx="2" ry="2"/><rect class="c" x="514" y="34" rx="2" ry="2"/><rect class="c" x="514" y="50" rx="2" ry="2"/><rect class="c" x="514" y="66" rx="2" ry="2"/><rect class="c" x="514" y="82" rx="2" ry="2"/><rect class="c" x="514" y="98" rx="2" ry="2"/><rect class="c" x="530" y="2" rx="2" ry="2"/><rect class="c" x="530" y="18" rx="2" ry="2"/><rect class="c" x="530" y="34" rx="2" ry="2"/><rect class="c" x="530" y="50" rx="2" ry="2"/><rect class="c" x="530" y="66" rx="2" ry="2"/><rect class="c" x="530" y="82" rx="2" ry="2"/><rect class="c" x="530" y="98" rx="2" ry="2"/><rect class="c" x="546" y="2" rx="2" ry="2"/><rect class="c" x="546" y="18" rx="2" ry="2"/><rect class="c" x="546" y="34" rx="2" ry="2"/><rect class="c" x="546" y="50" rx="2" ry="2"/><rect class="c" x="546" y="66" rx="2" ry="2"/><rect class="c" x="546" y="82" rx="2" ry="2"/><rect class="c" x="546" y="98" rx="2" ry="2"/><rect class="c" x="562" y="2" rx="2" ry="2"/><rect class="c" x="562" y="18" rx="2" ry="2"/><rect class="c" x="562" y="34" rx="2" ry="2"/><rect class="c c4" x="562" y="50" rx="2" ry="2"/><rect class="c c5" x="562" y="66" rx="2" ry="2"/><rect class="c" x="562" y="82" rx="2" ry="2"/><rect class="c" x="562" y="98" rx="2" ry="2"/><rect class="c" x="578" y="2" rx="2" ry="2"/><rect class="c" x="578" y="18" rx="2" ry="2"/><rect class="c" x="578" y="34" rx="2" ry="2"/><rect class="c" x="578" y="50" rx="2" ry="2"/><rect class="c" x="578" y="66" rx="2" ry="2"/><rect class="c" x="578" y="82" rx="2" ry="2"/><rect class="c" x="578" y="98" rx="2" ry="2"/><rect class="c" x="594" y="2" rx="2" ry="2"/><rect class="c" x="594" y="18" rx="2" ry="2"/><rect class="c" x="594" y="34" rx="2" ry="2"/><rect class="c" x="594" y="50" rx="2" ry="2"/><rect class="c" x="594" y="66" rx="2" ry="2"/><rect class="c" x="594" y="82" rx="2" ry="2"/><rect class="c" x="594" y="98" rx="2" ry="2"/><rect class="c" x="610" y="2" rx="2" ry="2"/><rect class="c" x="610" y="18" rx="2" ry="2"/><rect class="c" x="610" y="34" rx="2" ry="2"/><rect class="c" x="610" y="50" rx="2" ry="2"/><rect class="c" x="610" y="66" rx="2" ry="2"/><rect class="c" x="610" y="82" rx="2" ry="2"/><rect class="c c6" x="610" y="98" rx="2" ry="2"/><rect class="c" x="626" y="2" rx="2" ry="2"/><rect class="c c7" x="626" y="18" rx="2" ry="2"/><rect class="c" x="626" y="34" rx="2" ry="2"/><rect class="c" x="626" y="50" rx="2" ry="2"/><rect class="c" x="626" y="66" rx="2" ry="2"/><rect class="c" x="626" y="82" rx="2" ry="2"/><rect class="c" x="626" y="98" rx="2" ry="2"/><rect class="c c8" x="642" y="2" rx="2" ry="2"/><rect class="c c9" x="642" y="18" rx="2" ry="2"/><rect class="c" x="642" y="34" rx="2" ry="2"/><rect class="c" x="642" y="50" rx="2" ry="2"/><rect class="c" x="642" y="66" rx="2" ry="2"/><rect class="c" x="642" y="82" rx="2" ry="2"/><rect class="c" x="642" y="98" rx="2" ry="2"/><rect class="c" x="658" y="2" rx="2" ry="2"/><rect class="c" x="658" y="18" rx="2" ry="2"/><rect class="c" x="658" y="34" rx="2" ry="2"/><rect class="c" x="658" y="50" rx="2" ry="2"/><rect class="c" x="658" y="66" rx="2" ry="2"/><rect class="c" x="658" y="82" rx="2" ry="2"/><rect class="c" x="658" y="98" rx="2" ry="2"/><rect class="c" x="674" y="2" rx="2" ry="2"/><rect class="c" x="674" y="18" rx="2" ry="2"/><rect class="c" x="674" y="34" rx="2" ry="2"/><rect class="c" x="674" y="50" rx="2" ry="2"/><rect class="c" x="674" y="66" rx="2" ry="2"/><rect class="c" x="674" y="82" rx="2" ry="2"/><rect class="c" x="674" y="98" rx="2" ry="2"/><rect class="c" x="690" y="2" rx="2" ry="2"/><rect class="c" x="690" y="18" rx="2" ry="2"/><rect class="c" x="690" y="34" rx="2" ry="2"/><rect class="c" x="690" y="50" rx="2" ry="2"/><rect class="c" x="690" y="66" rx="2" ry="2"/><rect class="c" x="690" y="82" rx="2" ry="2"/><rect class="c" x="690" y="98" rx="2" ry="2"/><rect class="c" x="706" y="2" rx="2" ry="2"/><rect class="c" x="706" y="18" rx="2" ry="2"/><rect class="c" x="706" y="34" rx="2" ry="2"/><rect class="c" x="706" y="50" rx="2" ry="2"/><rect class="c" x="706" y="66" rx="2" ry="2"/><rect class="c" x="706" y="82" rx="2" ry="2"/><rect class="c" x="706" y="98" rx="2" ry="2"/><rect class="c" x="722" y="2" rx="2" ry="2"/><rect class="c" x="722" y="18" rx="2" ry="2"/><rect class="c" x="722" y="34" rx="2" ry="2"/><rect class="c ca" x="722" y="50" rx="2" ry="2"/><rect class="c cb" x="722" y="66" rx="2" ry="2"/><rect class="c" x="722" y="82" rx="2" ry="2"/><rect class="c cc" x="722" y="98" rx="2" ry="2"/><rect class="c" x="738" y="2" rx="2" ry="2"/><rect class="c cd" x="738" y="18" rx="2" ry="2"/><rect class="c" x="738" y="34" rx="2" ry="2"/><rect class="c ce" x="738" y="50" rx="2" ry="2"/><rect class="c cf" x="738" y="66" rx="2" ry="2"/><rect class="c cg" x="738" y="82" rx="2" ry="2"/><rect class="c ch" x="738" y="98" rx="2" ry="2"/><rect class="c ci" x="754" y="2" rx="2" ry="2"/><rect class="c" x="754" y="18" rx="2" ry="2"/><rect class="c" x="754" y="34" rx="2" ry="2"/><rect class="c" x="754" y="50" rx="2" ry="2"/><rect class="c" x="754" y="66" rx="2" ry="2"/><rect class="c" x="754" y="82" rx="2" ry="2"/><rect class="c cj" x="754" y="98" rx="2" ry="2"/><rect class="c" x="770" y="2" rx="2" ry="2"/><rect class="c" x="770" y="18" rx="2" ry="2"/><rect class="c" x="770" y="34" rx="2" ry="2"/><rect class="c" x="770" y="50" rx="2" ry="2"/><rect class="c" x="770" y="66" rx="2" ry="2"/><rect class="c" x="770" y="82" rx="2" ry="2"/><rect class="c" x="770" y="98" rx="2" ry="2"/><rect class="c" x="786" y="2" rx="2" ry="2"/><rect class="c" x="786" y="18" rx="2" ry="2"/><rect class="c" x="786" y="34" rx="2" ry="2"/><rect class="c ck" x="786" y="50" rx="2" ry="2"/><rect class="c" x="786" y="66" rx="2" ry="2"/><rect class="c cl" x="786" y="82" rx="2" ry="2"/><rect class="c cm" x="786" y="98" rx="2" ry="2"/><rect class="c cn" x="802" y="2" rx="2" ry="2"/><rect class="c" x="802" y="18" rx="2" ry="2"/><rect class="c co" x="802" y="34" rx="2" ry="2"/><rect class="c cp" x="802" y="50" rx="2" ry="2"/><rect class="c" x="802" y="66" rx="2" ry="2"/><rect class="c" x="802" y="82" rx="2" ry="2"/><rect class="c cq" x="802" y="98" rx="2" ry="2"/><rect class="c cr" x="818" y="2" rx="2" ry="2"/><rect class="c cs" x="818" y="18" rx="2" ry="2"/><rect class="c ct" x="818" y="34" rx="2" ry="2"/><rect class="c cu" x="818" y="50" rx="2" ry="2"/><rect class="c cv" x="818" y="66" rx="2" ry="2"/><rect class="c cw" x="818" y="82" rx="2" ry="2"/><rect class="c cx" x="818" y="98" rx="2" ry="2"/><rect class="c cy" x="834" y="2" rx="2" ry="2"/><rect class="c" x="834" y="18" rx="2" ry="2"/><rect class="c cz" x="834" y="34" rx="2" ry="2"/><rect class="c" x="834" y="50" rx="2" ry="2"/><rect class="u u0" height="12" width="518.8" x="0.0" y="144"/><rect class="u u1" height="12" width="165.5" x="518.2" y="144"/><rect class="u u2" height="12" width="94.8" x="683.1" y="144"/><rect class="u u3" height="12" width="71.3" x="777.3" y="144"/><rect class="s s0" x="0.8" y="0.8" width="14.4" height="14.4" rx="4.5" ry="4.5"/><rect class="s s1" x="1.8" y="1.8" width="12.3" height="12.3" rx="4.1" ry="4.1"/><rect class="s s2" x="2.6" y="2.6" width="10.8" height="10.8" rx="3.6" ry="3.6"/><rect class="s s3" x="3.0" y="3.0" width="9.9" height="9.9" rx="3.3" ry="3.3"/></svg>